<svg width="140" height="140" viewBox="0 0 140 140" fill="none" xmlns="http://www.w3.org/2000/svg">
<circle cx="68" cy="68" r="68" fill="#3C3E42"/>
<g filter="url(#filter0_d)">
<path fill-rule="evenodd" clip-rule="evenodd" d="M40 91L34 47C34 45.926 34.4232 44.9509 35.112 44.2324C35.8401 43.4729 36.8648 43 38 43H58C58.6963 42.998 59.3743 43.3593 59.7474 44.0056L63.7858 51H86C87.153 51 88.1921 51.4879 88.9221 52.2684C89.5907 52.9834 90 53.9439 90 55L96 91C96 92.0561 95.5907 93.0166 94.9221 93.7316C94.1921 94.5121 93.153 95 92 95H44C42.847 95 41.8079 94.5121 41.0779 93.7316C40.4093 93.0166 40 92.0561 40 91Z" fill="#585A62"/>
</g>
<path fill-rule="evenodd" clip-rule="evenodd" d="M96 91L100 63C100 61.926 99.5768 60.9509 98.888 60.2324C98.1599 59.4729 97.1352 59 96 59H76C75.3037 58.998 74.6257 59.3593 74.2526 60.0056L70.2142 67H48C46.847 67 45.8079 67.4879 45.0779 68.2684C44.4093 68.9834 44 69.9439 44 71L40 91C40 92.0561 40.4093 93.0166 41.0779 93.7316C41.8079 94.5121 42.847 95 44 95H92C93.153 95 94.1921 94.5121 94.9221 93.7316C95.5907 93.0166 96 92.0561 96 91Z" fill="#6B6E76"/>
<circle cx="72" cy="72" r="68" fill="#3C3E42"/>
<g filter="url(#filter1_d)">
<path fill-rule="evenodd" clip-rule="evenodd" d="M44 95L38 51C38 49.926 38.4232 48.9509 39.112 48.2324C39.8401 47.4729 40.8648 47 42 47H62C62.6963 46.998 63.3743 47.3593 63.7474 48.0056L67.7858 55H90C91.153 55 92.1921 55.4879 92.9221 56.2684C93.5907 56.9834 94 57.9439 94 59L100 95C100 96.0561 99.5907 97.0166 98.9221 97.7316C98.1921 98.5121 97.153 99 96 99H48C46.847 99 45.8079 98.5121 45.0779 97.7316C44.4093 97.0166 44 96.0561 44 95Z" fill="#585A62"/>
</g>
<g filter="url(#filter2_d)">
<path fill-rule="evenodd" clip-rule="evenodd" d="M100 95L104 67C104 65.926 103.577 64.9509 102.888 64.2324C102.16 63.4729 101.135 63 100 63H80C79.3037 62.998 78.6257 63.3593 78.2526 64.0056L74.2142 71H52C50.847 71 49.8079 71.4879 49.0779 72.2684C48.4093 72.9834 48 73.9439 48 75L44 95C44 96.0561 44.4093 97.0166 45.0779 97.7316C45.8079 98.5121 46.847 99 48 99H96C97.153 99 98.1921 98.5121 98.9221 97.7316C99.5907 97.0166 100 96.0561 100 95Z" fill="#6B6E76"/>
</g>
<g filter="url(#filter3_d)">
<circle cx="92" cy="89" r="16" fill="#6B6E76"/>
<path d="M98.1308 81.9475C97.9844 81.801 97.747 81.801 97.6005 81.9475L92.3346 87.2133L87.0671 81.9458C86.9206 81.7993 86.6832 81.7993 86.5368 81.9458L84.9458 83.5368C84.7993 83.6832 84.7993 83.9206 84.9458 84.0671L90.2133 89.3346L84.9458 94.6022C84.7993 94.7486 84.7993 94.9861 84.9458 95.1325L86.5368 96.7235C86.6832 96.87 86.9207 96.87 87.0671 96.7235L92.3346 91.456L97.6014 96.7227C97.7478 96.8691 97.9852 96.8691 98.1317 96.7227L99.7227 95.1317C99.8691 94.9852 99.8691 94.7478 99.7227 94.6014L94.456 89.3346L99.7218 84.0688C99.8683 83.9223 99.8683 83.6849 99.7218 83.5385L98.1308 81.9475Z" fill="#313236"/>
<path fill-rule="evenodd" clip-rule="evenodd" d="M103.235 103.064C100.156 105.527 96.25 107 92 107C82.0589 107 74 98.9411 74 89C74 79.0589 82.0589 71 92 71C101.941 71 110 79.0589 110 89C110 93.25 108.527 97.156 106.064 100.235L111.707 105.879C112.098 106.269 112.098 106.902 111.707 107.293L110.293 108.707C109.902 109.098 109.269 109.098 108.879 108.707L103.235 103.064ZM106.125 89.0625C106.125 96.829 99.829 103.125 92.0625 103.125C84.296 103.125 78 96.829 78 89.0625C78 81.296 84.296 75 92.0625 75C99.829 75 106.125 81.296 106.125 89.0625Z" fill="#313236"/>
</g>
<defs>
<filter id="filter0_d" x="30" y="39" width="70" height="60" filterUnits="userSpaceOnUse" color-interpolation-filters="sRGB">
<feFlood flood-opacity="0" result="BackgroundImageFix"/>
<feColorMatrix in="SourceAlpha" type="matrix" values="0 0 0 0 0 0 0 0 0 0 0 0 0 0 0 0 0 0 127 0" result="hardAlpha"/>
<feOffset/>
<feGaussianBlur stdDeviation="2"/>
<feColorMatrix type="matrix" values="0 0 0 0 0 0 0 0 0 0 0 0 0 0 0 0 0 0 0.25 0"/>
<feBlend mode="normal" in2="BackgroundImageFix" result="effect1_dropShadow"/>
<feBlend mode="normal" in="SourceGraphic" in2="effect1_dropShadow" result="shape"/>
</filter>
<filter id="filter1_d" x="34" y="43" width="70" height="60" filterUnits="userSpaceOnUse" color-interpolation-filters="sRGB">
<feFlood flood-opacity="0" result="BackgroundImageFix"/>
<feColorMatrix in="SourceAlpha" type="matrix" values="0 0 0 0 0 0 0 0 0 0 0 0 0 0 0 0 0 0 127 0" result="hardAlpha"/>
<feOffset/>
<feGaussianBlur stdDeviation="2"/>
<feColorMatrix type="matrix" values="0 0 0 0 0 0 0 0 0 0 0 0 0 0 0 0 0 0 0.25 0"/>
<feBlend mode="normal" in2="BackgroundImageFix" result="effect1_dropShadow"/>
<feBlend mode="normal" in="SourceGraphic" in2="effect1_dropShadow" result="shape"/>
</filter>
<filter id="filter2_d" x="40" y="57" width="68" height="44" filterUnits="userSpaceOnUse" color-interpolation-filters="sRGB">
<feFlood flood-opacity="0" result="BackgroundImageFix"/>
<feColorMatrix in="SourceAlpha" type="matrix" values="0 0 0 0 0 0 0 0 0 0 0 0 0 0 0 0 0 0 127 0" result="hardAlpha"/>
<feOffset dy="-2"/>
<feGaussianBlur stdDeviation="2"/>
<feComposite in2="hardAlpha" operator="out"/>
<feColorMatrix type="matrix" values="0 0 0 0 0 0 0 0 0 0 0 0 0 0 0 0 0 0 0.12 0"/>
<feBlend mode="normal" in2="BackgroundImageFix" result="effect1_dropShadow"/>
<feBlend mode="normal" in="SourceGraphic" in2="effect1_dropShadow" result="shape"/>
</filter>
<filter id="filter3_d" x="70" y="67" width="46" height="46" filterUnits="userSpaceOnUse" color-interpolation-filters="sRGB">
<feFlood flood-opacity="0" result="BackgroundImageFix"/>
<feColorMatrix in="SourceAlpha" type="matrix" values="0 0 0 0 0 0 0 0 0 0 0 0 0 0 0 0 0 0 127 0" result="hardAlpha"/>
<feOffset/>
<feGaussianBlur stdDeviation="2"/>
<feComposite in2="hardAlpha" operator="out"/>
<feColorMatrix type="matrix" values="0 0 0 0 0 0 0 0 0 0 0 0 0 0 0 0 0 0 0.25 0"/>
<feBlend mode="normal" in2="BackgroundImageFix" result="effect1_dropShadow"/>
<feBlend mode="normal" in="SourceGraphic" in2="effect1_dropShadow" result="shape"/>
</filter>
</defs>
</svg>
