<svg width="136" height="136" viewBox="0 0 136 136" fill="none" xmlns="http://www.w3.org/2000/svg">
  <circle cx="68" cy="68" r="68" fill="#3C3E42"/>
  <g filter="url(#filter0_d)">
    <path fill-rule="evenodd" clip-rule="evenodd" d="M40 91L34 47C34 45.926 34.4232 44.9509 35.112 44.2324C35.8401 43.4729 36.8648 43 38 43H58C58.6963 42.998 59.3743 43.3593 59.7474 44.0056L63.7858 51H86C87.153 51 88.1921 51.4879 88.9221 52.2684C89.5907 52.9834 90 53.9439 90 55L96 91C96 92.0561 95.5907 93.0166 94.9221 93.7316C94.1921 94.5121 93.153 95 92 95H44C42.847 95 41.8079 94.5121 41.0779 93.7316C40.4093 93.0166 40 92.0561 40 91Z" fill="#585A62"/>
  </g>
  <g filter="url(#filter1_d)">
    <path fill-rule="evenodd" clip-rule="evenodd" d="M96 91L100 63C100 61.926 99.5768 60.9509 98.888 60.2324C98.1599 59.4729 97.1352 59 96 59H76C75.3037 58.998 74.6257 59.3593 74.2526 60.0056L70.2142 67H48C46.847 67 45.8079 67.4879 45.0779 68.2684C44.4093 68.9834 44 69.9439 44 71L40 91C40 92.0561 40.4093 93.0166 41.0779 93.7316C41.8079 94.5121 42.847 95 44 95H92C93.153 95 94.1921 94.5121 94.9221 93.7316C95.5907 93.0166 96 92.0561 96 91Z" fill="#6B6E76"/>
  </g>
  <defs>
    <filter id="filter0_d" x="30" y="39" width="70" height="60" filterUnits="userSpaceOnUse" color-interpolation-filters="sRGB">
      <feFlood flood-opacity="0" result="BackgroundImageFix"/>
      <feColorMatrix in="SourceAlpha" type="matrix" values="0 0 0 0 0 0 0 0 0 0 0 0 0 0 0 0 0 0 127 0" result="hardAlpha"/>
      <feOffset/>
      <feGaussianBlur stdDeviation="2"/>
      <feColorMatrix type="matrix" values="0 0 0 0 0 0 0 0 0 0 0 0 0 0 0 0 0 0 0.25 0"/>
      <feBlend mode="normal" in2="BackgroundImageFix" result="effect1_dropShadow"/>
      <feBlend mode="normal" in="SourceGraphic" in2="effect1_dropShadow" result="shape"/>
    </filter>
    <filter id="filter1_d" x="36" y="51" width="68" height="44" filterUnits="userSpaceOnUse" color-interpolation-filters="sRGB">
      <feFlood flood-opacity="0" result="BackgroundImageFix"/>
      <feColorMatrix in="SourceAlpha" type="matrix" values="0 0 0 0 0 0 0 0 0 0 0 0 0 0 0 0 0 0 127 0" result="hardAlpha"/>
      <feOffset dy="-4"/>
      <feGaussianBlur stdDeviation="2"/>
      <feColorMatrix type="matrix" values="0 0 0 0 0 0 0 0 0 0 0 0 0 0 0 0 0 0 0.12 0"/>
      <feBlend mode="normal" in2="BackgroundImageFix" result="effect1_dropShadow"/>
      <feBlend mode="normal" in="SourceGraphic" in2="effect1_dropShadow" result="shape"/>
    </filter>
  </defs>
</svg>
