<svg width="36" height="14" viewBox="0 0 36 14" fill="none" xmlns="http://www.w3.org/2000/svg">
<g clip-path="url(#clip0)">
<path d="M2.57427 0.191406H0V2.80981H2.57427V0.191406Z" fill="#585A62"/>
<path d="M2.50769 13.81V4.39216H0.0683594V13.81H2.50769ZM18.6747 13.905V11.598C18.3166 11.598 18.0208 11.5769 17.7924 11.54C17.5433 11.4977 17.3461 11.4133 17.2215 11.2813C17.0917 11.1493 17.0087 10.9593 16.9672 10.7164C16.9309 10.4842 16.9101 10.178 16.9101 9.80845V6.51433H18.6747V4.39216H16.9101V0.728507H14.4708V9.82956C14.4708 10.595 14.5382 11.2496 14.668 11.7722C14.7977 12.2843 15.0157 12.7066 15.3167 13.0234C15.6178 13.3401 16.0226 13.5671 16.5053 13.7044C16.9983 13.8416 17.6211 13.9103 18.3633 13.9103H18.6747V13.905ZM32.6515 13.81V0H30.2122V13.81H32.6515ZM12.1197 5.32127C11.445 4.57692 10.49 4.20211 9.28071 4.20211C8.69943 4.20211 8.15966 4.32353 7.68217 4.56637C7.20469 4.8092 6.79467 5.14706 6.47289 5.56938L6.33795 5.74359V5.58522V4.39216H3.92976V13.81H6.35352V8.79487V9.14329C6.35352 9.08522 6.35352 9.02715 6.35352 8.97436C6.37947 8.09276 6.59226 7.43816 6.99709 7.02112C7.42786 6.57768 7.94687 6.35068 8.54372 6.35068C9.24957 6.35068 9.78415 6.5724 10.1423 7C10.49 7.42232 10.6665 8.02941 10.6716 8.80543V8.82655V8.83183V13.81H13.1317V8.46757C13.1369 7.12142 12.7944 6.06561 12.1197 5.32127ZM28.9406 9.08522C28.9406 8.4095 28.8213 7.77074 28.5877 7.17949C28.3542 6.59351 28.022 6.07089 27.6068 5.62217C27.1916 5.17873 26.683 4.82504 26.0965 4.57692C25.5152 4.32881 24.8613 4.20211 24.1606 4.20211C23.4963 4.20211 22.8631 4.33409 22.2818 4.58748C21.6953 4.84615 21.1815 5.19457 20.7507 5.63273C20.32 6.07089 19.9722 6.59351 19.7231 7.19005C19.4688 7.7813 19.3442 8.42534 19.3442 9.10106C19.3442 9.77677 19.4636 10.4208 19.7075 11.0121C19.9463 11.6086 20.2836 12.1312 20.7092 12.5641C21.1348 13.0023 21.6538 13.356 22.2559 13.6094C22.8579 13.868 23.5274 13.9947 24.2385 13.9947C26.3041 13.9947 27.5912 13.0392 28.3594 12.1471L26.6051 10.7851C26.2366 11.2338 25.3595 11.8356 24.2592 11.8356C23.5689 11.8356 23.0032 11.6719 22.5776 11.3552C22.1469 11.0332 21.851 10.595 21.6953 10.046L21.6694 9.95626H28.9406V9.08522ZM21.6901 8.21946C21.6901 7.5279 22.4686 6.32428 24.145 6.32428C25.8214 6.32428 26.5999 7.5279 26.5999 8.21418L21.6901 8.21946Z" fill="#585A62"/>
<path d="M35.4268 12.6221C35.3801 12.5112 35.3127 12.4162 35.2348 12.3317C35.1518 12.2473 35.0583 12.1839 34.9494 12.1364C34.8404 12.0889 34.721 12.0625 34.5964 12.0625C34.4719 12.0625 34.3525 12.0889 34.2435 12.1364C34.1345 12.1839 34.0411 12.2525 33.9581 12.3317C33.875 12.4162 33.8127 12.5112 33.766 12.6221C33.7193 12.7329 33.6934 12.8544 33.6934 12.9811C33.6934 13.1077 33.7193 13.2292 33.766 13.34C33.8127 13.4509 33.8802 13.5459 33.9581 13.6304C34.0411 13.7148 34.1345 13.7782 34.2435 13.8257C34.3525 13.8732 34.4719 13.8996 34.5964 13.8996C34.721 13.8996 34.8404 13.8732 34.9494 13.8257C35.0583 13.7782 35.1518 13.7096 35.2348 13.6304C35.3179 13.5459 35.3801 13.4509 35.4268 13.34C35.4736 13.2292 35.4995 13.1077 35.4995 12.9811C35.4995 12.8544 35.4736 12.7382 35.4268 12.6221ZM35.2815 13.2767C35.2452 13.3664 35.1881 13.4509 35.1206 13.5195C35.0532 13.5881 34.9753 13.6409 34.8819 13.6832C34.7937 13.7201 34.695 13.7412 34.5912 13.7412C34.4874 13.7412 34.394 13.7201 34.3006 13.6832C34.2124 13.6462 34.1293 13.5881 34.0619 13.5195C33.9944 13.4509 33.9425 13.3717 33.901 13.2767C33.8646 13.1869 33.8439 13.0866 33.8439 12.9811C33.8439 12.8755 33.8646 12.7804 33.901 12.6854C33.9373 12.5957 33.9944 12.5112 34.0619 12.4426C34.1293 12.374 34.2072 12.3212 34.3006 12.2789C34.3888 12.242 34.4874 12.2209 34.5912 12.2209C34.695 12.2209 34.7885 12.242 34.8819 12.2789C34.9701 12.3159 35.0532 12.374 35.1206 12.4426C35.1881 12.5112 35.24 12.5904 35.2815 12.6854C35.3179 12.7752 35.3386 12.8755 35.3386 12.9811C35.3386 13.0866 35.3179 13.1817 35.2815 13.2767ZM34.7677 13.055C34.8404 13.0444 34.8975 13.018 34.9442 12.9758C34.9909 12.9283 35.0116 12.8596 35.0116 12.7699C35.0116 12.6696 34.9805 12.5904 34.9234 12.5376C34.8663 12.4848 34.7729 12.4584 34.6483 12.4584H34.2487V13.509H34.4355V13.0814H34.5757L34.8352 13.509H35.0324L34.7677 13.055ZM34.6639 12.9019C34.6328 12.9019 34.6068 12.9071 34.5757 12.9071H34.4355V12.6115H34.5757C34.6068 12.6115 34.6328 12.6115 34.6639 12.6115C34.695 12.6115 34.721 12.6168 34.7418 12.6274C34.7677 12.6379 34.7833 12.6538 34.7988 12.6696C34.8144 12.6907 34.8196 12.7171 34.8196 12.7488C34.8196 12.7804 34.8144 12.8121 34.7988 12.828C34.7833 12.8491 34.7677 12.8649 34.7418 12.8702C34.721 12.8966 34.695 12.9019 34.6639 12.9019Z" fill="#585A62"/>
</g>
<defs>
<clipPath id="clip0">
<rect width="35.5" height="14" fill="white"/>
</clipPath>
</defs>
</svg>
