<svg width="180" height="206" viewBox="0 0 180 206" fill="none" xmlns="http://www.w3.org/2000/svg">
<circle cx="90" cy="90" r="87" stroke="#3C3E42" stroke-width="6"/>
<circle cx="90" cy="90" r="76" stroke="#3C3E42" stroke-width="12"/>
<circle cx="90" cy="90" r="68" fill="#3C3E42"/>
<g filter="url(#filter0_d)">
<rect x="21.3975" y="63.0625" width="120" height="90" transform="rotate(-15 21.3975 63.0625)" fill="#585A62"/>
</g>
<path d="M67.0576 80.8511L99.7675 110.909L53.7591 123.237L67.0576 80.8511Z" fill="#313236"/>
<path d="M92.2224 62.7201L139.241 106.026L73.1563 123.734L92.2224 62.7201Z" fill="#313236"/>
<circle cx="45.8922" cy="77.2046" r="8" transform="rotate(-15 45.8922 77.2046)" fill="#313236"/>
<g filter="url(#filter1_d)">
<rect x="29" y="40" width="120" height="90" fill="#585A62"/>
</g>
<path d="M45.5942 106L68.5 69.9326L91.4058 106H45.5942Z" fill="#313236" stroke="#2D9D78"/>
<path d="M64.2006 111.5L97.5 58.9343L130.799 111.5H64.2006Z" fill="#313236" stroke="#2D9D78"/>
<g filter="url(#filter2_d)">
<path d="M85.9925 169.992L78.9926 169.992C77.9926 169.992 77.7426 168.742 78.2994 168.294L89.2815 158.293C89.479 158.095 89.7385 157.998 89.9973 158C90.2561 157.998 90.5157 158.095 90.7131 158.293L101.618 168.303C102.305 168.929 101.993 170 100.993 170L93.9921 170L93.9921 189.005C93.9921 189.557 93.5444 190.005 92.9921 190.005L86.9925 190.005C86.4402 190.005 85.9925 189.557 85.9925 189.005L85.9925 169.992Z" fill="#6B6E76"/>
</g>
<defs>
<filter id="filter0_d" x="17.3975" y="30.0043" width="147.205" height="125.992" filterUnits="userSpaceOnUse" color-interpolation-filters="sRGB">
<feFlood flood-opacity="0" result="BackgroundImageFix"/>
<feColorMatrix in="SourceAlpha" type="matrix" values="0 0 0 0 0 0 0 0 0 0 0 0 0 0 0 0 0 0 127 0" result="hardAlpha"/>
<feOffset dy="2"/>
<feGaussianBlur stdDeviation="2"/>
<feColorMatrix type="matrix" values="0 0 0 0 0 0 0 0 0 0 0 0 0 0 0 0 0 0 0.38 0"/>
<feBlend mode="normal" in2="BackgroundImageFix" result="effect1_dropShadow"/>
<feBlend mode="normal" in="SourceGraphic" in2="effect1_dropShadow" result="shape"/>
</filter>
<filter id="filter1_d" x="25" y="38" width="128" height="98" filterUnits="userSpaceOnUse" color-interpolation-filters="sRGB">
<feFlood flood-opacity="0" result="BackgroundImageFix"/>
<feColorMatrix in="SourceAlpha" type="matrix" values="0 0 0 0 0 0 0 0 0 0 0 0 0 0 0 0 0 0 127 0" result="hardAlpha"/>
<feOffset dy="2"/>
<feGaussianBlur stdDeviation="2"/>
<feColorMatrix type="matrix" values="0 0 0 0 0 0 0 0 0 0 0 0 0 0 0 0 0 0 0.38 0"/>
<feBlend mode="normal" in2="BackgroundImageFix" result="effect1_dropShadow"/>
<feBlend mode="normal" in="SourceGraphic" in2="effect1_dropShadow" result="shape"/>
</filter>
<filter id="filter2_d" x="74.0088" y="156" width="31.9771" height="40.0048" filterUnits="userSpaceOnUse" color-interpolation-filters="sRGB">
<feFlood flood-opacity="0" result="BackgroundImageFix"/>
<feColorMatrix in="SourceAlpha" type="matrix" values="0 0 0 0 0 0 0 0 0 0 0 0 0 0 0 0 0 0 127 0" result="hardAlpha"/>
<feOffset dy="2"/>
<feGaussianBlur stdDeviation="2"/>
<feColorMatrix type="matrix" values="0 0 0 0 0 0 0 0 0 0 0 0 0 0 0 0 0 0 0.38 0"/>
<feBlend mode="normal" in2="BackgroundImageFix" result="effect1_dropShadow"/>
<feBlend mode="normal" in="SourceGraphic" in2="effect1_dropShadow" result="shape"/>
</filter>
</defs>
</svg>
