<svg width="16" height="16" viewBox="0 0 16 16" fill="none" xmlns="http://www.w3.org/2000/svg">
<path d="M4.99976 8.00024L4.99976 9.74925C4.99976 9.97197 4.73047 10.0835 4.57298 9.92602L2.08278 7.67702C2.03397 7.6282 1.99976 7.56422 1.99976 7.50024C1.99975 7.43626 2.03397 7.37228 2.08278 7.32346L4.57298 5.07397C4.73047 4.91648 4.99976 5.02802 4.99976 5.25075L4.99976 7.00024L10.9998 7.00024L10.9998 5.25075C10.9998 5.02802 11.269 4.91648 11.4265 5.07397L13.9167 7.32346C13.9655 7.37228 13.9998 7.43626 13.9998 7.50024C13.9998 7.56422 13.9655 7.6282 13.9167 7.67702L11.4265 9.92602C11.269 10.0835 10.9998 9.97197 10.9998 9.74925V8.00024L4.99976 8.00024Z" />
</svg>
