<svg width="16" height="16" viewBox="0 0 16 16"  xmlns="http://www.w3.org/2000/svg">
<path d="M0.792894 8.71714C0.40237 8.32662 0.402368 7.69346 0.792893 7.30293L7.295 0.800828C7.68552 0.410304 8.31869 0.410303 8.70921 0.800828L9.41632 1.50793C9.80684 1.89846 9.80684 2.53162 9.41632 2.92215L5.83847 6.5H14.492C15.0443 6.5 15.492 6.94771 15.492 7.5V8.5C15.492 9.05228 15.0443 9.5 14.492 9.5H5.81839L9.38507 13.0667C9.77559 13.4572 9.77559 14.0904 9.38507 14.4809L8.67796 15.188C8.28744 15.5785 7.65427 15.5785 7.26375 15.188L0.792894 8.71714Z" />
</svg>
