<svg width="16" height="16" viewBox="0 0 16 16"  xmlns="http://www.w3.org/2000/svg">
<path fill-rule="evenodd" clip-rule="evenodd" d="M8.12149 1.03627C8.04594 0.994259 7.95406 0.994259 7.87851 1.03627L1.14295 4.78147C0.971606 4.87674 0.971606 5.12318 1.14295 5.21846L1.5 5.41699V12H1.25C1.11193 12 1 12.1119 1 12.25V14.75C1 14.888 1.11193 15 1.25 15H2.75C2.88807 15 3 14.888 3 14.75V12.25C3 12.1119 2.88807 12 2.75 12H2.5V5.97302L3 6.25104V8.88966C3 8.97748 3.04607 9.05886 3.12138 9.10404L7.87138 11.954C7.95055 12.0015 8.04945 12.0015 8.12862 11.954L12.8786 9.10404C12.9539 9.05886 13 8.97748 13 8.88966V6.25104L14.857 5.21846C15.0284 5.12318 15.0284 4.87674 14.857 4.78147L8.12149 1.03627ZM8 2.12946L2.83755 4.99996L8 7.87046L13.1625 4.99996L8 2.12946ZM4 8.46502V6.80708L7.87851 8.96366C7.95406 9.00567 8.04594 9.00567 8.12149 8.96366L12 6.80708V8.46502L8 10.865L4 8.46502ZM2.5 13H1.5V14H2.5V13Z" />
</svg>
