<svg width="16" height="16" viewBox="0 0 16 16"  xmlns="http://www.w3.org/2000/svg">
<path d="M7.42422 11.8873C7.41225 11.8999 7.40021 11.9125 7.3869 11.9237C7.35464 11.9508 7.2867 12 7.21877 12C7.00002 12 7.00002 11.75 7.00002 11.75L7.00002 4.25C7.00002 4.25 7.00002 4 7.21877 4C7.28671 4 7.35465 4.04924 7.3869 4.07635C7.40021 4.08753 7.41225 4.10006 7.42422 4.11266L10.8883 7.76233C10.9003 7.77494 10.9125 7.78729 10.9234 7.80087C10.9504 7.83466 11 7.90906 11 8C11 8.09094 10.9504 8.16533 10.9234 8.19913C10.9125 8.2127 10.9003 8.22506 10.8883 8.23767L7.42422 11.8873Z" />
</svg>
