<svg width="16" height="16" viewBox="0 0 16 16"  xmlns="http://www.w3.org/2000/svg">
<path d="M4.11266 7.42421C4.10005 7.41224 4.08752 7.4002 4.07633 7.38688C4.04922 7.35462 3.99999 7.28669 3.99999 7.21875C3.99999 7 4.24999 7 4.24999 7L11.75 7C11.75 7 12 7 12 7.21875C12 7.28669 11.9508 7.35463 11.9236 7.38689C11.9125 7.4002 11.8999 7.41223 11.8873 7.4242L8.23766 10.8883C8.22505 10.9003 8.2127 10.9125 8.19912 10.9233C8.16533 10.9504 8.09093 11 7.99999 11C7.90906 11 7.83466 10.9504 7.80086 10.9233C7.78729 10.9125 7.77494 10.9003 7.76232 10.8883L4.11266 7.42421Z" />
</svg>
