<svg width="16" height="16" viewBox="0 0 16 16"  xmlns="http://www.w3.org/2000/svg">
<path fill-rule="evenodd" clip-rule="evenodd" d="M4.13721 11.22L6.05547 6.05546L11.22 4.1372C11.621 3.98825 12.0118 4.37898 11.8628 4.78001L9.94455 9.94454L4.78001 11.8628C4.37898 12.0118 3.98825 11.621 4.13721 11.22ZM9.16671 9.1667L10.5455 5.45446L6.83331 6.8333L9.16671 9.1667Z" />
<path fill-rule="evenodd" clip-rule="evenodd" d="M12.9576 12.9419C14.2197 11.6758 15 9.92902 15 8C15 6.07098 14.2197 4.32421 12.9576 3.05808C11.6902 1.78673 9.93698 1 8.00001 1C6.06303 1 4.30981 1.78673 3.04245 3.05808C1.78029 4.32421 1.00001 6.07098 1.00001 8C1.00001 9.92902 1.78029 11.6758 3.04245 12.9419C4.30981 14.2133 6.06303 15 8.00001 15C9.93698 15 11.6902 14.2133 12.9576 12.9419ZM12.2426 12.2426C13.3284 11.1569 14 9.65686 14 8C14 6.34315 13.3284 4.84315 12.2426 3.75736C11.1569 2.67157 9.65686 2 8.00001 2C6.34315 2 4.84315 2.67157 3.75737 3.75736C2.67158 4.84315 2.00001 6.34315 2.00001 8C2.00001 9.65686 2.67158 11.1569 3.75737 12.2426C4.84315 13.3284 6.34315 14 8.00001 14C9.65687 14 11.1569 13.3284 12.2426 12.2426Z" />
</svg>
