<svg width="16" height="16" viewBox="0 0 16 16"  xmlns="http://www.w3.org/2000/svg">
<path d="M12.5743 3.07383C12.4767 2.9762 12.3184 2.9762 12.2208 3.07383L8.00087 7.29375L3.78181 3.07469C3.68418 2.97706 3.52589 2.97706 3.42826 3.07469L3.0747 3.42824C2.97707 3.52587 2.97707 3.68416 3.0747 3.78179L7.29376 8.00085L3.07458 12.22C2.97695 12.3177 2.97695 12.476 3.07458 12.5736L3.42813 12.9271C3.52577 13.0248 3.68406 13.0248 3.78169 12.9271L8.00087 8.70796L12.2192 12.9263C12.3168 13.0239 12.4751 13.0239 12.5727 12.9263L12.9263 12.5727C13.0239 12.4751 13.0239 12.3168 12.9263 12.2192L8.70798 8.00085L12.9279 3.78094C13.0255 3.68331 13.0255 3.52502 12.9279 3.42739L12.5743 3.07383Z" />
</svg>
