<svg width="16" height="16" viewBox="0 0 16 16"  xmlns="http://www.w3.org/2000/svg">
<path d="M11.5743 4.07383C11.4767 3.9762 11.3184 3.9762 11.2208 4.07383L8.00087 7.29375L4.78181 4.07469C4.68418 3.97706 4.52589 3.97706 4.42826 4.07469L4.0747 4.42824C3.97707 4.52587 3.97707 4.68416 4.0747 4.78179L7.29376 8.00085L4.07458 11.22C3.97695 11.3177 3.97695 11.476 4.07458 11.5736L4.42813 11.9271C4.52577 12.0248 4.68406 12.0248 4.78169 11.9271L8.00087 8.70796L11.2192 11.9263C11.3168 12.0239 11.4751 12.0239 11.5727 11.9263L11.9263 11.5727C12.0239 11.4751 12.0239 11.3168 11.9263 11.2192L8.70798 8.00085L11.9279 4.78094C12.0255 4.68331 12.0255 4.52502 11.9279 4.42739L11.5743 4.07383Z" />
</svg>
