<svg width="16" height="16" viewBox="0 0 16 16"  xmlns="http://www.w3.org/2000/svg">
<path d="M6.125 4.00006C6.05596 4.00006 6 4.05603 6 4.12506V4.87506C6 4.9441 6.05596 5.00006 6.125 5.00006H8.875C8.94404 5.00006 9 4.9441 9 4.87506V4.12506C9 4.05603 8.94404 4.00006 8.875 4.00006H6.125Z" />
<path d="M10.125 4.00006C10.056 4.00006 10 4.05603 10 4.12506V4.87506C10 4.9441 10.056 5.00006 10.125 5.00006H12.875C12.944 5.00006 13 4.9441 13 4.87506V4.12506C13 4.05603 12.944 4.00006 12.875 4.00006H10.125Z" />
<path fill-rule="evenodd" clip-rule="evenodd" d="M1 3C1 2.44772 1.44772 2 2 2H14.0016C14.5532 2.00088 15 2.44826 15 3V11C15 11.5517 14.5532 11.9991 14.0017 12L9 12V13H10.75C10.8881 13 11 13.1119 11 13.25V13.75C11 13.8881 10.8881 14 10.75 14H5.25C5.11193 14 5 13.8881 5 13.75V13.25C5 13.1119 5.11193 13 5.25 13H7.00171V12.0001L2 12C1.44773 12 1.00002 11.5523 1 11V3ZM14 3V11H2.00171L2.00162 3H14Z" />
</svg>
