<svg width="16" height="16" viewBox="0 0 16 16"  xmlns="http://www.w3.org/2000/svg">
<path fill-rule="evenodd" clip-rule="evenodd" d="M12.7311 14.6823C12.8979 14.5036 13 14.2637 13 14V4L10 1H2.25C2.11193 1 2 1.11193 2 1.25V14C2 14.2637 2.10211 14.5036 2.26895 14.6823C2.45147 14.8778 2.71146 15 3 15H12C12.2885 15 12.5485 14.8778 12.7311 14.6823ZM9 4V2.5H3.5V13.5H11.5V5H10C9.72386 5 9.47387 4.88807 9.2929 4.70712C9.11193 4.52615 9 4.27615 9 4Z" />
<path d="M7 10.25C7 10.1119 7.11193 10 7.25 10H9.75C9.88807 10 10 10.1119 10 10.25V10.75C10 10.8881 9.88807 11 9.75 11H7.25C7.11193 11 7 10.8881 7 10.75V10.25Z" />
<path d="M5 10.25C5 10.1119 5.11193 10 5.25 10H5.75C5.88807 10 6 10.1119 6 10.25V10.75C6 10.8881 5.88807 11 5.75 11H5.25C5.11193 11 5 10.8881 5 10.75V10.25Z" />
<path d="M7 8.25C7 8.11193 7.11193 8 7.25 8H9.75C9.88807 8 10 8.11193 10 8.25V8.75C10 8.88807 9.88807 9 9.75 9H7.25C7.11193 9 7 8.88807 7 8.75V8.25Z" />
<path d="M5 8.25C5 8.11193 5.11193 8 5.25 8H5.75C5.88807 8 6 8.11193 6 8.25V8.75C6 8.88807 5.88807 9 5.75 9H5.25C5.11193 9 5 8.88807 5 8.75V8.25Z" />
<path d="M7 6.25C7 6.11193 7.11193 6 7.25 6H9.75C9.88807 6 10 6.11193 10 6.25V6.75C10 6.88807 9.88807 7 9.75 7H7.25C7.11193 7 7 6.88807 7 6.75V6.25Z" />
<path d="M5 6.25C5 6.11193 5.11193 6 5.25 6H5.75C5.88807 6 6 6.11193 6 6.25V6.75C6 6.88807 5.88807 7 5.75 7H5.25C5.11193 7 5 6.88807 5 6.75V6.25Z" />
</svg>
