<svg width="16" height="16" viewBox="0 0 16 16"  xmlns="http://www.w3.org/2000/svg">
<path fill-rule="evenodd" clip-rule="evenodd" d="M12.7325 2.8643C12.6349 2.76667 12.4766 2.76667 12.379 2.8643L10.7981 4.44513C9.91766 4.15627 8.97708 4.00002 8 4.00002C5.33873 4.00002 2.94819 5.15912 1.30566 7.00002C1.02527 7.31428 0.75 7.59377 0.75 8.00002C0.75 8.43753 1.02527 8.68577 1.30566 9.00003C2.09099 9.8802 3.04731 10.6045 4.12247 11.1208L2.83303 12.4102C2.7354 12.5079 2.7354 12.6662 2.83303 12.7638L3.18658 13.1174C3.28421 13.215 3.4425 13.215 3.54013 13.1174L13.0861 3.57141C13.1837 3.47378 13.1837 3.31548 13.0861 3.21785L12.7325 2.8643ZM6.25871 8.98456L8.98454 6.25873C8.69388 6.09404 8.35792 6.00002 8 6.00002C6.89543 6.00002 6 6.89546 6 8.00002C6 8.35795 6.09402 8.69391 6.25871 8.98456Z" />
<path d="M6.22061 11.8235L8.04459 9.99954C9.11374 9.97615 9.97613 9.11377 9.99951 8.04461L12.7096 5.33458C13.4495 5.79203 14.118 6.35405 14.6943 7.00002C14.9747 7.31428 15.2177 7.59377 15.2177 8.00002C15.2177 8.40628 14.9705 8.69119 14.6875 9.00768C13.0452 10.8441 10.6576 12 8 12C7.39077 12 6.79573 11.9393 6.22061 11.8235Z" />
</svg>
