<svg width="16" height="16" viewBox="0 0 16 16" fill="none" xmlns="http://www.w3.org/2000/svg">
<g clip-path="url(#clip0_12921_6221)">
<path d="M1.45455 13L0 2C0 1.73151 0.102605 1.48774 0.269584 1.3081C0.446081 1.11822 0.694502 1 0.969697 1H5.81818C5.98699 0.99951 6.15134 1.08983 6.2418 1.25139L7.2208 3H12.6061C12.8856 3 13.1375 3.12197 13.3144 3.31711C13.4765 3.49585 13.5758 3.73598 13.5758 4L15.0303 13C15.0303 13.264 14.9311 13.5042 14.769 13.6829C14.592 13.878 14.3401 14 14.0606 14H2.42424C2.14472 14 1.89282 13.878 1.71585 13.6829C1.55377 13.5042 1.45455 13.264 1.45455 13Z" fill="#585A62"/>
<path d="M15.0303 13L16 6C16 5.73151 15.8974 5.48774 15.7305 5.3081C15.554 5.11822 15.3055 5 15.0303 5H10.1819C10.0131 4.99951 9.8487 5.08983 9.75825 5.25139L8.77925 7H3.39398C3.11446 7 2.86256 7.12197 2.68559 7.31711C2.52351 7.49585 2.42429 7.73598 2.42429 8L1.45459 13C1.45459 13.264 1.55381 13.5042 1.7159 13.6829C1.89286 13.878 2.14476 14 2.42429 14H14.0607C14.3402 14 14.5921 13.878 14.769 13.6829C14.9311 13.5042 15.0303 13.264 15.0303 13Z" fill="#B7B9BE"/>
</g>
<defs>
<clipPath id="clip0_12921_6221">
<rect width="16" height="16" fill="white"/>
</clipPath>
</defs>
</svg>
