<svg width="16" height="16" viewBox="0 0 16 16"  xmlns="http://www.w3.org/2000/svg">
<path fill-rule="evenodd" clip-rule="evenodd" d="M1 3L1 13C1 13.264 1.10232 13.5042 1.26947 13.6829C1.45197 13.878 1.71174 14 2 14L14 14C14.2883 14 14.548 13.878 14.7305 13.6829C14.8977 13.5042 15 13.264 15 13L15 5C15 4.73598 14.8977 4.49585 14.7305 4.31711C14.548 4.12197 14.2883 4 14 4H8.44645L7.43686 2.25139C7.34357 2.08983 7.17408 1.99951 7 2L2 2C1.71621 2 1.46002 2.11822 1.27801 2.3081C1.10581 2.48774 1 2.73151 1 3ZM2 13L14 13L14 5H8.16016C7.98451 5.00207 7.81291 4.91171 7.71882 4.74876L6.71078 3.00283L2 3L2 8.99994C3.10696 8.99981 5.7642 8.99951 7 8.99951L7 7.2505C7 7.02777 7.26929 6.91623 7.42678 7.07372L9.91697 9.32273C9.96579 9.37155 10 9.43553 10 9.49951C10 9.56349 9.96579 9.62747 9.91697 9.67628L7.42678 11.9258C7.26929 12.0833 7 11.9717 7 11.749L7 10H2L2 13Z" />
</svg>
