<svg width="16" height="16" viewBox="0 0 16 16"  xmlns="http://www.w3.org/2000/svg">
<path fill-rule="evenodd" clip-rule="evenodd" d="M4 3.25C4 3.11193 4.11193 3 4.25 3H11.75C11.8881 3 12 3.11193 12 3.25V3.75C12 3.88807 11.8881 4 11.75 4H11V5.14286C11 5.83572 10.7148 6.65414 10.2234 7.30212C10.0272 7.56091 9.7898 7.80252 9.51449 8C9.7898 8.19748 10.0272 8.43909 10.2234 8.69788C10.7148 9.34586 11 10.1643 11 10.8571V12H11.75C11.8881 12 12 12.1119 12 12.25V12.75C12 12.8881 11.8881 13 11.75 13H4.25C4.11193 13 4 12.8881 4 12.75V12.25C4 12.1119 4.11193 12 4.25 12H5L5 10.8571C5 10.1643 5.28521 9.34586 5.77659 8.69788C5.97284 8.43909 6.2102 8.19748 6.48551 8C6.2102 7.80252 5.97284 7.56091 5.77659 7.30212C5.28521 6.65414 5 5.83572 5 5.14286V4H4.25C4.11193 4 4 3.88807 4 3.75V3.25ZM6 4V5.14286C6 5.59285 6.19812 6.203 6.5734 6.69788C6.94408 7.1867 7.43562 7.49965 7.99904 7.5H8.00096C8.56438 7.49965 9.05592 7.1867 9.4266 6.69788C9.80188 6.203 10 5.59285 10 5.14286V4H6ZM6 12H10V10.8571C10 10.4071 9.80188 9.797 9.4266 9.30212C9.05592 8.8133 8.56438 8.50035 8.00096 8.5H7.99904C7.43562 8.50035 6.94408 8.8133 6.5734 9.30212C6.19812 9.797 6 10.4071 6 10.8571V12Z" />
</svg>
