<svg width="16" height="16" viewBox="0 0 16 16"  xmlns="http://www.w3.org/2000/svg">
<path d="M8 7.00002L13 2.00002C13.0645 1.93224 13.142 1.87827 13.228 1.8414C13.3139 1.80453 13.4065 1.78552 13.5 1.78552C13.5935 1.78552 13.6861 1.80453 13.772 1.8414C13.858 1.87827 13.9355 1.93224 14 2.00002C14.0719 2.06197 14.1296 2.13872 14.1692 2.22501C14.2087 2.31129 14.2292 2.40509 14.2292 2.50002C14.2292 2.59494 14.2087 2.68874 14.1692 2.77502C14.1296 2.86131 14.0719 2.93806 14 3.00002L9 8.00002H8V7.00002Z" />
<path d="M12 11V7L13 6V11.46C13 11.5926 12.9473 11.7198 12.8535 11.8136C12.7598 11.9073 12.6326 11.96 12.5 11.96H5.71001L3.85001 13.81C3.80536 13.858 3.75115 13.8962 3.69087 13.922C3.63059 13.9479 3.56558 13.9608 3.5 13.96C3.43746 13.9742 3.37254 13.9742 3.31 13.96C3.21869 13.9225 3.14052 13.8588 3.08536 13.7769C3.03019 13.6951 3.00049 13.5987 3 13.5V3.5C3 3.36739 3.05269 3.24022 3.14645 3.14645C3.24022 3.05269 3.36739 3 3.5 3H10L9 4H4V12.29L5.14999 11.15C5.19464 11.102 5.24885 11.0638 5.30913 11.038C5.36941 11.0121 5.43442 10.9992 5.5 11H12Z" />
</svg>
