<svg width="16" height="16" viewBox="0 0 16 16"  xmlns="http://www.w3.org/2000/svg">
<path fill-rule="evenodd" clip-rule="evenodd" d="M2 2.25C2 2.11193 2.11193 2 2.25 2H2.75C2.88807 2 3 2.11193 3 2.25V4H13V2.25C13 2.11193 13.1119 2 13.25 2H13.75C13.8881 2 14 2.11193 14 2.25V4.67994C14 4.78742 13.9312 4.88266 13.8296 4.91772C13.5198 5.02462 13.2158 5.14051 12.9214 5.28825C12.4962 5.50164 12.0966 5.76772 11.9106 6.03533C11.4873 6.64445 11.492 7.29287 11.4984 8.16146C11.4998 8.35764 11.5 8.55382 11.5 8.75C11.5 8.88807 11.3881 9 11.25 9H11V10.8456C11 10.9384 10.9486 11.0236 10.8665 11.0668L5.36649 13.9632C5.20001 14.0509 5 13.9302 5 13.742V9H4.75C4.61193 9 4.49996 8.88807 4.49996 8.75C4.49997 8.55382 4.50019 8.35764 4.50162 8.16146C4.50796 7.29287 4.51269 6.64445 4.08941 6.03533C3.90344 5.76772 3.50384 5.50164 3.07863 5.28825C2.78424 5.14051 2.48017 5.02462 2.17039 4.91772C2.06878 4.88266 2 4.78742 2 4.67994V2.25ZM4.47667 5C4.64128 5.13884 4.79187 5.29382 4.91059 5.46467C5.48465 6.29075 5.51321 7.20251 5.50519 8H10.4948C10.4868 7.20251 10.5153 6.29075 11.0894 5.46467C11.2081 5.29382 11.3587 5.13884 11.5233 5H4.47667ZM10 9H6V12.191L10 10.3785V9Z" />
</svg>
