<svg width="16" height="16" viewBox="0 0 16 16"  xmlns="http://www.w3.org/2000/svg">
<path d="M14.13 10H12.71L10.71 8H11.13C11.3607 8 11.582 7.90833 11.7452 7.74518C11.9083 7.58202 12 7.36074 12 7.13V2.87C12 2.63926 11.9083 2.41798 11.7452 2.25482C11.582 2.09167 11.3607 2 11.13 2H4.87C4.63926 2 4.41798 2.09167 4.25482 2.25482C4.09167 2.41798 4 2.63926 4 2.87V7.13C4 7.36074 4.09167 7.58202 4.25482 7.74518C4.41798 7.90833 4.63926 8 4.87 8H5.28999L3.28999 10H1.87C1.75575 10 1.64262 10.0225 1.53706 10.0662C1.43151 10.1099 1.33561 10.174 1.25482 10.2548C1.17403 10.3356 1.10994 10.4315 1.06622 10.5371C1.0225 10.6426 1 10.7557 1 10.87V13.13C1 13.2443 1.0225 13.3574 1.06622 13.4629C1.10994 13.5685 1.17403 13.6644 1.25482 13.7452C1.33561 13.826 1.43151 13.8901 1.53706 13.9338C1.64262 13.9775 1.75575 14 1.87 14H6.13C6.36074 14 6.58202 13.9083 6.74518 13.7452C6.90833 13.582 7 13.3607 7 13.13V10.87C7 10.6393 6.90833 10.418 6.74518 10.2548C6.58202 10.0917 6.36074 10 6.13 10H4.71001L6.71001 8H9.28999L11.29 10H9.87C9.63926 10 9.41798 10.0917 9.25482 10.2548C9.09167 10.418 9 10.6393 9 10.87V13.13C9 13.3607 9.09167 13.582 9.25482 13.7452C9.41798 13.9083 9.63926 14 9.87 14H14.13C14.3607 14 14.582 13.9083 14.7452 13.7452C14.9083 13.582 15 13.3607 15 13.13V10.87C15 10.7557 14.9775 10.6426 14.9338 10.5371C14.8901 10.4315 14.826 10.3356 14.7452 10.2548C14.6644 10.174 14.5685 10.1099 14.4629 10.0662C14.3574 10.0225 14.2443 10 14.13 10ZM6 13H2V11H6V13ZM5 4H11V7H5V4ZM14 13H10V11H14V13Z" />
</svg>
