<svg width="16" height="16" viewBox="0 0 16 16"  xmlns="http://www.w3.org/2000/svg">
<path d="M8 1C9.93299 1 11.683 1.7835 12.9497 3.05025L13.5732 2.42678C13.7307 2.26929 14 2.38083 14 2.60355V4.75C14 4.88807 13.8881 5 13.75 5H11.6036C11.3808 5 11.2693 4.73071 11.4268 4.57322L12.2426 3.75736C11.1569 2.67157 9.65685 2 8 2C4.77011 2 2.1363 4.55211 2.00512 7.74978C1.99946 7.88773 1.88807 8 1.75 8H1.25C1.11193 8 0.999542 7.88758 1.00439 7.7496C1.13624 3.99958 4.21782 1 8 1Z" />
<path d="M2.42677 13.5732L3.05025 12.9497C4.317 14.2165 6.067 15 8 15C11.7822 15 14.8638 12.0004 14.9956 8.2504C15.0005 8.11242 14.8881 8 14.75 8H14.25C14.1119 8 14.0005 8.11227 13.9949 8.25022C13.8637 11.4479 11.2299 14 8 14C6.34314 14 4.84314 13.3284 3.75736 12.2426L4.57322 11.4268C4.73071 11.2693 4.61917 11 4.39644 11H2.25C2.11193 11 2 11.1119 2 11.25L2 13.3964C2 13.6192 2.26928 13.7307 2.42677 13.5732Z" />
<path fill-rule="evenodd" clip-rule="evenodd" d="M7.5 4.25C7.5 4.11193 7.61193 4 7.75 4L8.25 4C8.38807 4 8.5 4.11193 8.5 4.25V5.04148C8.95583 5.11795 9.3768 5.29722 9.73827 5.55463L10.2981 4.9948C10.3957 4.89717 10.554 4.89717 10.6517 4.9948L11.0052 5.34835C11.1028 5.44598 11.1028 5.60427 11.0052 5.7019L10.4454 6.26173C10.7028 6.6232 10.882 7.04417 10.9585 7.5H11.75C11.8881 7.5 12 7.61193 12 7.75V8.25C12 8.38807 11.8881 8.5 11.75 8.5H10.9585C10.882 8.95583 10.7028 9.3768 10.4454 9.73827L11.0052 10.2981C11.1028 10.3957 11.1028 10.554 11.0052 10.6517L10.6517 11.0052C10.554 11.1028 10.3957 11.1028 10.2981 11.0052L9.73827 10.4454C9.3768 10.7028 8.95583 10.882 8.5 10.9585V11.75C8.5 11.8881 8.38807 12 8.25 12H7.75C7.61193 12 7.5 11.8881 7.5 11.75V10.9585C7.04417 10.882 6.6232 10.7028 6.26173 10.4454L5.7019 11.0052C5.60427 11.1028 5.44598 11.1028 5.34835 11.0052L4.9948 10.6517C4.89717 10.554 4.89717 10.3957 4.9948 10.2981L5.55463 9.73827C5.29722 9.3768 5.11795 8.95583 5.04148 8.5H4.25C4.11193 8.5 4 8.38807 4 8.25L4 7.75C4 7.61193 4.11193 7.5 4.25 7.5H5.04148C5.11795 7.04417 5.29722 6.6232 5.55463 6.26173L4.9948 5.7019C4.89717 5.60427 4.89717 5.44598 4.9948 5.34835L5.34835 4.9948C5.44598 4.89717 5.60427 4.89717 5.7019 4.9948L6.26173 5.55463C6.6232 5.29722 7.04417 5.11795 7.5 5.04148V4.25ZM10 8C10 9.10457 9.10457 10 8 10C6.89543 10 6 9.10457 6 8C6 6.89543 6.89543 6 8 6C9.10457 6 10 6.89543 10 8Z" />
</svg>
