<svg width="16" height="16" viewBox="0 0 16 16" xmlns="http://www.w3.org/2000/svg">
<path d="M13.8951 12.6366C14.4555 11.9241 14.1425 10.969 13.4454 10.5666C12.7121 10.1432 11.8533 10.4325 11.3709 10.9785C10.9334 11.4737 10.3896 11.8692 9.77577 12.1329C8.88451 12.5159 7.89335 12.6005 6.9501 12.374C6.00685 12.1476 5.16206 11.6224 4.54173 10.8766C3.9214 10.1308 3.55876 9.20453 3.50791 8.23583C3.45705 7.26712 3.7207 6.30793 4.25954 5.50131C4.79837 4.69469 5.58352 4.08387 6.49787 3.75994C7.41223 3.43601 8.4068 3.41633 9.33325 3.70384C9.87249 3.87118 10.3718 4.13737 10.8075 4.48539L10.0732 5.21967C9.60075 5.69214 9.93538 6.5 10.6036 6.5H13.75C14.1642 6.5 14.5 6.16421 14.5 5.75V2.60355C14.5 1.93538 13.6921 1.60075 13.2197 2.07322L12.938 2.35494C12.1535 1.66881 11.23 1.14952 10.2229 0.836999C8.67826 0.357632 7.02 0.390439 5.49549 0.930529C3.97099 1.47062 2.66191 2.48905 1.76351 3.83393C0.865111 5.17881 0.425526 6.77807 0.510318 8.3932C0.595109 10.0083 1.19973 11.5528 2.23402 12.7962C3.2683 14.0396 4.67681 14.9154 6.24949 15.2929C7.82217 15.6703 9.47475 15.5293 10.9607 14.8909C12.117 14.3941 13.1241 13.6168 13.8951 12.6366Z"/>
</svg>
