<svg width="16" height="16" viewBox="0 0 16 16"  xmlns="http://www.w3.org/2000/svg">
<path d="M0.750042 8C0.61197 8 0.499617 8.11247 0.504145 8.25047C0.636261 12.2767 3.94173 15.5 8.00004 15.5C12.1422 15.5 15.5 12.1421 15.5 8C15.5 3.94168 12.2767 0.636216 8.25052 0.5041C8.11252 0.499571 8.00004 0.611925 8.00004 0.749996L8.00004 1.75C8.00004 1.88807 8.11231 1.99946 8.25026 2.00512C11.4479 2.1363 14 4.77011 14 8C14 11.3137 11.3138 14 8.00004 14C4.77015 14 2.13634 11.4479 2.00517 8.25022C1.99951 8.11226 1.88811 8 1.75004 8H0.750042Z" />
</svg>
