<svg width="16" height="16" viewBox="0 0 16 16"  xmlns="http://www.w3.org/2000/svg">
<path d="M4.75005 4.99998L7.00005 4.99998L7.00005 10.75C7.00005 10.8881 7.11198 11 7.25005 11H7.75005C7.88812 11 8.00005 10.8881 8.00005 10.75L8.00005 4.99998H10.25C10.4728 4.99998 10.5843 4.7307 10.4268 4.5732L7.67683 2.07615C7.5792 1.97852 7.42091 1.97852 7.32327 2.07615L4.57328 4.5732C4.41851 4.73191 4.52733 4.99998 4.75005 4.99998Z" />
<path d="M5.75 8.99998C5.88807 8.99998 6 9.11191 6 9.24998V9.74998C6 9.88805 5.88807 9.99998 5.75 9.99998H2L2 14L13 14V9.99998L9.25 9.99998C9.11193 9.99998 9 9.88805 9 9.74998V9.24998C9 9.11191 9.11193 8.99998 9.25 8.99998L13 8.99998C13.5523 8.99998 14 9.4477 14 9.99998V14C14 14.5523 13.5523 15 13 15L2 15C1.44772 15 1 14.5523 1 14L1 9.99998C1 9.4477 1.44772 8.99998 2 8.99998H5.75Z" />
</svg>
