<svg width="16" height="16" viewBox="0 0 16 16"  xmlns="http://www.w3.org/2000/svg">
<path d="M9.5 6C9.5 6.82843 8.82842 7.5 8 7.5C7.17157 7.5 6.5 6.82843 6.5 6C6.5 5.17157 7.17157 4.5 8 4.5C8.82842 4.5 9.5 5.17157 9.5 6Z" />
<path d="M11 10.875C11 10.875 10.9998 10.1527 10.9999 9.97898L11 9.71875C11 9.59375 10.9198 9.4694 10.8251 9.37168L9.68085 8.18567C9.5617 8.06219 9.40485 8 9.24842 8H6.75074C6.59389 8 6.43703 8.06219 6.31746 8.18567L5.17362 9.37168C5.07891 9.4694 4.99997 9.59375 4.99997 9.71875L4.99997 10.875C4.99997 10.944 5.05593 11 5.12497 11H10.875C10.944 11 11 10.944 11 10.875Z" />
<path fill-rule="evenodd" clip-rule="evenodd" d="M15.5 8C15.5 12.1421 12.1421 15.5 8 15.5C3.85786 15.5 0.5 12.1421 0.5 8C0.5 3.85786 3.85786 0.5 8 0.5C12.1421 0.5 15.5 3.85786 15.5 8ZM14 8C14 11.3137 11.3137 14 8 14C4.68629 14 2 11.3137 2 8C2 4.68629 4.68629 2 8 2C11.3137 2 14 4.68629 14 8Z" />
</svg>
