<svg width="212" height="120" viewBox="0 0 212 120" fill="none" xmlns="http://www.w3.org/2000/svg">
<path d="M173.769 39C177.838 39 181.816 40.2067 185.199 42.4674C188.582 44.7281 191.218 47.9413 192.775 51.7005C194.331 55.4598 194.738 59.5962 193.943 63.5867C193.149 67.5771 191.189 71.2424 188.311 74.1187C185.433 76.9951 181.767 78.9534 177.776 79.746C173.785 80.5385 169.649 80.1298 165.891 78.5713C162.132 77.0129 158.92 74.3748 156.661 70.9908C154.402 67.6068 153.197 63.6288 153.199 59.56C153.198 56.8588 153.729 54.1839 154.763 51.6882C155.796 49.1925 157.311 46.925 159.222 45.0154C161.132 43.1058 163.401 41.5917 165.897 40.5595C168.393 39.5273 171.068 38.9974 173.769 39V39ZM173.769 36C169.107 35.998 164.549 37.379 160.671 39.9681C156.793 42.5572 153.771 46.2383 151.986 50.5455C150.2 54.8528 149.733 59.5928 150.642 64.1658C151.551 68.7389 153.796 72.9396 157.093 76.2365C160.39 79.5334 164.591 81.7785 169.164 82.6876C173.737 83.5967 178.477 83.1291 182.784 81.3439C187.091 79.5587 190.772 76.5362 193.361 72.6586C195.951 68.781 197.331 64.2226 197.329 59.56C197.322 53.3139 194.837 47.326 190.42 42.9093C186.003 38.4927 180.016 36.0079 173.769 36V36Z" fill="#C81326"/>
<path d="M37.74 39L14 80.13H61.49L37.74 39Z" stroke="#E3E3E5" stroke-width="1.5" stroke-miterlimit="10" stroke-linecap="round"/>
<path d="M107.51 39L83.7695 80.13H131.26L107.51 39Z" stroke="#E3E3E5" stroke-width="1.5" stroke-miterlimit="10" stroke-linecap="round"/>
<path d="M173.799 80.12C185.154 80.12 194.359 70.915 194.359 59.56C194.359 48.205 185.154 39 173.799 39C162.444 39 153.239 48.205 153.239 59.56C153.239 70.915 162.444 80.12 173.799 80.12Z" stroke="#E3E3E5" stroke-width="1.5" stroke-miterlimit="10" stroke-linecap="round"/>
<path d="M13.33 0H0V13.33H13.33V0Z" fill="#C81326"/>
</svg>
