<svg width="212" height="120" viewBox="0 0 212 120" fill="none" xmlns="http://www.w3.org/2000/svg">
<g clip-path="url(#clip0_6500_53874)">
<path d="M13.3333 0H0V13.3333H13.3333V0Z" fill="#8BAE46"/>
<path d="M31.1112 0H17.7778V13.3333H31.1112V0Z" fill="#E96115"/>
<path d="M13.3333 17.77H0V31.1034H13.3333V17.77Z" fill="#FEC91B"/>
<path d="M31.1112 17.77H17.7778V31.1034H31.1112V17.77Z" fill="#E96115"/>
<path d="M32.1556 101.058H16.9556" stroke="#E3E3E5" stroke-width="1.5" stroke-miterlimit="10" stroke-linecap="round"/>
<path d="M13.2934 101.058H8.99121" stroke="#E3E3E5" stroke-width="1.5" stroke-miterlimit="10" stroke-linecap="round"/>
<path d="M202.244 101.058H197.933" stroke="#E3E3E5" stroke-width="1.5" stroke-miterlimit="10" stroke-linecap="round"/>
<path d="M5.34662 101.058H4.98218" stroke="#E3E3E5" stroke-width="1.5" stroke-miterlimit="10" stroke-linecap="round"/>
<path d="M194.342 101.058H189.133" stroke="#E3E3E5" stroke-width="1.5" stroke-miterlimit="10" stroke-linecap="round"/>
<path d="M154.556 100.24C156.227 102.071 161.942 106.462 167 106.693C166.728 106.149 166.508 105.581 166.342 104.996C168.873 105.876 171.53 106.338 174.209 106.364C180.511 106.364 190.164 102.089 189.711 98.9778C188.445 99.6404 187.022 99.9476 185.596 99.8667C183.231 99.6267 182.289 98.5156 181.409 96.6489C180.668 95.3712 179.654 94.2726 178.44 93.4311C179.048 93.6401 179.704 93.6618 180.324 93.4933C179.436 92.6044 178.289 90.88 175.836 89.9378C173.169 88.9244 168.129 90.8267 166.147 91.7689C163.214 93.0434 159.952 93.3546 156.831 92.6578C155.162 92.2497 153.712 91.2194 152.778 89.7778C152.811 87.8553 152.419 85.9493 151.631 84.1956C150.636 82.0089 149.853 82.0711 148.289 78.9956C146.84 76.1244 147.16 75.3244 145.862 73.2267C144.378 70.8267 143.453 70.88 141.596 68.4267C140.236 66.6489 140.404 64.7111 136.742 59.1378C134.609 55.8933 134.289 56.6311 133.275 54.4C131.631 50.7822 132.476 48.4444 130.156 45.7422C129.503 45.1149 128.921 44.4173 128.422 43.6622C127.634 42.2546 127.238 40.6615 127.276 39.0489V37.9822V37.8933C127.482 38.2174 127.797 38.457 128.164 38.5689C129.204 38.8533 130.289 37.8222 131.178 36.9511C133.245 34.8325 134.634 32.1466 135.169 29.2356C135.624 27.5743 135.624 25.8213 135.169 24.16C134.742 23.0485 134.184 21.992 133.507 21.0133C132.493 19.3511 131.969 18.5067 131.036 17.92C130.167 17.5654 129.276 17.2685 128.369 17.0311C126.396 16.4267 125.8 16.3111 125.098 16.4889C124.784 16.5752 124.484 16.7069 124.209 16.88C120.813 13.7067 112.004 13.9022 108.262 16.88C107.978 16.7254 107.681 16.5975 107.373 16.4978C106.671 16.3111 106.076 16.4267 104.093 17.0311C103.188 17.2765 102.298 17.5733 101.427 17.92C100.538 18.5156 99.9777 19.36 98.9644 21.0222C98.2871 21.9981 97.7291 23.0515 97.3022 24.16C96.8473 25.8213 96.8473 27.5743 97.3022 29.2356C97.8354 32.1498 99.2249 34.839 101.293 36.96C102.182 37.8489 103.267 38.8533 104.307 38.5778C104.789 38.4059 105.185 38.0516 105.409 37.5911C104.95 41.6762 103.94 45.6801 102.404 49.4933C101.018 52.9244 101.044 57.7333 101.853 63.36C102.662 68.9867 102.742 69.4667 105.489 76.2489C105.913 77.3581 106.194 78.5172 106.324 79.6978C105.681 79.7331 105.062 79.959 104.547 80.3467C103.738 80.9778 103.098 81.7067 102.707 85.8222C102.497 87.4587 102.677 89.1216 103.231 90.6754C103.786 92.2293 104.699 93.6303 105.898 94.7644C105.898 94.7644 105.551 97.6089 105.276 99.0222C105.16 99.7452 104.9 100.438 104.511 101.058H90.4222C88.8121 99.6806 86.7631 98.9239 84.6444 98.9239C82.5257 98.9239 80.4767 99.6806 78.8666 101.058H74.7333C74.7677 100.635 74.7224 100.21 74.6 99.8044C74.2444 98.5333 72.4844 97.7422 72.4844 97.7422C74.3955 95.9644 75.2755 92.0889 75.4888 88.4711C75.5282 85.1071 75.1338 81.7521 74.3155 78.4889C73.8711 76.8978 72.3866 71.5644 72.44 69.1644C72.4933 66.7644 72.8577 64.6044 72.7688 63.3067C72.6444 61.4578 71.9511 58.3378 71.4533 57.5911C71.4533 56.0622 71.2311 53.6267 70.5199 52.5778C70.1837 51.8908 69.9899 51.143 69.9502 50.3792C69.9105 49.6154 70.0257 48.8515 70.2888 48.1333C70.8755 46.6933 71.6488 44.2667 71.5066 42.8C71.3288 41.0667 71.0799 38.3556 71.0799 38.3556C71.0799 38.4978 71.6933 36 72.1644 34.0444C72.5099 32.0922 72.5099 30.0945 72.1644 28.1422C71.8088 27.0933 71.3466 26.2844 69.96 27.1111C67.7263 28.6623 65.6669 30.4504 63.8177 32.4444C62.6453 32.2315 61.452 32.1569 60.2622 32.2222C59.0724 32.1569 57.879 32.2315 56.7066 32.4444C54.8575 30.4504 52.7981 28.6623 50.5644 27.1111C49.1777 26.2844 48.7155 27.1111 48.3599 28.1422C48.0144 30.0945 48.0144 32.0922 48.3599 34.0444C48.8311 36 49.4444 38.4889 49.4444 38.3556C49.4444 38.3556 49.1866 41.0222 49.0177 42.8C48.8755 44.2667 49.6399 46.6933 50.2355 48.1333C50.4987 48.8515 50.6139 49.6154 50.5741 50.3792C50.5344 51.143 50.3406 51.8908 50.0044 52.5778C49.2933 53.6267 49.1155 56.0622 49.0622 57.5911C48.3773 59.424 47.9814 61.3522 47.8888 63.3067C47.7999 64.6044 48.1644 66.6578 48.2177 69.1644C48.2711 71.6711 46.7866 76.8978 46.3422 78.4889C45.5239 81.7521 45.1295 85.1071 45.1688 88.4711C45.2522 90.8708 45.7514 93.2378 46.6444 95.4667L46.3866 95.5822C46.3866 95.5822 41.1511 98.6222 34.0399 95.6711C27.5599 93.0044 23.3733 86.08 24.2622 78.1689C24.8755 72.8356 27.3377 70.7111 28.0844 68.9422C28.9733 66.7378 28.0844 65.8311 26.7244 66.2222C25.3644 66.6133 19.5066 72 19.4444 82.4089C19.3822 89.52 23 95.5467 26.5555 98.2933C30.3777 101.236 37.0711 102.569 40.5822 102.258" stroke="#E3E3E5" stroke-width="1.5" stroke-miterlimit="10" stroke-linecap="round"/>
<path d="M61.9423 101.022C61.8178 103.92 62.6978 105.467 64.4401 104.96C64.8555 105.219 65.3283 105.371 65.8167 105.404C66.3051 105.436 66.7939 105.348 67.24 105.147C67.6174 105.288 68.0263 105.324 68.4226 105.251C68.819 105.177 69.1877 104.997 69.4889 104.729C70.1289 104.604 70.4756 103.911 70.4756 102.569C70.7997 102.618 71.1293 102.618 71.4534 102.569C72.1756 102.679 72.9143 102.564 73.5689 102.24C73.5689 102.24 75.2578 102.24 74.6001 99.8044C74.2445 98.5333 72.4845 97.7422 72.4845 97.7422C74.3956 95.9644 75.2756 92.0889 75.4889 88.4711C75.5283 85.1071 75.1339 81.7521 74.3156 78.4889C73.8712 76.8978 72.3867 71.5644 72.4401 69.1644C72.4934 66.7644 72.8578 64.6044 72.7689 63.3067C72.6445 61.4578 71.9512 58.3378 71.4534 57.5911C71.4534 56.0622 71.2312 53.6267 70.5201 52.5778C70.1838 51.8908 69.99 51.143 69.9503 50.3792C69.9106 49.6154 70.0258 48.8515 70.2889 48.1333C70.8756 46.6933 71.6489 44.2667 71.5067 42.8C71.3289 41.0667 71.08 38.3556 71.08 38.3556C71.08 38.4978 71.6934 36 72.1645 34.0444C72.51 32.0922 72.51 30.0945 72.1645 28.1422C71.8089 27.0933 71.3467 26.2844 69.9601 27.1111C67.7264 28.6622 65.667 30.4504 63.8178 32.4444C62.6454 32.2315 61.4521 32.1569 60.2623 32.2222C59.0725 32.1569 57.8791 32.2315 56.7067 32.4444C54.8576 30.4504 52.7982 28.6622 50.5645 27.1111C49.1778 26.2844 48.7156 27.1111 48.36 28.1422C48.0145 30.0945 48.0145 32.0922 48.36 34.0444C48.8312 36 49.4445 38.4889 49.4445 38.3556C49.4445 38.3556 49.1867 41.0222 49.0178 42.8C48.8756 44.2667 49.6401 46.6933 50.2356 48.1333C50.4988 48.8515 50.614 49.6154 50.5742 50.3792C50.5345 51.143 50.3407 51.8908 50.0045 52.5778C49.2934 53.6267 49.1156 56.0622 49.0623 57.5911C48.3774 59.424 47.9815 61.3522 47.8889 63.3067C47.8001 64.6044 48.1645 66.6578 48.2178 69.1644C48.2712 71.6711 46.7867 76.8978 46.3423 78.4889C45.524 81.7521 45.1296 85.1071 45.1689 88.4711C45.3823 92.0889 46.2623 95.9556 48.1645 97.7422C48.1645 97.7422 46.3867 98.5333 46.0578 99.8044C45.4 102.204 47.0889 102.24 47.0889 102.24C47.7397 102.566 48.4763 102.681 49.1956 102.569C49.5227 102.618 49.8552 102.618 50.1823 102.569C50.1823 103.911 50.5289 104.604 51.1689 104.729C51.4702 104.997 51.8389 105.177 52.2352 105.251C52.6316 105.324 53.0405 105.288 53.4178 105.147C53.8639 105.348 54.3528 105.436 54.8412 105.404C55.3296 105.371 55.8024 105.219 56.2178 104.96C57.9956 105.502 58.8845 103.92 58.7067 101.022" stroke="#E3E3E5" stroke-width="0.75" stroke-linecap="round" stroke-linejoin="round"/>
<path d="M63.4977 83.4756C62.5438 89.2785 62.0091 95.1425 61.8977 101.022" stroke="#E3E3E5" stroke-width="0.75" stroke-linecap="round" stroke-linejoin="round"/>
<path d="M60.929 77.7511C61.0179 80.5125 61.4144 83.2553 62.1112 85.9289C62.3156 87.0489 62.369 89.8311 62.5467 90.9778" stroke="#E3E3E5" stroke-width="0.75" stroke-miterlimit="10" stroke-linecap="round"/>
<path d="M72.6623 71.4578C73.9423 77.1378 70.3511 86.3111 69.5689 91.9644C69.0711 95.6355 68.4578 98.56 69.0267 100.276C69.1689 100.702 70.52 101.022 70.4756 102.569" stroke="#E3E3E5" stroke-width="0.75" stroke-miterlimit="10" stroke-linecap="round"/>
<path d="M68.8223 97.8578C70.012 97.5 71.2746 97.4602 72.4845 97.7422" stroke="#E3E3E5" stroke-width="0.75" stroke-miterlimit="10" stroke-linecap="round"/>
<path d="M71 59.6177C71.2376 58.964 71.3928 58.2832 71.4622 57.5911" stroke="#E3E3E5" stroke-width="0.75" stroke-miterlimit="10" stroke-linecap="round"/>
<path d="M68.9912 48.8178C69.8482 48.3006 70.5082 47.5123 70.8668 46.5778" stroke="#E3E3E5" stroke-width="0.75" stroke-miterlimit="10" stroke-linecap="round"/>
<path d="M61.9956 102.684C62.2889 100.64 63.4356 100.08 64.5378 100.907C64.8701 100.524 65.3308 100.275 65.8333 100.208C66.3359 100.141 66.8456 100.26 67.2667 100.542C67.6079 100.343 68.0015 100.253 68.3952 100.283C68.789 100.314 69.1642 100.463 69.4711 100.711" stroke="#E3E3E5" stroke-width="0.79" stroke-miterlimit="10" stroke-linecap="round"/>
<path d="M57.1155 83.4756C58.065 89.279 58.5997 95.1428 58.7155 101.022" stroke="#E3E3E5" stroke-width="0.75" stroke-linecap="round" stroke-linejoin="round"/>
<path d="M59.4977 77.7511C59.4364 80.5037 59.0999 83.2433 58.4933 85.9289C58.3155 87.0489 58.2711 89.8311 58.1111 90.9778" stroke="#E3E3E5" stroke-width="0.75" stroke-miterlimit="10" stroke-linecap="round"/>
<path d="M47.9511 71.4578C46.6711 77.1378 50.2622 86.3111 51.0444 91.9644C51.5422 95.6355 52.1556 98.56 51.5867 100.276C51.4444 100.702 50.0933 101.022 50.1378 102.569" stroke="#E3E3E5" stroke-width="0.75" stroke-miterlimit="10" stroke-linecap="round"/>
<path d="M51.7912 97.8578C50.5988 97.4985 49.3328 97.4586 48.1201 97.7423" stroke="#E3E3E5" stroke-width="0.75" stroke-miterlimit="10" stroke-linecap="round"/>
<path d="M48.9823 101.04C48.7423 101.769 48.8223 102.258 49.1512 102.569" stroke="#E3E3E5" stroke-width="0.61" stroke-miterlimit="10" stroke-linecap="round"/>
<path d="M46.9288 100.827C46.6888 101.564 46.7688 102.053 47.0977 102.364" stroke="#E3E3E5" stroke-width="0.61" stroke-miterlimit="10" stroke-linecap="round"/>
<path d="M49.6667 59.6177C49.4244 58.9648 49.2661 58.2838 49.1956 57.5911" stroke="#E3E3E5" stroke-width="0.75" stroke-miterlimit="10" stroke-linecap="round"/>
<path d="M51.6221 48.8178C50.7651 48.3006 50.1051 47.5123 49.7466 46.5778" stroke="#E3E3E5" stroke-width="0.75" stroke-miterlimit="10" stroke-linecap="round"/>
<path d="M55.551 103.671C55.5574 103.924 55.616 104.173 55.7231 104.403C55.8301 104.632 55.9834 104.837 56.1733 105.004" stroke="#E3E3E5" stroke-width="0.66" stroke-miterlimit="10" stroke-linecap="round"/>
<path d="M52.7956 103.671C52.7712 103.945 52.8107 104.221 52.911 104.477C53.0112 104.733 53.1695 104.962 53.3733 105.147" stroke="#E3E3E5" stroke-width="0.66" stroke-miterlimit="10" stroke-linecap="round"/>
<path d="M71.5956 101.04C71.8445 101.769 71.7645 102.258 71.4268 102.569" stroke="#E3E3E5" stroke-width="0.61" stroke-miterlimit="10" stroke-linecap="round"/>
<path d="M65.0356 103.671C65.0292 103.924 64.9706 104.173 64.8635 104.403C64.7565 104.632 64.6032 104.837 64.4133 105.004" stroke="#E3E3E5" stroke-width="0.66" stroke-miterlimit="10" stroke-linecap="round"/>
<path d="M67.7912 103.671C67.8155 103.945 67.776 104.221 67.6758 104.477C67.5755 104.733 67.4172 104.962 67.2134 105.147" stroke="#E3E3E5" stroke-width="0.66" stroke-miterlimit="10" stroke-linecap="round"/>
<path d="M58.6177 102.684C58.3332 100.64 57.1866 100.08 56.1021 100.907C55.7749 100.537 55.3258 100.296 54.8364 100.229C54.347 100.163 53.8499 100.274 53.4354 100.542C53.0973 100.344 52.7065 100.254 52.3156 100.284C51.9247 100.314 51.5524 100.463 51.2488 100.711" stroke="#E3E3E5" stroke-width="0.78" stroke-miterlimit="10" stroke-linecap="round"/>
<path d="M62.6266 42.2222C62.9145 42.7254 63.3663 43.1147 63.9066 43.325C64.447 43.5353 65.0431 43.5539 65.5954 43.3777C66.591 42.9955 67.3199 41.7777 66.9732 40.9688C66.6266 40.1599 65.3288 39.9466 64.4932 40.1777C64.0571 40.3401 63.6626 40.5973 63.3382 40.931C63.0138 41.2646 62.7677 41.6661 62.6177 42.1066L62.6266 42.2222Z" stroke="#E3E3E5" stroke-miterlimit="10"/>
<path d="M61.7822 46.7556C61.3225 46.5317 60.8179 46.4153 60.3066 46.4153C59.7953 46.4153 59.2907 46.5317 58.8311 46.7556L59.8444 48.0001H60.7333L61.7822 46.7556Z" fill="#E3E3E5" stroke="#E3E3E5" stroke-width="0.5" stroke-linejoin="round"/>
<path d="M108.156 26.9955C108.591 26.2739 109.256 25.7195 110.044 25.4213C110.833 25.1231 111.698 25.0984 112.502 25.351C113.118 25.6105 113.646 26.042 114.022 26.5938C114.399 27.1456 114.609 27.7942 114.627 28.4622C114.627 30.2399 109.756 35.6355 109.373 36.7466C109.16 37.3422 107.96 40.7999 109.569 43.1999C109.73 43.4869 109.947 43.739 110.206 43.9419C110.466 44.1448 110.763 44.2944 111.08 44.3822C111.569 44.471 112.031 44.3199 113.516 43.3955C115.711 42.0355 115.729 41.7333 116.28 41.751C117.124 41.751 117.169 42.4621 119.311 43.7244C120.52 44.4444 120.929 44.4799 121.222 44.4444C121.64 44.3489 122.033 44.1646 122.374 43.9038C122.714 43.6431 122.994 43.3121 123.196 42.9333C124.973 40.1688 123.062 36.0444 122.733 35.3599C122.076 33.9733 117.96 30.0266 117.96 28.5155C117.994 27.6997 118.307 26.9204 118.848 26.3085C119.389 25.6967 120.123 25.2895 120.929 25.1555C121.636 25.0783 122.349 25.2203 122.972 25.5622C123.595 25.904 124.099 26.4292 124.413 27.0666" stroke="#E3E3E5" stroke-width="0.75" stroke-linecap="round" stroke-linejoin="round"/>
<path d="M113.96 35.9645C113.752 36.1925 113.592 36.4608 113.491 36.7528C113.39 37.0447 113.35 37.3542 113.373 37.6622C113.422 38.1 113.575 38.5199 113.817 38.8876C114.06 39.2552 114.386 39.5603 114.769 39.7778C115.22 40.0581 115.736 40.2147 116.267 40.2318C116.797 40.249 117.323 40.1261 117.791 39.8756C118.206 39.6411 118.557 39.3088 118.814 38.9076C119.072 38.5063 119.227 38.0483 119.267 37.5734C119.268 37.2555 119.204 36.9408 119.078 36.6488C118.953 36.3567 118.769 36.0936 118.538 35.8756C117.987 35.3956 117.355 35.3956 116.324 35.4045C115.293 35.4134 114.555 35.4134 113.96 35.9645Z" fill="#E3E3E5"/>
<path d="M123.445 28.711C123.336 29.0645 123.125 29.378 122.839 29.612C122.553 29.8461 122.204 29.9903 121.836 30.0266C121.677 30.0668 121.511 30.0726 121.35 30.0433C121.188 30.0141 121.035 29.9506 120.901 29.8572C120.766 29.7638 120.653 29.6425 120.569 29.5017C120.485 29.3608 120.432 29.2036 120.414 29.0407C120.396 28.8777 120.414 28.7128 120.465 28.5571C120.516 28.4013 120.6 28.2584 120.711 28.1379C120.822 28.0173 120.958 27.922 121.109 27.8584C121.26 27.7947 121.423 27.7642 121.587 27.7688C121.955 27.7223 122.329 27.7871 122.66 27.9551C122.991 28.123 123.264 28.3863 123.445 28.711V28.711Z" stroke="#E3E3E5" stroke-miterlimit="10"/>
<path d="M109.373 28.7112C109.484 29.0666 109.698 29.3813 109.987 29.6154C110.277 29.8496 110.629 29.9927 111 30.0267C111.159 30.0669 111.325 30.0724 111.487 30.0429C111.648 30.0133 111.802 29.9494 111.936 29.8555C112.071 29.7616 112.184 29.6398 112.268 29.4984C112.351 29.3571 112.403 29.1994 112.421 29.0361C112.438 28.8728 112.42 28.7077 112.368 28.5519C112.316 28.3961 112.231 28.2533 112.119 28.1332C112.007 28.013 111.871 27.9183 111.719 27.8555C111.568 27.7927 111.404 27.7631 111.24 27.769C110.87 27.7217 110.495 27.7862 110.162 27.9542C109.83 28.1221 109.555 28.3857 109.373 28.7112Z" stroke="#E3E3E5" stroke-miterlimit="10"/>
<path d="M111.791 44.3112C113.083 45.2369 114.648 45.7032 116.235 45.6356C117.8 45.7443 119.355 45.3249 120.653 44.4445" stroke="#E3E3E5" stroke-width="0.75" stroke-linecap="round" stroke-linejoin="round"/>
<path d="M114.031 90.4444C113.631 92.5333 113.204 94.3111 112.822 95.7778C112.395 97.3866 111.987 98.6133 111.169 101.111C110.609 102.8 110.635 103.147 110.28 103.538C108.982 104.621 107.54 105.519 105.995 106.204C104.573 106.719 103.04 106.85 101.551 106.587C99.7733 107.093 98.7599 106.8 98.4844 105.698C97.3466 105.164 98.1466 103.396 98.431 103.12C99.4048 102.381 100.618 102.03 101.835 102.133C103.667 102.213 103.444 102.062 104.173 101.476C104.783 100.81 105.171 99.9712 105.284 99.0755C106.724 91.6266 107.498 81.2355 105.515 76.3022C102.787 69.52 102.698 69.1378 101.88 63.4133C101.062 57.6889 101.044 52.9778 102.431 49.5466C103.951 45.8185 104.941 41.896 105.373 37.8933" stroke="#E3E3E5" stroke-width="0.75" stroke-linecap="round" stroke-linejoin="round"/>
<path d="M142.111 78.8C141.216 78.7379 140.316 78.8158 139.444 79.0311C134.92 80.1511 133.347 83.92 132.396 85.8577C131.06 88.8189 130.283 92.0011 130.102 95.2444C129.942 97.7511 130.653 99.4133 132.947 101.244C133.703 101.883 134.413 102.576 135.071 103.316C134.656 103.736 134.351 104.252 134.182 104.818C134.013 105.564 134.582 106.898 135.613 106.782C136.156 107.227 136.938 107.787 138.662 107.04C139.077 107.2 139.526 107.252 139.966 107.19C140.407 107.127 140.824 106.954 141.178 106.684C141.454 106.756 141.746 106.744 142.015 106.649C142.284 106.554 142.519 106.381 142.689 106.151C142.872 105.952 143.006 105.714 143.083 105.456C143.16 105.197 143.178 104.924 143.133 104.658C144.618 104.226 145.965 103.417 147.044 102.311C149.553 99.5181 151.417 96.2072 152.502 92.6133C153.15 89.7908 152.866 86.8344 151.693 84.1866C150.698 82 149.916 82.0622 148.351 78.9866C146.902 76.1155 147.222 75.3155 145.924 73.2177C144.44 70.8177 143.516 70.8711 141.658 68.4177C140.298 66.64 140.467 64.7022 136.804 59.1288C134.671 55.8844 134.351 56.6222 133.338 54.3911C131.693 50.7733 132.538 48.4355 130.218 45.7333C129.565 45.106 128.984 44.4084 128.484 43.6533C127.697 42.2457 127.301 40.6526 127.338 39.04V37.9822" stroke="#E3E3E5" stroke-width="0.75" stroke-linecap="round" stroke-linejoin="round"/>
<path d="M119.142 78.2222C118.253 82.445 117.954 86.7706 118.253 91.0755C118.253 91.6889 118.387 95.2533 118.458 98.6044C118.462 99.3951 118.202 100.165 117.72 100.791C116.911 101.564 117.151 103.191 117.098 103.876C116.339 103.946 115.606 104.19 114.956 104.587C113.933 105.147 113.24 105.476 113.178 106.533C113.163 106.908 113.297 107.273 113.55 107.549C113.803 107.825 114.155 107.99 114.529 108.009C114.588 108.174 114.68 108.326 114.799 108.455C114.918 108.584 115.063 108.687 115.223 108.758C115.383 108.83 115.557 108.868 115.732 108.871C115.908 108.873 116.082 108.84 116.244 108.773C116.674 109.068 117.191 109.207 117.71 109.167C118.23 109.126 118.719 108.909 119.098 108.551C119.836 108.775 120.63 108.718 121.329 108.391C122.523 107.773 123.602 106.955 124.52 105.973C125.098 105.298 124.804 104.409 124.867 104.089C125.676 99.9911 127.204 94.7111 128.102 91.6444C129.071 88.32 130.769 83.8044 131.187 82.56C132.129 79.9911 132.591 78.9067 132.493 77.1733C132.378 75.1733 131.604 74.2311 131.72 71.7867C131.804 70.6626 132.01 69.5509 132.333 68.4711C132.813 66.5867 133.427 64.1955 134.182 61.36" stroke="#E3E3E5" stroke-width="0.75" stroke-linecap="round" stroke-linejoin="round"/>
<path d="M139.853 102.987C138.778 101.609 137.107 101.893 135.018 103.316" stroke="#E3E3E5" stroke-width="0.75" stroke-linecap="round" stroke-linejoin="round"/>
<path d="M135.516 105.36C135.44 105.831 135.44 106.311 135.516 106.782" stroke="#E3E3E5" stroke-width="0.75" stroke-linecap="round" stroke-linejoin="round"/>
<path d="M138.698 105.724C138.594 106.155 138.558 106.599 138.591 107.04" stroke="#E3E3E5" stroke-width="0.75" stroke-linecap="round" stroke-linejoin="round"/>
<path d="M119.738 103.947C118.874 103.818 117.997 103.818 117.133 103.947" stroke="#E3E3E5" stroke-width="0.75" stroke-linecap="round" stroke-linejoin="round"/>
<path d="M119.187 107.316C119.078 107.731 119.062 108.165 119.142 108.587" stroke="#E3E3E5" stroke-width="0.75" stroke-linecap="round" stroke-linejoin="round"/>
<path d="M116.333 107.342C116.255 107.827 116.24 108.32 116.289 108.809" stroke="#E3E3E5" stroke-width="0.75" stroke-linecap="round" stroke-linejoin="round"/>
<path d="M114.671 106.791C114.57 107.201 114.537 107.624 114.573 108.044" stroke="#E3E3E5" stroke-width="0.75" stroke-linecap="round" stroke-linejoin="round"/>
<path d="M101.347 105.316C101.282 105.735 101.371 106.164 101.595 106.524" stroke="#E3E3E5" stroke-width="0.75" stroke-linecap="round" stroke-linejoin="round"/>
<path d="M98.6801 104.533C98.5328 104.884 98.4807 105.267 98.529 105.644" stroke="#E3E3E5" stroke-width="0.75" stroke-linecap="round" stroke-linejoin="round"/>
<path d="M105.302 103.058C104.696 102.466 103.891 102.12 103.044 102.089" stroke="#E3E3E5" stroke-width="0.75" stroke-linecap="round" stroke-linejoin="round"/>
<path d="M84.6443 116.489C89.4014 116.489 93.2577 112.633 93.2577 107.876C93.2577 103.119 89.4014 99.2622 84.6443 99.2622C79.8873 99.2622 76.031 103.119 76.031 107.876C76.031 112.633 79.8873 116.489 84.6443 116.489Z" stroke="#E3E3E5" stroke-width="0.75" stroke-linecap="round" stroke-linejoin="round"/>
<path d="M123.96 19.9378C124.234 20.9448 124.61 21.9216 125.08 22.8533C125.818 24.32 126.289 24.6311 126.671 25.68C126.956 26.4711 126.92 26.9511 126.751 29.7689C126.556 33.0311 126.458 34.6933 126.796 35.9111C127.044 36.8 127.453 38.32 128.467 38.5778C129.48 38.8356 130.493 37.8222 131.347 36.96C133.34 34.8097 134.665 32.1258 135.16 29.2356C135.592 27.5713 135.592 25.8242 135.16 24.16C134.755 23.0569 134.224 22.0041 133.578 21.0222C132.609 19.36 132.102 18.5156 131.213 17.92C130.375 17.5669 129.514 17.2699 128.636 17.0311C126.751 16.4267 126.182 16.3111 125.507 16.4978C124.963 16.6593 124.474 16.9668 124.093 17.3867" stroke="#E3E3E5" stroke-width="0.73" stroke-linecap="round" stroke-linejoin="round"/>
<path d="M108.716 19.9378C108.437 20.9448 108.059 21.9215 107.587 22.8533C106.84 24.32 106.36 24.6311 105.987 25.68C105.693 26.4711 105.729 26.9511 105.898 29.7689C106.102 33.0311 106.191 34.6933 105.853 35.9111C105.604 36.8 105.196 38.32 104.164 38.5778C103.133 38.8356 102.129 37.8222 101.267 36.96C99.2562 34.8168 97.9181 32.1312 97.4178 29.2356C96.9809 27.5719 96.9809 25.8236 97.4178 24.16C97.8275 23.0555 98.3644 22.0025 99.0178 21.0222C99.9955 19.36 100.502 18.5156 101.4 17.92C102.245 17.5669 103.112 17.2699 103.996 17.0311C105.907 16.4267 106.476 16.3111 107.151 16.4978C107.699 16.6597 108.194 16.9668 108.582 17.3867" stroke="#E3E3E5" stroke-width="0.74" stroke-linecap="round" stroke-linejoin="round"/>
<path d="M108.333 16.8889C112.075 13.9111 120.884 13.7156 124.28 16.8889" stroke="#E3E3E5" stroke-width="0.75" stroke-linecap="round" stroke-linejoin="round"/>
<path d="M66.7068 33.2711C66.7068 33.2711 66.2179 33.9733 66.4579 34.4356C66.6979 34.8978 67.809 35.2356 68.5646 35.8311C69.3201 36.4267 70.0135 37.4578 70.3423 37.7067C70.3853 37.7502 70.4365 37.7848 70.493 37.8084C70.5495 37.832 70.61 37.8441 70.6712 37.8441C70.7324 37.8441 70.793 37.832 70.8495 37.8084C70.9059 37.7848 70.9571 37.7502 71.0001 37.7067" stroke="#E3E3E5" stroke-width="0.77" stroke-miterlimit="10" stroke-linecap="round"/>
<path d="M53.8711 33.2711C53.8711 33.2711 54.3955 33.9733 54.1555 34.4356C53.9155 34.8978 52.8044 35.2356 52.0488 35.8311C51.2933 36.4267 50.5999 37.4578 50.2711 37.7067C50.2281 37.7502 50.1769 37.7848 50.1204 37.8084C50.0639 37.832 50.0034 37.8441 49.9422 37.8441C49.881 37.8441 49.8204 37.832 49.7639 37.8084C49.7075 37.7848 49.6563 37.7502 49.6133 37.7067" stroke="#E3E3E5" stroke-width="0.77" stroke-miterlimit="10" stroke-linecap="round"/>
<path d="M57.9777 42.2222C57.6907 42.7286 57.2375 43.1202 56.6948 43.3308C56.1522 43.5414 55.5534 43.5579 54.9999 43.3777C54.0133 42.9955 53.2844 41.7777 53.631 40.9688C53.9777 40.1599 55.2755 39.9466 56.111 40.1777C56.5471 40.3401 56.9417 40.5973 57.266 40.931C57.5904 41.2646 57.8366 41.6661 57.9866 42.1066L57.9777 42.2222Z" stroke="#E3E3E5" stroke-miterlimit="10"/>
<path d="M60.271 49.0667V48.0089" stroke="#E3E3E5" stroke-width="0.75" stroke-linecap="round" stroke-linejoin="round"/>
<path d="M60.2712 49.3245C60.0878 49.7455 59.781 50.101 59.3912 50.3437C59.0013 50.5865 58.547 50.7051 58.0882 50.6839C57.6295 50.6627 57.188 50.5027 56.8223 50.225C56.4565 49.9473 56.1837 49.5651 56.04 49.1289" stroke="#E3E3E5" stroke-width="0.75" stroke-miterlimit="10" stroke-linecap="round"/>
<path d="M60.271 49.3245C60.4543 49.7455 60.7612 50.101 61.151 50.3437C61.5408 50.5865 61.9952 50.7051 62.4539 50.6839C62.9126 50.6627 63.3541 50.5027 63.7199 50.225C64.0856 49.9473 64.3584 49.5651 64.5021 49.1289" stroke="#E3E3E5" stroke-width="0.75" stroke-miterlimit="10" stroke-linecap="round"/>
</g>
<defs>
<clipPath id="clip0_6500_53874">
<rect width="212" height="120" fill="white"/>
</clipPath>
</defs>
</svg>
