<svg width="212" height="120" viewBox="0 0 212 120" fill="none" xmlns="http://www.w3.org/2000/svg">
<g clip-path="url(#clip0_6500_53796)">
<path d="M13.3333 0H0V13.3333H13.3333V0Z" fill="#8BAE46"/>
<path d="M78.3777 101.058H63.1777" stroke="#E3E3E5" stroke-width="1.5" stroke-miterlimit="10" stroke-linecap="round"/>
<path d="M59.5156 101.058H55.2134" stroke="#E3E3E5" stroke-width="1.5" stroke-miterlimit="10" stroke-linecap="round"/>
<path d="M156.911 101.058H156.156" stroke="#E3E3E5" stroke-width="1.5" stroke-miterlimit="10" stroke-linecap="round"/>
<path d="M51.5689 101.058H51.2045" stroke="#E3E3E5" stroke-width="1.5" stroke-miterlimit="10" stroke-linecap="round"/>
<path d="M152.564 101.058H147.356" stroke="#E3E3E5" stroke-width="1.5" stroke-miterlimit="10" stroke-linecap="round"/>
<path d="M143.889 101.058H120.956C120.99 100.635 120.945 100.21 120.822 99.8044C120.467 98.5333 118.707 97.7422 118.707 97.7422C120.618 95.9644 121.498 92.0889 121.711 88.4711C121.75 85.1071 121.356 81.7521 120.538 78.4889C120.093 76.8978 118.609 71.5644 118.662 69.1644C118.716 66.7644 119.08 64.6044 118.991 63.3067C118.867 61.4578 118.173 58.3378 117.676 57.5911C117.676 56.0622 117.453 53.6267 116.787 52.5778C116.45 51.8908 116.257 51.143 116.217 50.3792C116.177 49.6154 116.292 48.8514 116.556 48.1333C117.142 46.6933 117.916 44.2667 117.773 42.8C117.596 41.0667 117.347 38.3556 117.347 38.3556C117.347 38.4978 117.96 36 118.431 34.0444C118.777 32.0922 118.777 30.0945 118.431 28.1422C118.076 27.0933 117.613 26.2844 116.227 27.1111C113.993 28.6622 111.934 30.4504 110.084 32.4444C108.912 32.2315 107.719 32.1569 106.529 32.2222C105.339 32.1569 104.146 32.2315 102.973 32.4444C101.124 30.4504 99.0648 28.6622 96.8311 27.1111C95.4445 26.2844 94.9822 27.1111 94.6267 28.1422C94.2812 30.0945 94.2812 32.0922 94.6267 34.0444C95.0978 36 95.7111 38.4889 95.7111 38.3556C95.7111 38.3556 95.4534 41.0222 95.2845 42.8C95.1422 44.2667 95.9067 46.6933 96.5022 48.1333C96.7654 48.8514 96.8806 49.6154 96.8409 50.3792C96.8012 51.143 96.6074 51.8908 96.2711 52.5778C95.56 53.6267 95.3822 56.0622 95.3289 57.5911C94.6288 59.4215 94.218 61.3498 94.1111 63.3067C94.0222 64.6044 94.3867 66.6578 94.44 69.1644C94.4934 71.6711 93.0089 76.8978 92.5645 78.4889C91.7461 81.7521 91.3518 85.1071 91.3911 88.4711C91.4745 90.8708 91.9737 93.2378 92.8667 95.4667L92.6089 95.5822C92.6089 95.5822 87.3734 98.6222 80.2622 95.6711C73.7822 93.0044 69.5956 86.08 70.4845 78.1689C71.0978 72.8356 73.56 70.7111 74.3067 68.9422C75.1956 66.7378 74.3067 65.8311 72.9467 66.2222C71.5867 66.6133 65.7289 72 65.6667 82.4089C65.6045 89.52 69.2222 95.5467 72.7778 98.2933C76.6 101.236 83.2934 102.569 86.8045 102.258" stroke="#E3E3E5" stroke-width="1.5" stroke-miterlimit="10" stroke-linecap="round"/>
<path d="M108.164 101.022C108.04 103.92 108.92 105.467 110.662 104.96C111.078 105.219 111.55 105.371 112.039 105.404C112.527 105.436 113.016 105.348 113.462 105.147C113.84 105.288 114.248 105.324 114.645 105.251C115.041 105.177 115.41 104.997 115.711 104.729C116.351 104.604 116.698 103.911 116.698 102.569C117.022 102.618 117.351 102.618 117.676 102.569C118.398 102.679 119.136 102.564 119.791 102.24C119.791 102.24 121.48 102.24 120.822 99.8044C120.467 98.5333 118.707 97.7422 118.707 97.7422C120.618 95.9644 121.498 92.0889 121.711 88.4711C121.75 85.1071 121.356 81.7521 120.538 78.4889C120.093 76.8978 118.609 71.5644 118.662 69.1644C118.716 66.7644 119.08 64.6044 118.991 63.3067C118.867 61.4578 118.173 58.3378 117.676 57.5911C117.676 56.0622 117.453 53.6267 116.787 52.5778C116.45 51.8908 116.257 51.143 116.217 50.3792C116.177 49.6154 116.292 48.8515 116.556 48.1333C117.142 46.6933 117.916 44.2667 117.773 42.8C117.596 41.0667 117.347 38.3556 117.347 38.3556C117.347 38.4978 117.96 36 118.431 34.0444C118.777 32.0922 118.777 30.0945 118.431 28.1422C118.076 27.0933 117.613 26.2844 116.227 27.1111C113.993 28.6622 111.934 30.4504 110.084 32.4444C108.912 32.2315 107.719 32.1569 106.529 32.2222C105.339 32.1569 104.146 32.2315 102.973 32.4444C101.124 30.4504 99.0648 28.6622 96.8311 27.1111C95.4444 26.2844 94.9822 27.1111 94.6267 28.1422C94.2811 30.0945 94.2811 32.0922 94.6267 34.0444C95.0978 36 95.7111 38.4889 95.7111 38.3556C95.7111 38.3556 95.4533 41.0222 95.2844 42.8C95.1422 44.2667 95.9067 46.6933 96.5022 48.1333C96.7654 48.8515 96.8806 49.6154 96.8408 50.3792C96.8011 51.143 96.6073 51.8908 96.2711 52.5778C95.56 53.6267 95.3822 56.0622 95.3289 57.5911C94.6288 59.4215 94.2179 61.3498 94.1111 63.3067C94.0222 64.6044 94.3867 66.6578 94.44 69.1644C94.4933 71.6711 93.0089 76.8978 92.5644 78.4889C91.7461 81.7521 91.3518 85.1071 91.3911 88.4711C91.6044 92.0889 92.4844 95.9556 94.3867 97.7422C94.3867 97.7422 92.6089 98.5333 92.28 99.8044C91.6222 102.204 93.3111 102.24 93.3111 102.24C93.9619 102.566 94.6984 102.681 95.4178 102.569C95.7448 102.618 96.0774 102.618 96.4044 102.569C96.4044 103.911 96.7511 104.604 97.3911 104.729C97.6924 104.997 98.0611 105.177 98.4574 105.251C98.8537 105.324 99.2626 105.288 99.64 105.147C100.086 105.348 100.575 105.436 101.063 105.404C101.552 105.371 102.025 105.219 102.44 104.96C104.218 105.502 105.107 103.92 104.929 101.022" stroke="#E3E3E5" stroke-width="0.75" stroke-linecap="round" stroke-linejoin="round"/>
<path d="M109.72 83.4756C108.766 89.2785 108.231 95.1425 108.12 101.022" stroke="#E3E3E5" stroke-width="0.75" stroke-linecap="round" stroke-linejoin="round"/>
<path d="M107.151 77.7511C107.226 80.5108 107.607 83.2536 108.289 85.9289C108.493 87.0489 108.547 89.8311 108.724 90.9778" stroke="#E3E3E5" stroke-width="0.75" stroke-miterlimit="10" stroke-linecap="round"/>
<path d="M118.884 71.4578C120.164 77.1378 116.573 86.3111 115.791 91.9644C115.293 95.6355 114.68 98.56 115.249 100.276C115.391 100.702 116.742 101.022 116.698 102.569" stroke="#E3E3E5" stroke-width="0.75" stroke-miterlimit="10" stroke-linecap="round"/>
<path d="M115.044 97.8578C116.234 97.5 117.497 97.4602 118.707 97.7422" stroke="#E3E3E5" stroke-width="0.75" stroke-miterlimit="10" stroke-linecap="round"/>
<path d="M117.222 59.6177C117.46 58.964 117.615 58.2832 117.684 57.5911" stroke="#E3E3E5" stroke-width="0.75" stroke-miterlimit="10" stroke-linecap="round"/>
<path d="M115.213 48.8178C116.07 48.3006 116.73 47.5123 117.089 46.5778" stroke="#E3E3E5" stroke-width="0.75" stroke-miterlimit="10" stroke-linecap="round"/>
<path d="M108.218 102.684C108.511 100.64 109.658 100.08 110.76 100.907C111.092 100.524 111.553 100.275 112.056 100.208C112.558 100.141 113.068 100.26 113.489 100.542C113.83 100.343 114.224 100.253 114.617 100.283C115.011 100.314 115.386 100.463 115.693 100.711" stroke="#E3E3E5" stroke-width="0.79" stroke-miterlimit="10" stroke-linecap="round"/>
<path d="M103.338 83.4756C104.287 89.279 104.822 95.1428 104.938 101.022" stroke="#E3E3E5" stroke-width="0.75" stroke-linecap="round" stroke-linejoin="round"/>
<path d="M105.72 77.7511C105.659 80.5037 105.322 83.2433 104.716 85.9289C104.538 87.0489 104.493 89.8311 104.333 90.9778" stroke="#E3E3E5" stroke-width="0.75" stroke-miterlimit="10" stroke-linecap="round"/>
<path d="M94.1733 71.4578C92.8933 77.1378 96.4844 86.3111 97.2666 91.9644C97.7644 95.6355 98.3777 98.56 97.8088 100.276C97.6666 100.702 96.3155 101.022 96.3599 102.569" stroke="#E3E3E5" stroke-width="0.75" stroke-miterlimit="10" stroke-linecap="round"/>
<path d="M98.0133 97.8578C96.8208 97.4985 95.5549 97.4586 94.3422 97.7423" stroke="#E3E3E5" stroke-width="0.75" stroke-miterlimit="10" stroke-linecap="round"/>
<path d="M95.2044 101.04C94.9644 101.769 95.0444 102.258 95.3733 102.569" stroke="#E3E3E5" stroke-width="0.61" stroke-miterlimit="10" stroke-linecap="round"/>
<path d="M93.1511 100.827C92.9111 101.564 92.9911 102.053 93.32 102.364" stroke="#E3E3E5" stroke-width="0.61" stroke-miterlimit="10" stroke-linecap="round"/>
<path d="M95.8888 59.6177C95.6466 58.9648 95.4883 58.2838 95.4177 57.5911" stroke="#E3E3E5" stroke-width="0.75" stroke-miterlimit="10" stroke-linecap="round"/>
<path d="M97.8444 48.8178C96.9874 48.3006 96.3274 47.5123 95.9689 46.5778" stroke="#E3E3E5" stroke-width="0.75" stroke-miterlimit="10" stroke-linecap="round"/>
<path d="M101.773 103.671C101.78 103.924 101.838 104.173 101.945 104.403C102.052 104.632 102.206 104.837 102.396 105.004" stroke="#E3E3E5" stroke-width="0.66" stroke-miterlimit="10" stroke-linecap="round"/>
<path d="M99.0177 103.671C98.9934 103.945 99.0329 104.221 99.1331 104.477C99.2334 104.733 99.3917 104.962 99.5955 105.147" stroke="#E3E3E5" stroke-width="0.66" stroke-miterlimit="10" stroke-linecap="round"/>
<path d="M117.818 101.04C118.067 101.769 117.987 102.258 117.649 102.569" stroke="#E3E3E5" stroke-width="0.61" stroke-miterlimit="10" stroke-linecap="round"/>
<path d="M111.258 103.671C111.251 103.924 111.193 104.173 111.086 104.403C110.979 104.632 110.825 104.837 110.635 105.004" stroke="#E3E3E5" stroke-width="0.66" stroke-miterlimit="10" stroke-linecap="round"/>
<path d="M114.013 103.671C114.038 103.945 113.998 104.221 113.898 104.477C113.798 104.733 113.639 104.962 113.436 105.147" stroke="#E3E3E5" stroke-width="0.66" stroke-miterlimit="10" stroke-linecap="round"/>
<path d="M104.84 102.684C104.556 100.64 103.409 100.08 102.324 100.907C101.997 100.537 101.548 100.296 101.059 100.229C100.569 100.163 100.072 100.274 99.6577 100.542C99.3196 100.344 98.9288 100.254 98.5379 100.284C98.147 100.314 97.7747 100.463 97.4711 100.711" stroke="#E3E3E5" stroke-width="0.78" stroke-miterlimit="10" stroke-linecap="round"/>
<path d="M112.929 33.2711C112.929 33.2711 112.44 33.9733 112.68 34.4356C112.92 34.8978 114.031 35.2356 114.787 35.8311C115.542 36.4267 116.235 37.4578 116.564 37.7067C116.607 37.7502 116.659 37.7848 116.715 37.8084C116.772 37.832 116.832 37.8441 116.893 37.8441C116.954 37.8441 117.015 37.832 117.072 37.8084C117.128 37.7848 117.179 37.7502 117.222 37.7067" stroke="#E3E3E5" stroke-width="0.77" stroke-miterlimit="10" stroke-linecap="round"/>
<path d="M100.093 33.2711C100.093 33.2711 100.618 33.9733 100.378 34.4356C100.138 34.8978 99.0267 35.2356 98.2711 35.8311C97.5156 36.4267 96.8222 37.4578 96.4933 37.7067C96.4504 37.7502 96.3991 37.7848 96.3427 37.8084C96.2862 37.832 96.2256 37.8441 96.1645 37.8441C96.1033 37.8441 96.0427 37.832 95.9862 37.8084C95.9298 37.7848 95.8786 37.7502 95.8356 37.7067" stroke="#E3E3E5" stroke-width="0.77" stroke-miterlimit="10" stroke-linecap="round"/>
<path d="M108.849 42.2222C109.137 42.7254 109.589 43.1147 110.129 43.325C110.669 43.5353 111.265 43.5539 111.818 43.3777C112.813 42.9955 113.542 41.7777 113.196 40.9688C112.849 40.1599 111.551 39.9466 110.716 40.1777C110.279 40.3401 109.885 40.5973 109.561 40.931C109.236 41.2646 108.99 41.6661 108.84 42.1066L108.849 42.2222Z" stroke="#E3E3E5" stroke-miterlimit="10"/>
<path d="M108.004 46.7556C107.545 46.5317 107.04 46.4153 106.529 46.4153C106.018 46.4153 105.513 46.5317 105.053 46.7556L106.067 48.0001H106.956L108.004 46.7556Z" fill="#E3E3E5" stroke="#E3E3E5" stroke-width="0.5" stroke-linejoin="round"/>
<path d="M104.2 42.2222C103.913 42.7286 103.46 43.1202 102.917 43.3308C102.374 43.5414 101.776 43.5579 101.222 43.3777C100.236 42.9955 99.5067 41.7777 99.8533 40.9688C100.2 40.1599 101.498 39.9466 102.333 40.1777C102.769 40.3401 103.164 40.5973 103.488 40.931C103.813 41.2646 104.059 41.6661 104.209 42.1066L104.2 42.2222Z" stroke="#E3E3E5" stroke-miterlimit="10"/>
<path d="M106.493 49.0667V48.0089" stroke="#E3E3E5" stroke-width="0.75" stroke-linecap="round" stroke-linejoin="round"/>
<path d="M106.493 49.3245C106.31 49.7455 106.003 50.101 105.613 50.3437C105.224 50.5865 104.769 50.7051 104.31 50.6839C103.852 50.6627 103.41 50.5027 103.044 50.225C102.679 49.9473 102.406 49.5651 102.262 49.1289" stroke="#E3E3E5" stroke-width="0.75" stroke-miterlimit="10" stroke-linecap="round"/>
<path d="M106.493 49.3245C106.677 49.7455 106.983 50.101 107.373 50.3437C107.763 50.5865 108.217 50.7051 108.676 50.6839C109.135 50.6627 109.576 50.5027 109.942 50.225C110.308 49.9473 110.581 49.5651 110.724 49.1289" stroke="#E3E3E5" stroke-width="0.75" stroke-miterlimit="10" stroke-linecap="round"/>
</g>
<defs>
<clipPath id="clip0_6500_53796">
<rect width="212" height="120" fill="white"/>
</clipPath>
</defs>
</svg>
