<svg width="212" height="120" viewBox="0 0 212 120" fill="none" xmlns="http://www.w3.org/2000/svg">
<g clip-path="url(#clip0_6500_53534)">
<path d="M13.3333 0H0V13.3333H13.3333V0Z" fill="#8BAE46"/>
<path d="M31.1112 0H17.7778V13.3333H31.1112V0Z" fill="#E96115"/>
<path d="M164.07 35.515L128.92 0.430664L46.0508 83.4547L81.2008 118.539L164.07 35.515Z" stroke="#E96115" stroke-width="2" stroke-miterlimit="10" stroke-linecap="round" stroke-dasharray="2 5"/>
<g clip-path="url(#clip1_6500_53534)">
<path d="M149.78 45.62C158.37 34.5 153.69 27.71 146.23 19.69L145.07 18.53C136.79 10.92 130.6 5.25 118.14 15.74C117.93 15.91 117.72 16.09 117.52 16.28C116.52 17.16 115.45 18.14 114.35 19.28L100.54 32.98H99.6398C99.2327 32.98 98.8296 33.0602 98.4534 33.216C98.0773 33.3718 97.7356 33.6001 97.4477 33.888C97.1599 34.1758 96.9315 34.5176 96.7757 34.8937C96.6199 35.2698 96.5398 35.6729 96.5398 36.08C96.542 36.1935 96.5829 36.3029 96.6556 36.3902C96.7283 36.4774 96.8285 36.5373 96.9398 36.56L61.8898 71.44C61.8236 71.4929 61.772 71.5617 61.7398 71.64C61.2438 72.7774 60.6304 73.8599 59.9098 74.87L56.3998 79.81C53.0498 84.56 55.7098 90.98 64.7098 100.03C72.1798 107.49 76.9298 109.76 80.4098 109.76C82.0185 109.74 83.5875 109.257 84.9298 108.37L89.8598 104.87C90.8722 104.145 91.9582 103.528 93.0998 103.03C93.1781 102.998 93.2469 102.946 93.2998 102.88L128.13 67.88C128.17 67.9687 128.234 68.044 128.316 68.0972C128.397 68.1504 128.492 68.1791 128.59 68.18C129.412 68.18 130.2 67.8534 130.782 67.272C131.363 66.6907 131.69 65.9022 131.69 65.08V64.3L145.52 50.44C146.37 49.58 147.15 48.75 147.87 47.95C148.58 47.2366 149.22 46.4563 149.78 45.62V45.62ZM144.38 19.25L145.51 20.38C151.62 26.95 155.63 32.38 152.03 40.16C152.261 38.8695 152.298 37.5515 152.14 36.25C152.14 36.1 152.14 35.97 152.14 35.82C151.692 33.051 150.507 30.4535 148.71 28.3L148.62 28.23C148.651 27.6645 148.469 27.1077 148.11 26.67L144.87 22.76C144.009 21.7302 143.052 20.7859 142.01 19.94L138.1 16.7C137.662 16.3405 137.105 16.1585 136.54 16.19L136.47 16.1C134.316 14.3026 131.719 13.1178 128.95 12.67H128.51C127.001 12.4857 125.472 12.5635 123.99 12.9C132.43 8.29 137.52 12.95 144.38 19.25V19.25ZM98.6498 96.11C97.8766 96.0048 97.0895 96.0821 96.3515 96.3356C95.6135 96.5892 94.9451 97.0119 94.3998 97.57L85.9498 104.38C83.7898 106.22 81.8798 107.15 79.4898 106.68L85.4898 100.8C86.3857 99.9015 87.2303 98.9533 88.0198 97.96C94.0198 96.55 101.79 90.46 113.58 78.66L128.12 64.17V66.44L98.6498 96.11ZM67.1498 97.67C62.0898 92.61 59.3898 89.16 58.4098 86.4L64.7098 79.93C65.2698 79.37 65.8598 78.82 66.5898 78.2C66.1998 81.86 67.6498 84.92 70.7198 87.98L76.8198 94.08C79.5598 96.82 82.2898 98.28 85.4598 98.28C85.8405 98.2794 86.221 98.2594 86.5998 98.22C85.9798 98.94 85.4298 99.53 84.8698 100.09L78.4098 106.37C75.6298 105.44 72.1898 102.71 67.1498 97.67V97.67ZM60.3898 78.81L67.1898 70.38C67.7562 69.8365 68.1884 69.1687 68.4522 68.4293C68.7161 67.6899 68.8042 66.8993 68.7098 66.12L98.3398 36.58H100.71L86.1098 51.14C74.3098 62.93 68.2198 70.66 66.8198 76.7C65.8212 77.487 64.8696 78.3317 63.9698 79.23L58.0898 85.23C57.6198 82.88 58.5498 80.97 60.3898 78.81ZM135.39 16.56L135.31 16.61C128.607 20.9029 122.156 25.5772 115.99 30.61C114.343 29.7201 112.442 29.4168 110.6 29.75C116.41 24.12 122.24 18.94 128.8 13.61C131.215 14.0245 133.488 15.0389 135.41 16.56H135.39ZM137.76 17.09L141.71 20.32C142.713 21.153 143.637 22.077 144.47 23.08L147.71 26.99C147.987 27.3185 148.126 27.7411 148.1 28.17C148.1 28.42 147.95 28.63 147.85 28.44C146.26 25.8 139 18.54 136.36 16.95C136.1 16.83 136.36 16.71 136.63 16.69C137.049 16.6796 137.458 16.8217 137.78 17.09H137.76ZM125.95 38.82C122.14 35 119.18 32.32 116.5 30.82C122.531 25.903 128.835 21.3291 135.38 17.12C135.423 17.1138 135.465 17.0966 135.5 17.07V17.07C135.99 17.07 138.26 18.81 141.61 22.07C145.41 25.83 147.7 28.68 147.61 29.14C147.61 29.14 147.61 29.21 147.61 29.26C143.82 35.01 139.32 41.26 133.88 48.17C132.45 45.59 129.76 42.63 125.95 38.82ZM112.09 30.6C115.77 30.6 119.39 33.68 125.24 39.53C132.64 46.92 135.6 50.76 133.52 55.64L132.95 55.98C130.26 46.44 117.63 33.84 108.81 31.8L109.11 31.28C110.046 30.8528 111.06 30.6214 112.09 30.6V30.6ZM67.7098 77.29C68.8398 76.41 70.2798 75.34 72.3198 73.92C74.3238 72.6224 76.2535 71.2136 78.0998 69.7C82.3786 76.6026 88.1972 82.4211 95.0998 86.7C93.5894 88.5453 92.1806 90.4715 90.8798 92.47C89.5098 94.47 88.4698 95.86 87.5998 96.96C83.7298 97.74 80.5998 96.44 77.5198 93.35L71.4298 87.26C68.2898 84.17 66.9398 81.1 67.7098 77.29ZM87.7098 50.96C88.3714 52.7586 89.354 54.4222 90.6098 55.87L90.1498 56.34C88.8769 54.9309 87.8432 53.323 87.0898 51.58L87.7098 50.96ZM86.7098 51.96C87.4806 53.6946 88.5238 55.2948 89.7998 56.7L83.3998 63.32L83.1698 63.55C81.8719 64.5317 80.3879 65.2392 78.8081 65.6295C77.2282 66.0197 75.5855 66.0845 73.9798 65.82C77.9672 60.9713 82.2168 56.3444 86.7098 51.96V51.96ZM73.6098 66.29C74.3941 66.4105 75.1862 66.474 75.9798 66.48C77.9498 66.4909 79.8928 66.0206 81.6398 65.11C78.6165 68.1142 75.2885 70.7953 71.7098 73.11C70.2598 74.11 69.0798 74.97 68.0698 75.73C68.9298 73.03 70.7098 69.96 73.6098 66.29ZM91.7098 93.05C94.0187 89.464 96.7002 86.1321 99.7098 83.11C98.4519 85.5757 98.034 88.3849 98.5198 91.11C95.7304 93.4426 92.57 95.2915 89.1698 96.58C89.8898 95.58 90.7098 94.44 91.7098 93.05ZM98.9898 90.74C98.7365 89.145 98.8052 87.5155 99.1916 85.9475C99.578 84.3795 100.274 82.9047 101.24 81.61L101.48 81.38L108.1 74.98C109.505 76.256 111.105 77.2992 112.84 78.07C108.457 82.5531 103.823 86.7833 98.9598 90.74H98.9898ZM113.22 77.74C111.477 76.9866 109.869 75.9529 108.46 74.68L108.93 74.22C110.378 75.4757 112.041 76.4583 113.84 77.12L113.22 77.74ZM100.79 80.74C98.8872 82.5233 97.0908 84.4165 95.4098 86.41C88.5126 82.1472 82.7025 76.3372 78.4398 69.44C80.4332 67.7589 82.3265 65.9625 84.1098 64.06L95.5498 52.18C97.2433 50.3624 98.7633 48.3905 100.09 46.29C108.211 50.0427 114.733 56.561 118.49 64.68C116.382 66.0006 114.406 67.521 112.59 69.22L100.79 80.74ZM118.91 64.44C115.12 56.2488 108.547 49.6682 100.36 45.87C100.73 45.31 101.09 44.76 101.44 44.2L102.3 42.86L108.54 32.25C117.11 34.13 129.95 46.99 132.54 56.25L121.89 62.44L120.57 63.29L118.91 64.44ZM101.45 42.34L100.6 43.66C98.9382 46.4531 97.0055 49.0758 94.8298 51.49L90.9498 55.49C89.7013 54.0386 88.7286 52.3712 88.0798 50.57L101.42 37.24C103.226 35.3271 105.238 33.6201 107.42 32.15L101.45 42.34ZM127.53 63.34L114.19 76.69C112.389 76.0411 110.721 75.0685 109.27 73.82L113.27 69.94C115.684 67.7642 118.307 65.8316 121.1 64.17L122.4 63.33L132.61 57.33C131.145 59.5185 129.441 61.5376 127.53 63.35V63.34ZM134.15 48.74C139.71 41.64 144.31 35.32 148.16 29.44V29.34C149.678 31.2547 150.689 33.5212 151.1 35.93C145.76 42.5 140.59 48.33 134.95 54.13C135.302 52.2979 135.02 50.4003 134.15 48.75V48.74ZM115.06 19.95C115.88 19.12 116.68 18.37 117.45 17.67L117.55 17.6C117.75 17.4 117.96 17.22 118.17 17.04L118.77 16.51C121.181 14.4849 124.252 13.4171 127.4 13.51C120.59 19.09 114.53 24.51 108.4 30.51C106.395 31.5423 104.555 32.8668 102.94 34.44C102.876 34.1486 102.742 33.8775 102.548 33.6507C102.354 33.4239 102.108 33.2485 101.83 33.14L115.06 19.95ZM99.6398 33.95H101.18C101.392 33.95 101.595 34.0343 101.745 34.1843C101.895 34.3343 101.98 34.5378 101.98 34.75C101.98 34.9622 101.895 35.1657 101.745 35.3157C101.595 35.4657 101.392 35.55 101.18 35.55H97.5998C97.7204 35.1007 97.9855 34.7036 98.3542 34.4199C98.7228 34.1362 99.1746 33.9816 99.6398 33.98V33.95ZM89.3198 104.05L84.4098 107.54C80.9498 109.65 76.2498 110.12 65.4098 99.32C54.0998 87.97 55.3098 83.08 57.2098 80.44L60.7098 75.44C61.4414 74.3979 62.0741 73.2897 62.5998 72.13L68.1898 66.56C68.208 67.2066 68.0932 67.8501 67.8523 68.4504C67.6115 69.0508 67.2498 69.5953 66.7898 70.05L59.9898 78.49C57.8798 80.97 56.9898 83.15 57.6398 85.72C57.6398 85.72 57.8098 86.36 57.8798 86.57C58.8798 89.5 61.7498 92.99 66.7298 97.97C71.7298 102.97 75.2298 105.82 78.1698 106.86L79.0098 107.11C79.5302 107.238 80.0638 107.305 80.5998 107.31C82.5298 107.31 84.2898 106.42 86.2398 104.76L94.7098 97.95C95.1638 97.4925 95.707 97.1331 96.3056 96.894C96.9042 96.6549 97.5455 96.5412 98.1898 96.56L92.6198 102.15C91.4616 102.676 90.3565 103.313 89.3198 104.05V104.05ZM130.72 65.05C130.713 65.5136 130.552 65.9617 130.262 66.3238C129.972 66.6859 129.571 66.9413 129.12 67.05V63.52C129.12 63.3078 129.204 63.1043 129.354 62.9543C129.504 62.8043 129.708 62.72 129.92 62.72C130.132 62.72 130.335 62.8043 130.485 62.9543C130.635 63.1043 130.72 63.3078 130.72 63.52V65.05ZM144.81 49.71L131.62 62.97C131.531 62.6866 131.371 62.4305 131.156 62.2259C130.941 62.0212 130.677 61.8746 130.39 61.8C131.947 60.1767 133.258 58.3337 134.28 56.33C140.28 50.25 145.7 44.19 151.28 37.33C151.37 40.0613 150.566 42.7473 148.99 44.98C147.697 46.6429 146.301 48.2227 144.81 49.71V49.71Z" fill="white"/>
</g>
</g>
<defs>
<clipPath id="clip0_6500_53534">
<rect width="212" height="120" fill="white"/>
</clipPath>
<clipPath id="clip1_6500_53534">
<rect width="99.4" height="99.76" fill="white" transform="translate(55 10)"/>
</clipPath>
</defs>
</svg>
