<svg width="212" height="120" viewBox="0 0 212 120" fill="none" xmlns="http://www.w3.org/2000/svg">
<path d="M13.3333 0H0V13.3333H13.3333V0Z" fill="#8BAE46"/>
<path d="M31.1112 0H17.7778V13.3333H31.1112V0Z" fill="#E96115"/>
<path d="M158 8L54 8L54 112H158V8Z" stroke="#E96115" stroke-width="2" stroke-miterlimit="10" stroke-linecap="round" stroke-dasharray="2 5"/>
<g clip-path="url(#clip0_6499_53305)">
<path d="M150.78 45.62C159.37 34.5 154.69 27.71 147.23 19.69L146.07 18.53C137.79 10.92 131.6 5.25 119.14 15.74C118.93 15.91 118.72 16.09 118.52 16.28C117.52 17.16 116.45 18.14 115.35 19.28L101.54 32.98H100.64C100.233 32.98 99.8298 33.0602 99.4537 33.216C99.0776 33.3718 98.7358 33.6001 98.448 33.888C98.1601 34.1758 97.9318 34.5176 97.776 34.8937C97.6202 35.2698 97.54 35.6729 97.54 36.08C97.5423 36.1935 97.5831 36.3029 97.6558 36.3902C97.7285 36.4774 97.8287 36.5373 97.94 36.56L62.89 71.44C62.8239 71.4929 62.7723 71.5617 62.74 71.64C62.244 72.7774 61.6307 73.8599 60.91 74.87L57.4 79.81C54.05 84.56 56.71 90.98 65.71 100.03C73.18 107.49 77.93 109.76 81.41 109.76C83.0188 109.74 84.5878 109.257 85.93 108.37L90.86 104.87C91.8724 104.145 92.9584 103.528 94.1 103.03C94.1783 102.998 94.2471 102.946 94.3 102.88L129.13 67.88C129.17 67.9687 129.235 68.044 129.316 68.0972C129.398 68.1504 129.493 68.1791 129.59 68.18C130.412 68.18 131.201 67.8534 131.782 67.272C132.363 66.6907 132.69 65.9022 132.69 65.08V64.3L146.52 50.44C147.37 49.58 148.15 48.75 148.87 47.95C149.58 47.2366 150.22 46.4563 150.78 45.62V45.62ZM145.38 19.25L146.51 20.38C152.62 26.95 156.63 32.38 153.03 40.16C153.262 38.8695 153.299 37.5515 153.14 36.25C153.14 36.1 153.14 35.97 153.14 35.82C152.692 33.051 151.507 30.4535 149.71 28.3L149.62 28.23C149.652 27.6645 149.469 27.1077 149.11 26.67L145.87 22.76C145.01 21.7302 144.052 20.7859 143.01 19.94L139.1 16.7C138.662 16.3405 138.106 16.1585 137.54 16.19L137.47 16.1C135.317 14.3026 132.719 13.1178 129.95 12.67H129.51C128.001 12.4857 126.472 12.5635 124.99 12.9C133.43 8.29 138.52 12.95 145.38 19.25V19.25ZM99.65 96.11C98.8768 96.0048 98.0897 96.0821 97.3517 96.3356C96.6138 96.5892 95.9454 97.0119 95.4 97.57L86.95 104.38C84.79 106.22 82.88 107.15 80.49 106.68L86.49 100.8C87.3859 99.9015 88.2306 98.9533 89.02 97.96C95.02 96.55 102.79 90.46 114.58 78.66L129.12 64.17V66.44L99.65 96.11ZM68.15 97.67C63.09 92.61 60.39 89.16 59.41 86.4L65.71 79.93C66.27 79.37 66.86 78.82 67.59 78.2C67.2 81.86 68.65 84.92 71.72 87.98L77.82 94.08C80.56 96.82 83.29 98.28 86.46 98.28C86.8408 98.2794 87.2213 98.2594 87.6 98.22C86.98 98.94 86.43 99.53 85.87 100.09L79.41 106.37C76.63 105.44 73.19 102.71 68.15 97.67V97.67ZM61.39 78.81L68.19 70.38C68.7565 69.8365 69.1887 69.1687 69.4525 68.4293C69.7163 67.6899 69.8045 66.8993 69.71 66.12L99.34 36.58H101.71L87.11 51.14C75.31 62.93 69.22 70.66 67.82 76.7C66.8214 77.487 65.8698 78.3317 64.97 79.23L59.09 85.23C58.62 82.88 59.55 80.97 61.39 78.81ZM136.39 16.56L136.31 16.61C129.607 20.9029 123.157 25.5772 116.99 30.61C115.343 29.7201 113.442 29.4168 111.6 29.75C117.41 24.12 123.24 18.94 129.8 13.61C132.216 14.0245 134.488 15.0389 136.41 16.56H136.39ZM138.76 17.09L142.71 20.32C143.713 21.153 144.637 22.077 145.47 23.08L148.71 26.99C148.987 27.3185 149.127 27.7411 149.1 28.17C149.1 28.42 148.95 28.63 148.85 28.44C147.26 25.8 140 18.54 137.36 16.95C137.1 16.83 137.36 16.71 137.63 16.69C138.049 16.6796 138.458 16.8217 138.78 17.09H138.76ZM126.95 38.82C123.14 35 120.18 32.32 117.5 30.82C123.532 25.903 129.835 21.3291 136.38 17.12C136.424 17.1138 136.465 17.0966 136.5 17.07V17.07C136.99 17.07 139.26 18.81 142.61 22.07C146.41 25.83 148.7 28.68 148.61 29.14C148.61 29.14 148.61 29.21 148.61 29.26C144.82 35.01 140.32 41.26 134.88 48.17C133.45 45.59 130.76 42.63 126.95 38.82ZM113.09 30.6C116.77 30.6 120.39 33.68 126.24 39.53C133.64 46.92 136.6 50.76 134.52 55.64L133.95 55.98C131.26 46.44 118.63 33.84 109.81 31.8L110.11 31.28C111.047 30.8528 112.061 30.6214 113.09 30.6V30.6ZM68.71 77.29C69.84 76.41 71.28 75.34 73.32 73.92C75.324 72.6224 77.2537 71.2136 79.1 69.7C83.3789 76.6026 89.1974 82.4211 96.1 86.7C94.5896 88.5453 93.1809 90.4715 91.88 92.47C90.51 94.47 89.47 95.86 88.6 96.96C84.73 97.74 81.6 96.44 78.52 93.35L72.43 87.26C69.29 84.17 67.94 81.1 68.71 77.29ZM88.71 50.96C89.3717 52.7586 90.3543 54.4222 91.61 55.87L91.15 56.34C89.8771 54.9309 88.8434 53.323 88.09 51.58L88.71 50.96ZM87.71 51.96C88.4808 53.6946 89.524 55.2948 90.8 56.7L84.4 63.32L84.17 63.55C82.8721 64.5317 81.3882 65.2392 79.8083 65.6295C78.2284 66.0197 76.5857 66.0845 74.98 65.82C78.9674 60.9713 83.2171 56.3444 87.71 51.96V51.96ZM74.61 66.29C75.3944 66.4105 76.1865 66.474 76.98 66.48C78.9501 66.4909 80.893 66.0206 82.64 65.11C79.6167 68.1142 76.2888 70.7953 72.71 73.11C71.26 74.11 70.08 74.97 69.07 75.73C69.93 73.03 71.71 69.96 74.61 66.29ZM92.71 93.05C95.0189 89.464 97.7005 86.1321 100.71 83.11C99.4521 85.5757 99.0342 88.3849 99.52 91.11C96.7306 93.4426 93.5702 95.2915 90.17 96.58C90.89 95.58 91.71 94.44 92.71 93.05ZM99.99 90.74C99.7368 89.145 99.8054 87.5155 100.192 85.9475C100.578 84.3795 101.275 82.9047 102.24 81.61L102.48 81.38L109.1 74.98C110.505 76.256 112.105 77.2992 113.84 78.07C109.457 82.5531 104.823 86.7833 99.96 90.74H99.99ZM114.22 77.74C112.477 76.9866 110.869 75.9529 109.46 74.68L109.93 74.22C111.378 75.4757 113.041 76.4583 114.84 77.12L114.22 77.74ZM101.79 80.74C99.8875 82.5233 98.0911 84.4165 96.41 86.41C89.5128 82.1472 83.7028 76.3372 79.44 69.44C81.4335 67.7589 83.3267 65.9625 85.11 64.06L96.55 52.18C98.2436 50.3624 99.7635 48.3905 101.09 46.29C109.211 50.0427 115.733 56.561 119.49 64.68C117.382 66.0006 115.407 67.521 113.59 69.22L101.79 80.74ZM119.91 64.44C116.121 56.2488 109.547 49.6682 101.36 45.87C101.73 45.31 102.09 44.76 102.44 44.2L103.3 42.86L109.54 32.25C118.11 34.13 130.95 46.99 133.54 56.25L122.89 62.44L121.57 63.29L119.91 64.44ZM102.45 42.34L101.6 43.66C99.9384 46.4531 98.0058 49.0758 95.83 51.49L91.95 55.49C90.7015 54.0386 89.7289 52.3712 89.08 50.57L102.42 37.24C104.226 35.3271 106.238 33.6201 108.42 32.15L102.45 42.34ZM128.53 63.34L115.19 76.69C113.389 76.0411 111.721 75.0685 110.27 73.82L114.27 69.94C116.684 67.7642 119.307 65.8316 122.1 64.17L123.4 63.33L133.61 57.33C132.145 59.5185 130.441 61.5376 128.53 63.35V63.34ZM135.15 48.74C140.71 41.64 145.31 35.32 149.16 29.44V29.34C150.678 31.2547 151.689 33.5212 152.1 35.93C146.76 42.5 141.59 48.33 135.95 54.13C136.302 52.2979 136.02 50.4003 135.15 48.75V48.74ZM116.06 19.95C116.88 19.12 117.68 18.37 118.45 17.67L118.55 17.6C118.75 17.4 118.96 17.22 119.17 17.04L119.77 16.51C122.181 14.4849 125.253 13.4171 128.4 13.51C121.59 19.09 115.53 24.51 109.4 30.51C107.395 31.5423 105.555 32.8668 103.94 34.44C103.876 34.1486 103.742 33.8775 103.548 33.6507C103.354 33.4239 103.108 33.2485 102.83 33.14L116.06 19.95ZM100.64 33.95H102.18C102.392 33.95 102.596 34.0343 102.746 34.1843C102.896 34.3343 102.98 34.5378 102.98 34.75C102.98 34.9622 102.896 35.1657 102.746 35.3157C102.596 35.4657 102.392 35.55 102.18 35.55H98.6C98.7207 35.1007 98.9858 34.7036 99.3544 34.4199C99.7231 34.1362 100.175 33.9816 100.64 33.98V33.95ZM90.32 104.05L85.41 107.54C81.95 109.65 77.25 110.12 66.41 99.32C55.1 87.97 56.31 83.08 58.21 80.44L61.71 75.44C62.4416 74.3979 63.0744 73.2897 63.6 72.13L69.19 66.56C69.2083 67.2066 69.0934 67.8501 68.8526 68.4504C68.6117 69.0508 68.2501 69.5953 67.79 70.05L60.99 78.49C58.88 80.97 57.99 83.15 58.64 85.72C58.64 85.72 58.81 86.36 58.88 86.57C59.88 89.5 62.75 92.99 67.73 97.97C72.73 102.97 76.23 105.82 79.17 106.86L80.01 107.11C80.5305 107.238 81.064 107.305 81.6 107.31C83.53 107.31 85.29 106.42 87.24 104.76L95.71 97.95C96.1641 97.4925 96.7072 97.1331 97.3058 96.894C97.9044 96.6549 98.5457 96.5412 99.19 96.56L93.62 102.15C92.4618 102.676 91.3568 103.313 90.32 104.05V104.05ZM131.72 65.05C131.713 65.5136 131.552 65.9617 131.262 66.3238C130.973 66.6859 130.571 66.9413 130.12 67.05V63.52C130.12 63.3078 130.204 63.1043 130.354 62.9543C130.504 62.8043 130.708 62.72 130.92 62.72C131.132 62.72 131.336 62.8043 131.486 62.9543C131.636 63.1043 131.72 63.3078 131.72 63.52V65.05ZM145.81 49.71L132.62 62.97C132.531 62.6866 132.372 62.4305 132.156 62.2259C131.941 62.0212 131.677 61.8746 131.39 61.8C132.947 60.1767 134.258 58.3337 135.28 56.33C141.28 50.25 146.7 44.19 152.28 37.33C152.37 40.0613 151.566 42.7473 149.99 44.98C148.697 46.6429 147.301 48.2227 145.81 49.71V49.71Z" fill="white"/>
</g>
<defs>
<clipPath id="clip0_6499_53305">
<rect width="99.4" height="99.76" fill="white" transform="translate(56 10)"/>
</clipPath>
</defs>
</svg>
