<svg width="212" height="120" viewBox="0 0 212 120" fill="none" xmlns="http://www.w3.org/2000/svg">
<path d="M13.3333 0H0V13.3333H13.3333V0Z" fill="#8BAE46"/>
<g opacity="0.4">
<path opacity="0.4" d="M110.589 87C109.46 87 108.356 87.3349 107.417 87.9623C106.478 88.5897 105.746 89.4815 105.314 90.5249C104.881 91.5682 104.768 92.7163 104.989 93.824C105.209 94.9316 105.753 95.949 106.551 96.7476C107.35 97.5461 108.367 98.09 109.475 98.3103C110.583 98.5306 111.731 98.4175 112.774 97.9854C113.817 97.5532 114.709 96.8213 115.337 95.8823C115.964 94.9433 116.299 93.8393 116.299 92.71C116.299 91.1956 115.697 89.7432 114.626 88.6724C113.556 87.6016 112.103 87 110.589 87V87ZM110.589 97.66C109.6 97.66 108.633 97.3668 107.811 96.8173C106.989 96.2679 106.348 95.487 105.97 94.5734C105.591 93.6598 105.492 92.6545 105.685 91.6845C105.878 90.7146 106.354 89.8237 107.053 89.1245C107.753 88.4252 108.644 87.949 109.613 87.7561C110.583 87.5631 111.589 87.6622 112.502 88.0406C113.416 88.419 114.197 89.0599 114.746 89.8821C115.296 90.7044 115.589 91.6711 115.589 92.66C115.576 93.9774 115.043 95.2364 114.107 96.1633C113.171 97.0901 111.906 97.6101 110.589 97.61V97.66Z" fill="white"/>
<path opacity="0.4" d="M19.307 87.9179C19.2236 87.8722 19.1261 87.8594 19.0337 87.882C18.9413 87.9047 18.8608 87.9612 18.8081 88.0403C18.7553 88.1194 18.7342 88.2155 18.7488 88.3095C18.7634 88.4034 18.8127 88.4885 18.887 88.5479C19.6134 89.0557 20.1918 89.7474 20.563 90.5522C20.9342 91.3571 21.0847 92.2461 20.9992 93.1282C20.9138 94.0104 20.5953 94.854 20.0766 95.5726C19.5578 96.2912 18.8574 96.8591 18.047 97.2179C18.0013 97.2365 17.9598 97.264 17.9249 97.2988C17.89 97.3337 17.8625 97.3752 17.8438 97.4208C17.8252 97.4665 17.8159 97.5154 17.8164 97.5647C17.817 97.614 17.8274 97.6627 17.847 97.7079C17.8735 97.7763 17.9202 97.835 17.981 97.8761C18.0418 97.9172 18.1136 97.9388 18.187 97.9379C18.2365 97.9474 18.2874 97.9474 18.337 97.9379C19.2877 97.5413 20.1134 96.8949 20.7266 96.0672C21.3399 95.2394 21.7178 94.2613 21.8203 93.2362C21.9228 92.2112 21.7461 91.1776 21.3089 90.2448C20.8717 89.312 20.1903 88.5149 19.337 87.9379L19.307 87.9179Z" fill="white"/>
<path opacity="0.4" d="M133.428 83.6195C133.419 83.567 133.395 83.5183 133.358 83.4795V83.4795C128.458 77.0495 109.448 73.5295 100.188 73.3595C96.4783 73.2895 93.9783 72.7295 92.3283 71.5895C84.9983 66.4595 69.6483 57.8995 50.1883 57.8995C50.1339 57.8906 50.0782 57.8936 50.0252 57.9084C49.9721 57.9231 49.9228 57.9492 49.8808 57.9849C49.8388 58.0206 49.8051 58.065 49.782 58.115C49.7588 58.165 49.7468 58.2194 49.7468 58.2745C49.7468 58.3296 49.7588 58.3841 49.782 58.4341C49.8051 58.4841 49.8388 58.5285 49.8808 58.5641C49.9228 58.5998 49.9721 58.6259 50.0252 58.6407C50.0782 58.6554 50.1339 58.6584 50.1883 58.6495C69.4483 58.6495 84.5883 67.1295 91.9083 72.1795C93.6783 73.4095 96.3083 74.0195 100.168 74.0895C110.268 74.2695 127.428 77.9895 132.378 83.4595C130.023 83.9437 127.709 84.6125 125.458 85.4595C125.377 85.4986 125.312 85.5653 125.276 85.6477C125.239 85.7302 125.233 85.823 125.258 85.9095C125.848 87.726 126.263 89.5944 126.498 91.4895C126.523 92.4847 126.874 93.4441 127.498 94.2195C127.803 94.497 128.162 94.7086 128.553 94.8411C128.944 94.9736 129.357 95.0241 129.768 94.9895C130.046 94.9909 130.324 94.9675 130.598 94.9195L131.988 95.3395C132.089 95.3678 132.178 95.4261 132.244 95.5065C132.31 95.587 132.35 95.6857 132.358 95.7895C132.414 96.0567 132.414 96.3324 132.358 96.5995C132.098 97.0495 131.358 97.3195 129.748 97.5995C127.574 97.7867 125.39 97.8568 123.208 97.8095C123.55 96.1241 123.77 94.4164 123.868 92.6995C123.93 90.9854 123.649 89.2761 123.041 87.6721C122.433 86.0682 121.511 84.6019 120.328 83.3595C119.084 82.1065 117.6 81.1184 115.963 80.455C114.327 79.7916 112.574 79.4666 110.808 79.4995C108.873 79.4291 106.946 79.7808 105.16 80.5303C103.375 81.2797 101.773 82.409 100.468 83.8395C98.0683 86.5495 96.8083 90.3095 96.7083 94.8395H91.3483C92.5783 87.4695 93.3483 83.0195 91.7783 75.1895C91.7612 75.1218 91.7268 75.0598 91.6783 75.0095C83.8883 66.4795 65.7783 59.8095 50.4583 59.8095C44.1041 59.7793 37.7555 60.1903 31.4583 61.0395C31.4095 61.0457 31.3624 61.0615 31.3198 61.086C31.2772 61.1105 31.24 61.1433 31.2102 61.1824C31.1804 61.2215 31.1587 61.2661 31.1463 61.3137C31.134 61.3613 31.1313 61.4109 31.1383 61.4595C31.1531 61.5589 31.2067 61.6483 31.2873 61.7083C31.3678 61.7682 31.4689 61.7938 31.5683 61.7795C37.0143 61.0294 42.5014 60.6153 47.9983 60.5395L50.4483 71.5395C45.7183 71.2195 41.5383 70.9095 38.7883 70.7095C33.1583 70.2995 28.6683 69.8795 25.1083 69.4195L24.5283 65.3195C24.507 65.2273 24.4521 65.1464 24.3744 65.0925C24.2966 65.0387 24.2015 65.0158 24.1078 65.0283C24.014 65.0408 23.9283 65.0878 23.8673 65.1602C23.8064 65.2325 23.7746 65.325 23.7783 65.4195L24.3383 69.3195C22.6083 69.0895 21.1083 68.8495 19.8183 68.5895C19.7696 68.5794 19.7194 68.5792 19.6707 68.5889C19.6219 68.5986 19.5756 68.6181 19.5346 68.6461C19.4935 68.6741 19.4585 68.7101 19.4316 68.7519C19.4048 68.7937 19.3866 68.8405 19.3783 68.8895C19.3604 68.9861 19.3806 69.0859 19.4346 69.168C19.4887 69.25 19.5724 69.3079 19.6683 69.3295C20.9883 69.5895 22.5083 69.8295 24.2583 70.0695C22.9919 73.4946 22.1457 77.0607 21.7383 80.6895C21.1765 80.416 20.5949 80.1853 19.9983 79.9995C19.951 79.9844 19.9011 79.9792 19.8518 79.9843C19.8024 79.9894 19.7547 80.0046 19.7115 80.029C19.6683 80.0534 19.6306 80.0865 19.6008 80.1262C19.571 80.1658 19.5497 80.2112 19.5383 80.2595C19.5246 80.3068 19.5206 80.3563 19.5263 80.4052C19.532 80.4541 19.5475 80.5013 19.5717 80.5441C19.5959 80.587 19.6284 80.6245 19.6673 80.6547C19.7062 80.6848 19.7507 80.7068 19.7983 80.7195C20.5279 80.9209 21.2375 81.1887 21.9183 81.5195V81.5195C26.4683 83.7995 28.5383 88.6995 28.5383 92.9995L28.3483 96.9995H25.7383C26.491 95.3879 26.8236 93.612 26.7051 91.8372C26.5866 90.0625 26.0209 88.3465 25.0607 86.8493C24.1004 85.352 22.7769 84.1221 21.2133 83.2741C19.6497 82.4262 17.897 81.9877 16.1183 81.9995C16.0175 81.9995 15.9208 82.0396 15.8496 82.1108C15.7783 82.1821 15.7383 82.2787 15.7383 82.3795C15.7383 82.429 15.7482 82.4779 15.7674 82.5235C15.7866 82.569 15.8147 82.6103 15.8502 82.6448C15.8856 82.6793 15.9276 82.7063 15.9736 82.7243C16.0197 82.7423 16.0689 82.7509 16.1183 82.7495C18.2718 82.7551 20.364 83.4669 22.0741 84.7759C23.7841 86.0849 25.0175 87.9187 25.5851 89.996C26.1527 92.0734 26.0231 94.2796 25.2162 96.2763C24.4094 98.2729 22.9698 99.9497 21.1183 101.05C21.0361 101.105 20.9773 101.188 20.9533 101.285C20.9293 101.381 20.9418 101.482 20.9883 101.57C21.023 101.626 21.0716 101.672 21.1295 101.703C21.1873 101.735 21.2524 101.751 21.3183 101.75C21.3809 101.763 21.4457 101.763 21.5083 101.75C23.1181 100.778 24.4428 99.3977 25.3483 97.7495H28.3483L28.2783 99.1895C28.2764 99.2919 28.3119 99.3915 28.3783 99.4695C28.4507 99.5397 28.5474 99.5791 28.6483 99.5795V99.5795L97.1683 99.2395C97.2213 99.2381 97.2735 99.2258 97.3217 99.2034C97.3698 99.1811 97.4129 99.1491 97.4483 99.1095C97.4824 99.07 97.508 99.0238 97.5235 98.9739C97.539 98.924 97.544 98.8715 97.5383 98.8195C97.5383 98.4495 97.4783 98.1095 97.4483 97.7495H101.258C102.171 99.4093 103.513 100.793 105.144 101.758C106.774 102.722 108.634 103.23 110.528 103.23C112.423 103.23 114.282 102.722 115.913 101.758C117.543 100.793 118.885 99.4093 119.798 97.7495H122.318C122.318 97.8395 122.318 97.9295 122.248 98.0195C122.229 98.0745 122.224 98.1332 122.233 98.1907C122.241 98.2481 122.264 98.3026 122.298 98.3495C122.333 98.3958 122.379 98.4334 122.431 98.4594C122.483 98.4854 122.54 98.4991 122.598 98.4995C124.98 98.5618 127.364 98.495 129.738 98.2995C131.428 98.0395 132.438 97.7495 132.888 96.9595C133.056 96.5689 133.101 96.1365 133.018 95.7195C132.997 95.4656 132.9 95.2239 132.739 95.0259C132.579 94.828 132.362 94.6829 132.118 94.6095L130.978 94.2695C131.068 93.9295 131.248 93.3495 131.428 92.7395C132.578 89.1395 133.708 85.1495 133.428 83.6195ZM90.5583 94.6195V94.7395L55.7383 94.5995C56.3784 87.1971 55.8554 79.7401 54.1883 72.4995C63.6483 73.1295 74.2883 73.7495 79.9683 73.7895C80.0667 74.0617 80.2048 74.3178 80.3783 74.5495C80.7452 75.0626 81.2911 75.4194 81.9083 75.5495C83.6683 75.6995 85.5483 75.7595 87.1783 75.7595C88.8083 75.7595 90.2683 75.6995 91.0383 75.6195C92.4783 83.0795 91.7483 87.4595 90.5583 94.6595V94.6195ZM52.1983 60.5295H53.2683H53.6983L54.6983 60.5995H55.1983L56.1983 60.6895L56.7683 60.7495L57.6683 60.8495L58.3683 60.9395L59.1283 61.0495L59.7983 61.1495L60.6083 61.2795L61.2383 61.3895L62.0783 61.5395L62.7283 61.6795L63.5383 61.8395L64.2283 61.9895L64.9983 62.1595L65.6883 62.3295L66.4583 62.5195L67.0983 62.6895L67.8983 62.8995L68.5483 63.0895L69.3383 63.3095L69.9783 63.5095L70.7483 63.7495L71.3983 63.9695L72.1483 64.2195L72.8083 64.4495L73.5283 64.7095L74.1683 64.9495L74.8883 65.2195L75.5383 65.4795L76.2183 65.7595L76.8783 66.0395L77.5283 66.3195L78.1583 66.6095L78.8083 66.9095L79.4283 67.1995L80.0583 67.5095L80.6783 67.8295L81.2783 68.1395C81.4783 68.2395 81.6783 68.3595 81.8783 68.4695C82.0783 68.5795 82.2683 68.6695 82.4483 68.7795L83.0483 69.1195H83.1183C82.6323 69.0694 82.1413 69.1337 81.6846 69.3073C81.2279 69.481 80.8182 69.7591 80.4883 70.1195C80.1882 70.5126 79.9713 70.9628 79.851 71.4425C79.7306 71.9221 79.7093 72.4213 79.7883 72.9095C74.4583 72.9995 64.9983 72.4595 56.2383 71.8795L51.9983 60.5195L52.1983 60.5295ZM87.6983 72.3695L88.1883 72.7695L88.6083 73.1095L89.0783 73.5095L89.4683 73.8595L89.9083 74.2795L90.2783 74.6295C90.3583 74.7095 90.4283 74.7895 90.5083 74.8595C87.6724 75.0153 84.8292 74.9786 81.9983 74.7495C81.5959 74.6523 81.2413 74.4147 80.9983 74.0795C80.6469 73.5936 80.4577 73.0092 80.4577 72.4095C80.4577 71.8099 80.6469 71.2255 80.9983 70.7395C81.9983 69.5395 84.1083 70.0095 85.2283 70.7995C85.5953 71.0768 85.9011 71.4268 86.1265 71.8278C86.352 72.2287 86.4921 72.6719 86.5383 73.1295C86.5383 73.2195 86.5383 73.2995 86.5383 73.3595C86.5494 73.4075 86.5699 73.4527 86.5986 73.4927C86.6273 73.5328 86.6635 73.5667 86.7053 73.5927C86.7471 73.6187 86.7936 73.6362 86.8421 73.6443C86.8907 73.6523 86.9403 73.6507 86.9883 73.6395C87.0362 73.6284 87.0815 73.6079 87.1215 73.5792C87.1615 73.5506 87.1955 73.5143 87.2215 73.4725C87.2475 73.4307 87.265 73.3842 87.273 73.3357C87.2811 73.2871 87.2794 73.2375 87.2683 73.1895C87.2683 73.1895 87.2683 73.0695 87.2683 72.9995C87.2051 72.6065 87.1012 72.2211 86.9583 71.8495L87.1983 72.0295L87.6983 72.3695ZM48.8083 60.5195H50.3983H51.1783L55.4183 71.8395L51.2683 71.5595L48.8083 60.5195ZM22.5183 80.9995C22.5883 77.8195 24.2583 72.1795 25.0583 70.1295C28.6383 70.5895 33.1383 71.0095 38.7783 71.4195C42.0883 71.6595 47.4783 72.0495 53.4083 72.4195C55.108 79.6958 55.6446 87.1954 54.9983 94.6395L29.3283 94.5395L29.3983 93.0595C29.3683 88.5695 27.2183 83.4595 22.5183 80.9995ZM29.0983 98.8495L29.2583 95.2895L55.2583 95.3895L96.5883 95.5495C96.5834 96.5515 96.6335 97.553 96.7383 98.5495L29.0983 98.8495ZM110.588 102.5C108.639 102.502 106.734 101.925 105.112 100.844C103.491 99.7621 102.227 98.2238 101.48 96.4236C100.733 94.6233 100.537 92.642 100.917 90.7304C101.297 88.8187 102.235 87.0627 103.613 85.6845C104.991 84.3064 106.747 83.3681 108.659 82.9883C110.571 82.6086 112.552 82.8045 114.352 83.5512C116.153 84.298 117.691 85.5621 118.772 87.1834C119.854 88.8048 120.43 90.7105 120.428 92.6595C120.426 95.2685 119.388 97.7698 117.543 99.6145C115.699 101.459 113.197 102.497 110.588 102.5V102.5ZM120.228 97.0195C120.873 95.6555 121.214 94.168 121.228 92.6595C121.228 89.8509 120.113 87.1573 118.127 85.1713C116.141 83.1853 113.447 82.0695 110.638 82.0695C107.83 82.0695 105.136 83.1853 103.15 85.1713C101.164 87.1573 100.048 89.8509 100.048 92.6595C100.063 94.168 100.404 95.6555 101.048 97.0195H97.5383C97.2083 91.6895 98.4083 87.3095 101.068 84.3095C102.305 82.9604 103.82 81.8959 105.509 81.1897C107.197 80.4836 109.019 80.1525 110.848 80.2195C112.489 80.1629 114.123 80.446 115.649 81.0509C117.175 81.6559 118.559 82.5697 119.715 83.7349C120.871 84.9002 121.773 86.2918 122.366 87.8225C122.958 89.3531 123.228 90.9897 123.158 92.6295C123.064 94.1006 122.893 95.5659 122.648 97.0195H120.228ZM130.768 92.5395C130.488 93.4595 130.348 93.9395 130.278 94.2195C129.896 94.2976 129.503 94.2971 129.121 94.218C128.739 94.1389 128.378 93.9829 128.058 93.7595C127.532 93.0886 127.244 92.2621 127.238 91.4095C127.019 89.5743 126.631 87.7632 126.078 85.9995C128.251 85.2302 130.473 84.6055 132.728 84.1295C132.748 85.9395 131.478 90.1795 130.768 92.5395V92.5395Z" fill="white"/>
<path opacity="0.4" d="M97.5081 81.2278C97.7168 81.2252 97.9163 81.1412 98.0639 80.9936C98.2115 80.846 98.2955 80.6465 98.2981 80.4378V79.7978C98.2981 79.6941 98.2777 79.5913 98.238 79.4955C98.1983 79.3996 98.1401 79.3126 98.0667 79.2392C97.9934 79.1658 97.9063 79.1076 97.8104 79.0679C97.7146 79.0282 97.6119 79.0078 97.5081 79.0078H94.8681C94.7644 79.0078 94.6617 79.0282 94.5658 79.0679C94.47 79.1076 94.3829 79.1658 94.3095 79.2392C94.2362 79.3126 94.178 79.3996 94.1383 79.4955C94.0986 79.5913 94.0781 79.6941 94.0781 79.7978V80.4378C94.0807 80.6465 94.1648 80.846 94.3124 80.9936C94.46 81.1412 94.6594 81.2252 94.8681 81.2278H97.5081ZM94.8681 79.7578H97.5481V80.3978H94.8681V79.7578Z" fill="white"/>
<path opacity="0.4" d="M122.79 81.4302C123.43 81.9102 123.87 82.3002 124.23 82.6102C124.74 83.1435 125.376 83.5391 126.08 83.7602C126.216 83.7817 126.354 83.7817 126.49 83.7602C127.42 83.7602 129.49 83.5101 129.77 82.8801C129.814 82.7736 129.829 82.6572 129.813 82.543C129.797 82.4287 129.751 82.3208 129.68 82.2302C128.91 81.0602 123.62 78.4102 122.43 78.4102C120.14 78.4802 119.95 78.8502 119.88 79.0002C119.62 79.5202 120.15 79.8002 120.77 80.1202C121.48 80.4973 122.156 80.9356 122.79 81.4302V81.4302ZM122.44 79.2001C123.44 79.2001 128.44 81.7801 129.02 82.6301C128.138 82.9284 127.211 83.0672 126.28 83.0402C125.682 82.8487 125.144 82.5039 124.72 82.0402C124.36 81.7202 123.9 81.3202 123.25 80.8202C122.569 80.3223 121.85 79.8776 121.1 79.4902L120.81 79.3401C121.349 79.249 121.894 79.2022 122.44 79.2001V79.2001Z" fill="white"/>
<path opacity="0.4" d="M170.098 99.9986H168.798V90.4486C169.158 90.4433 169.503 90.297 169.757 90.0409C170.011 89.7849 170.155 89.4394 170.158 89.0786C170.155 88.1368 169.782 87.2337 169.12 86.564C168.458 85.8943 167.559 85.5117 166.617 85.4986C166.924 84.6194 167.392 83.8053 167.997 83.0986C168.119 82.9335 168.194 82.7389 168.215 82.5349C168.237 82.3309 168.203 82.1251 168.117 81.9386C168.046 81.7741 167.934 81.6302 167.793 81.5201C167.651 81.41 167.484 81.3373 167.307 81.3086C167.635 81.0899 167.931 80.8275 168.188 80.5286C168.572 80.058 168.847 79.5083 168.994 78.9187C169.141 78.3292 169.156 77.7145 169.037 77.1186L165.677 60.2586C165.652 60.15 165.612 60.0457 165.557 59.9486H165.848C166.113 59.9486 166.367 59.8432 166.555 59.6557C166.742 59.4681 166.848 59.2138 166.848 58.9486C166.834 58.4299 166.642 57.9317 166.306 57.5368C165.969 57.142 165.507 56.8744 164.997 56.7786V31.4586C164.997 31.3578 164.957 31.2611 164.886 31.1899C164.815 31.1186 164.718 31.0786 164.617 31.0786C164.568 31.0785 164.519 31.0884 164.474 31.1076C164.428 31.1269 164.387 31.155 164.352 31.1904C164.318 31.2259 164.291 31.2678 164.273 31.3139C164.255 31.3599 164.246 31.4091 164.247 31.4586V56.7186H158.897V29.0686C158.883 28.9796 158.837 28.8987 158.769 28.8404C158.7 28.782 158.613 28.75 158.522 28.75C158.432 28.75 158.345 28.782 158.276 28.8404C158.208 28.8987 158.162 28.9796 158.147 29.0686V56.7786C157.648 56.8962 157.203 57.1797 156.885 57.5829C156.567 57.9861 156.395 58.4852 156.397 58.9986C156.397 59.2638 156.503 59.5181 156.69 59.7057C156.878 59.8932 157.132 59.9986 157.397 59.9986H157.677C157.63 60.0979 157.594 60.2018 157.568 60.3086L154.208 77.1686C154.038 77.96 154.113 78.7842 154.422 79.5323C154.731 80.2804 155.259 80.9172 155.938 81.3586C155.76 81.3883 155.592 81.4613 155.449 81.5712C155.306 81.6811 155.192 81.8244 155.117 81.9886C155.035 82.1757 155.003 82.3811 155.024 82.5844C155.045 82.7878 155.119 82.9822 155.238 83.1486C155.824 83.8623 156.277 84.6751 156.577 85.5486C155.637 85.551 154.736 85.9222 154.066 86.5822C153.397 87.2423 153.013 88.1386 152.997 89.0786C153 89.4394 153.144 89.7849 153.398 90.0409C153.652 90.297 153.997 90.4433 154.357 90.4486V99.9986H153.057C152.893 99.9986 152.735 100.064 152.619 100.18C152.503 100.296 152.438 100.454 152.438 100.619V101.999C152.438 102.163 152.503 102.321 152.619 102.437C152.735 102.553 152.893 102.619 153.057 102.619H170.057C170.138 102.619 170.219 102.602 170.293 102.571C170.368 102.54 170.436 102.494 170.492 102.436C170.549 102.379 170.594 102.31 170.624 102.235C170.654 102.16 170.669 102.08 170.667 101.999V100.619C170.67 100.462 170.613 100.31 170.507 100.194C170.401 100.079 170.254 100.009 170.098 99.9986ZM157.147 58.9986C157.147 58.5972 157.306 58.212 157.589 57.9273C157.872 57.6425 158.256 57.4812 158.658 57.4786H164.518C164.914 57.489 165.29 57.6537 165.567 57.9377C165.843 58.2216 165.998 58.6023 165.997 58.9986C165.995 59.0535 165.972 59.1055 165.933 59.1443C165.894 59.1832 165.842 59.2061 165.787 59.2086H163.997C163.988 58.8356 163.885 58.4711 163.697 58.1486C163.646 58.0637 163.562 58.0028 163.466 57.9794C163.369 57.956 163.267 57.9718 163.182 58.0236C163.098 58.0753 163.037 58.1586 163.013 58.2552C162.99 58.3518 163.006 58.4537 163.057 58.5386C163.175 58.7436 163.243 58.9728 163.257 59.2086H161.997V58.3486C162.006 58.2942 162.003 58.2385 161.989 58.1854C161.974 58.1323 161.948 58.0831 161.912 58.0411C161.876 57.9991 161.832 57.9654 161.782 57.9422C161.732 57.9191 161.678 57.9071 161.622 57.9071C161.567 57.9071 161.513 57.9191 161.463 57.9422C161.413 57.9654 161.369 57.9991 161.333 58.0411C161.297 58.0831 161.271 58.1323 161.256 58.1854C161.242 58.2385 161.239 58.2942 161.247 58.3486V59.2086H159.777C159.792 58.9728 159.86 58.7436 159.977 58.5386C160.029 58.4537 160.045 58.3518 160.022 58.2552C159.998 58.1586 159.937 58.0753 159.852 58.0236C159.768 57.9718 159.666 57.956 159.569 57.9794C159.473 58.0028 159.389 58.0637 159.337 58.1486C159.154 58.4728 159.051 58.8363 159.037 59.2086H157.387C157.358 59.2129 157.327 59.2107 157.298 59.2021C157.269 59.1935 157.242 59.1787 157.219 59.1588C157.196 59.1388 157.178 59.1142 157.166 59.0865C157.153 59.0589 157.147 59.0289 157.147 58.9986V58.9986ZM154.897 77.2586L158.257 60.3986C158.285 60.2724 158.354 60.1591 158.454 60.0774C158.554 59.9956 158.678 59.9502 158.807 59.9486H164.367C164.498 59.9497 164.624 59.9948 164.726 60.0764C164.827 60.1581 164.898 60.2715 164.927 60.3986L168.287 77.2586C168.38 77.7449 168.364 78.2456 168.241 78.7252C168.119 79.2047 167.891 79.6513 167.576 80.0332C167.261 80.4151 166.866 80.7228 166.419 80.9346C165.971 81.1464 165.483 81.257 164.988 81.2586H158.197C157.702 81.257 157.214 81.1464 156.766 80.9346C156.319 80.7228 155.924 80.4151 155.609 80.0332C155.294 79.6513 155.066 79.2047 154.944 78.7252C154.821 78.2456 154.805 77.7449 154.897 77.2586V77.2586ZM155.768 82.2586C155.79 82.2002 155.828 82.149 155.877 82.1103C155.927 82.0716 155.985 82.0468 156.048 82.0386V81.6686V81.9986H167.048C167.111 82.0071 167.171 82.0319 167.221 82.0704C167.272 82.109 167.312 82.16 167.337 82.2186C167.373 82.2809 167.392 82.3516 167.392 82.4236C167.392 82.4955 167.373 82.5662 167.337 82.6286C166.609 83.4331 166.09 84.4053 165.827 85.4586H157.298C157.03 84.4114 156.519 83.442 155.807 82.6286C155.77 82.5736 155.746 82.51 155.739 82.4436C155.732 82.3773 155.742 82.3102 155.768 82.2486V82.2586ZM153.777 89.0886C153.777 88.3353 154.077 87.613 154.609 87.0804C155.142 86.5478 155.864 86.2486 156.617 86.2486H166.568C167.321 86.2486 168.043 86.5478 168.576 87.0804C169.108 87.613 169.408 88.3353 169.408 89.0886C169.405 89.2539 169.337 89.4116 169.219 89.5276C169.102 89.6436 168.943 89.7086 168.777 89.7086H165.507C165.513 89.0285 165.33 88.3604 164.977 87.7786C164.922 87.6962 164.838 87.638 164.741 87.6157C164.645 87.5934 164.543 87.6087 164.458 87.6586C164.373 87.7121 164.313 87.7966 164.291 87.894C164.268 87.9913 164.285 88.0935 164.337 88.1786C164.618 88.639 164.764 89.1692 164.757 89.7086H161.997V87.9986C161.983 87.9096 161.937 87.8287 161.869 87.7704C161.8 87.712 161.713 87.68 161.622 87.68C161.532 87.68 161.445 87.712 161.376 87.7704C161.308 87.8287 161.262 87.9096 161.247 87.9986V89.6986H158.188C158.183 89.1594 158.328 88.6296 158.607 88.1686C158.635 88.1268 158.653 88.08 158.662 88.031C158.671 87.9819 158.669 87.9316 158.658 87.883C158.647 87.8344 158.626 87.7886 158.597 87.7483C158.567 87.7081 158.53 87.6741 158.488 87.6486C158.401 87.6011 158.301 87.587 158.205 87.6092C158.109 87.6313 158.024 87.6881 157.967 87.7686C157.625 88.3543 157.442 89.0199 157.438 89.6986H154.438C154.353 89.7026 154.269 89.6896 154.19 89.6604C154.11 89.6312 154.038 89.5863 153.976 89.5285C153.915 89.4706 153.865 89.401 153.831 89.3237C153.797 89.2464 153.779 89.163 153.777 89.0786V89.0886ZM155.137 90.4586H168.048V99.9986H155.137V90.4586ZM169.997 101.869H153.217V100.749H169.997V101.869Z" fill="white"/>
<path opacity="0.4" d="M161.689 79.7387C161.738 79.7401 161.786 79.7315 161.832 79.7134C161.877 79.6953 161.919 79.6681 161.953 79.6334C161.988 79.5988 162.015 79.5575 162.033 79.5119C162.051 79.4664 162.06 79.4177 162.059 79.3687V61.9287C162.06 61.8798 162.051 61.831 162.033 61.7855C162.015 61.74 161.988 61.6987 161.953 61.664C161.919 61.6294 161.877 61.6022 161.832 61.5841C161.786 61.566 161.738 61.5574 161.689 61.5587C161.639 61.5574 161.59 61.566 161.544 61.584C161.498 61.602 161.456 61.629 161.42 61.6635C161.385 61.698 161.357 61.7392 161.338 61.7848C161.318 61.8304 161.309 61.8793 161.309 61.9287V79.3687C161.309 79.4182 161.318 79.4671 161.338 79.5127C161.357 79.5582 161.385 79.5995 161.42 79.634C161.456 79.6685 161.498 79.6955 161.544 79.7135C161.59 79.7315 161.639 79.7401 161.689 79.7387V79.7387Z" fill="white"/>
<path opacity="0.4" d="M158.688 79.74C158.775 79.7393 158.859 79.7113 158.928 79.66C158.997 79.5891 159.036 79.494 159.036 79.395C159.036 79.296 158.997 79.201 158.928 79.13C158.018 78.05 159.078 68.04 159.928 61.99C159.942 61.8906 159.917 61.7896 159.857 61.709C159.797 61.6284 159.707 61.5748 159.608 61.56C159.559 61.5515 159.509 61.5532 159.461 61.565C159.413 61.5767 159.368 61.5983 159.328 61.6283C159.289 61.6584 159.256 61.6962 159.232 61.7395C159.208 61.7829 159.193 61.8307 159.188 61.88C158.798 64.55 156.948 77.96 158.328 79.61C158.371 79.6624 158.427 79.7023 158.49 79.7252C158.553 79.7481 158.622 79.7532 158.688 79.74V79.74Z" fill="white"/>
<path opacity="0.4" d="M164.199 79.13C164.163 79.1645 164.135 79.2057 164.116 79.2512C164.097 79.2967 164.087 79.3456 164.087 79.395C164.087 79.4444 164.097 79.4933 164.116 79.5388C164.135 79.5843 164.163 79.6255 164.199 79.66C164.269 79.7101 164.353 79.738 164.439 79.74C164.494 79.742 164.549 79.7313 164.599 79.7087C164.649 79.6862 164.694 79.6524 164.729 79.61C166.119 77.96 164.259 64.55 163.869 61.88C163.864 61.8307 163.849 61.7829 163.825 61.7395C163.801 61.6962 163.768 61.6584 163.729 61.6283C163.689 61.5983 163.644 61.5767 163.596 61.565C163.548 61.5532 163.498 61.5515 163.449 61.56C163.35 61.5748 163.26 61.6284 163.2 61.709C163.14 61.7896 163.115 61.8906 163.129 61.99C164.049 68 165.099 78.05 164.199 79.13Z" fill="white"/>
<path opacity="0.4" d="M165.137 91.3087C165.088 91.3087 165.04 91.3183 164.995 91.3369C164.95 91.3555 164.909 91.3827 164.875 91.4171C164.841 91.4515 164.813 91.4922 164.795 91.5371C164.776 91.582 164.767 91.6301 164.767 91.6787V98.6787C164.758 98.7331 164.761 98.7888 164.776 98.8419C164.79 98.895 164.816 98.9442 164.852 98.9862C164.888 99.0282 164.932 99.0619 164.982 99.0851C165.032 99.1082 165.087 99.1202 165.142 99.1202C165.197 99.1202 165.251 99.1082 165.301 99.0851C165.351 99.0619 165.396 99.0282 165.431 98.9862C165.467 98.9442 165.493 98.895 165.508 98.8419C165.523 98.7888 165.526 98.7331 165.517 98.6787V91.6787C165.517 91.6293 165.507 91.5803 165.488 91.5348C165.468 91.4892 165.44 91.448 165.405 91.4135C165.369 91.379 165.327 91.352 165.281 91.334C165.235 91.316 165.186 91.3074 165.137 91.3087V91.3087Z" fill="white"/>
<path opacity="0.4" d="M157.669 91.3087C157.62 91.3074 157.57 91.316 157.524 91.334C157.478 91.352 157.436 91.379 157.401 91.4135C157.366 91.448 157.337 91.4892 157.318 91.5348C157.299 91.5804 157.289 91.6293 157.289 91.6787V98.6787C157.289 98.7795 157.329 98.8762 157.4 98.9474C157.472 99.0187 157.568 99.0587 157.669 99.0587C157.719 99.0588 157.767 99.0489 157.813 99.0296C157.859 99.0104 157.9 98.9823 157.934 98.9469C157.969 98.9114 157.996 98.8695 158.014 98.8234C158.032 98.7774 158.04 98.7282 158.039 98.6787V91.6787C158.04 91.6298 158.032 91.581 158.014 91.5355C157.996 91.49 157.968 91.4487 157.934 91.414C157.899 91.3794 157.858 91.3522 157.812 91.3341C157.767 91.316 157.718 91.3074 157.669 91.3087V91.3087Z" fill="white"/>
<path opacity="0.4" d="M161.589 91.3087C161.54 91.3074 161.491 91.316 161.446 91.3341C161.4 91.3522 161.359 91.3794 161.324 91.414C161.29 91.4487 161.262 91.49 161.244 91.5355C161.226 91.581 161.218 91.6298 161.219 91.6787V98.6787C161.218 98.7282 161.226 98.7774 161.244 98.8234C161.262 98.8695 161.289 98.9114 161.324 98.9469C161.358 98.9823 161.399 99.0104 161.445 99.0296C161.491 99.0489 161.539 99.0588 161.589 99.0587C161.69 99.0587 161.786 99.0187 161.858 98.9474C161.929 98.8762 161.969 98.7795 161.969 98.6787V91.6787C161.969 91.6293 161.959 91.5804 161.94 91.5348C161.921 91.4892 161.892 91.448 161.857 91.4135C161.822 91.379 161.78 91.352 161.734 91.334C161.688 91.316 161.638 91.3074 161.589 91.3087V91.3087Z" fill="white"/>
</g>
<path d="M184.153 102.142H22.0032C21.8332 102.162 21.6766 102.244 21.563 102.372C21.4494 102.5 21.3867 102.666 21.3867 102.837C21.3867 103.008 21.4494 103.173 21.563 103.301C21.6766 103.429 21.8332 103.511 22.0032 103.532H184.153C184.251 103.544 184.351 103.534 184.446 103.505C184.54 103.475 184.627 103.426 184.701 103.36C184.775 103.295 184.835 103.214 184.875 103.124C184.916 103.034 184.937 102.936 184.937 102.837C184.937 102.738 184.916 102.64 184.875 102.55C184.835 102.459 184.775 102.379 184.701 102.313C184.627 102.247 184.54 102.198 184.446 102.169C184.351 102.139 184.251 102.13 184.153 102.142Z" fill="white"/>
<path d="M19.0029 102.142H12.3929C12.2946 102.13 12.195 102.139 12.1005 102.169C12.006 102.198 11.9189 102.247 11.8449 102.313C11.7708 102.379 11.7115 102.459 11.671 102.55C11.6304 102.64 11.6094 102.738 11.6094 102.837C11.6094 102.936 11.6304 103.034 11.671 103.124C11.7115 103.214 11.7708 103.295 11.8449 103.36C11.9189 103.426 12.006 103.475 12.1005 103.505C12.195 103.534 12.2946 103.544 12.3929 103.532H19.0029C19.1012 103.544 19.2008 103.534 19.2953 103.505C19.3897 103.475 19.4769 103.426 19.5509 103.36C19.625 103.295 19.6842 103.214 19.7248 103.124C19.7654 103.034 19.7864 102.936 19.7864 102.837C19.7864 102.738 19.7654 102.64 19.7248 102.55C19.6842 102.459 19.625 102.379 19.5509 102.313C19.4769 102.247 19.3897 102.198 19.2953 102.169C19.2008 102.139 19.1012 102.13 19.0029 102.142Z" fill="white"/>
<path d="M191.93 102.142H187.46C187.29 102.162 187.134 102.244 187.02 102.372C186.906 102.5 186.844 102.666 186.844 102.837C186.844 103.008 186.906 103.173 187.02 103.301C187.134 103.429 187.29 103.511 187.46 103.532H191.93C192.028 103.544 192.128 103.534 192.223 103.505C192.317 103.475 192.404 103.426 192.478 103.36C192.552 103.295 192.612 103.214 192.652 103.124C192.693 103.034 192.714 102.936 192.714 102.837C192.714 102.738 192.693 102.64 192.652 102.55C192.612 102.459 192.552 102.379 192.478 102.313C192.404 102.247 192.317 102.198 192.223 102.169C192.128 102.139 192.028 102.13 191.93 102.142Z" fill="white"/>
<path d="M9.22135 102.391C9.15468 102.454 9.10164 102.53 9.06552 102.614C9.0294 102.698 9.01096 102.789 9.01135 102.881C8.99622 102.967 8.99622 103.055 9.01135 103.141C9.04934 103.227 9.10367 103.305 9.17135 103.371C9.23645 103.432 9.31068 103.483 9.39135 103.521C9.48063 103.537 9.57207 103.537 9.66135 103.521C9.84457 103.521 10.0205 103.449 10.1514 103.321C10.2127 103.252 10.2633 103.175 10.3014 103.091C10.3165 103.005 10.3165 102.917 10.3014 102.831C10.3022 102.694 10.2622 102.56 10.1864 102.445C10.1107 102.331 10.0026 102.242 9.87598 102.189C9.74938 102.137 9.60999 102.123 9.47559 102.15C9.34119 102.177 9.21786 102.244 9.12135 102.341L9.22135 102.391Z" fill="white"/>
<path d="M92.9993 97.0897C93.0709 97.015 93.1195 96.9212 93.1393 96.8197C93.1993 96.4997 93.2793 96.0697 80.6393 81.8997L77.9993 69.6497C78.4393 68.8397 78.8393 68.0197 79.1893 67.2097C81.5482 66.5136 83.9414 65.9395 86.3593 65.4897C86.8448 65.424 87.306 65.2376 87.7008 64.9476C88.0956 64.6576 88.4114 64.2732 88.6193 63.8297C90.0293 60.9897 88.1993 54.9497 86.5093 51.7697L80.9993 38.6397C80.1493 33.6397 78.3693 32.3897 77.5093 32.0797C77.4968 31.5548 77.3297 31.0453 77.0292 30.6149C76.7286 30.1845 76.3078 29.8522 75.8193 29.6597C75.7199 29.6446 75.6188 29.6446 75.5193 29.6597C75.384 29.6621 75.2495 29.6823 75.1193 29.7197L74.3593 28.2397C74.8145 27.5356 75.1522 26.7621 75.3593 25.9497V25.8197C75.7395 24.5849 75.7395 23.2644 75.3593 22.0297C74.8469 20.5665 73.9692 19.2585 72.8093 18.2297C72.3579 17.7487 71.8136 17.3643 71.2093 17.0997C70.7785 16.9351 70.3205 16.8537 69.8593 16.8597C69.5034 16.8637 69.1485 16.9005 68.7993 16.9697C67.658 17.1934 66.5856 17.6834 65.6693 18.3997L65.4693 18.5497C65.1738 18.8642 64.7844 19.0747 64.3593 19.1497H64.2293C64.0176 19.1398 63.81 19.2114 63.6493 19.3497C63.5417 19.4588 63.4627 19.5927 63.4193 19.7397C63.2698 19.6962 63.1151 19.6727 62.9593 19.6697C62.8213 19.6716 62.6838 19.6883 62.5493 19.7197C62.433 19.7524 62.3324 19.8261 62.2663 19.9272C62.2001 20.0283 62.1728 20.15 62.1893 20.2697V20.2697C62.1365 20.2592 62.0822 20.2592 62.0293 20.2697C61.9381 20.3009 61.8582 20.3584 61.7995 20.4349C61.7408 20.5114 61.7059 20.6035 61.6993 20.6997C61.6133 21.5066 61.7886 22.3198 62.1993 23.0197C62.5003 23.4958 62.9452 23.8635 63.4693 24.0697C63.3264 24.8142 63.2927 25.5755 63.3693 26.3297C63.6793 29.5997 65.8793 32.2297 68.5293 32.5697L69.2693 34.1397L68.9393 34.4597C68.8543 34.5505 68.8069 34.6703 68.8069 34.7947C68.8069 34.9191 68.8543 35.0389 68.9393 35.1297C69.3893 35.6797 68.7193 37.1297 67.8793 39.0797C67.3893 40.1597 66.8793 41.3997 66.3193 42.8197C65.9177 44.0763 65.6397 45.3691 65.4893 46.6797C65.4929 46.6531 65.4929 46.6262 65.4893 46.5997L56.9193 31.8997C56.8757 31.8241 56.8131 31.7613 56.7376 31.7174C56.6622 31.6736 56.5766 31.6502 56.4893 31.6497C56.4009 31.648 56.314 31.6723 56.2393 31.7197L50.2393 35.1597C50.1227 35.2285 50.0368 35.3395 49.9993 35.4697C49.969 35.5993 49.9905 35.7357 50.0593 35.8497L52.7393 40.4597C52.3728 40.5839 52.0661 40.8407 51.8793 41.1797C51.7472 41.4074 51.6639 41.6602 51.6346 41.9218C51.6054 42.1835 51.6308 42.4484 51.7093 42.6997C52.2993 44.6997 55.7793 46.8497 56.9993 47.5397C56.8313 47.9521 56.7236 48.3866 56.6793 48.8297C56.6793 49.1497 56.8993 49.4197 57.3493 49.6497C57.2741 49.9298 57.2566 50.2223 57.2978 50.5093C57.3391 50.7964 57.4383 51.0721 57.5893 51.3197C57.6832 51.4294 57.7998 51.5176 57.931 51.578C58.0622 51.6384 58.2049 51.6697 58.3493 51.6697C59.5156 51.9354 60.6443 52.3452 61.7093 52.8897C62.7093 53.2997 63.7093 53.7697 64.8193 54.1697C64.6418 57.5475 64.722 60.934 65.0593 64.2997C65.101 64.533 65.1899 64.7554 65.3206 64.9532C65.4513 65.1509 65.621 65.3199 65.8193 65.4497C63.3093 71.6897 60.3193 86.0797 60.1993 86.6997L56.1093 102.84C56.0997 102.919 56.0997 103 56.1093 103.08C54.6567 104.178 52.9235 104.843 51.1093 105C49.6093 105 48.6093 105.31 48.1093 105.93C48.0118 106.088 47.9513 106.267 47.9323 106.452C47.9132 106.637 47.9362 106.825 47.9993 107C48.4393 108.54 51.6893 109.33 57.6593 109.33C59.8095 109.397 61.9608 109.243 64.0793 108.87C64.6893 108.56 64.7893 107.67 64.3993 105.87L68.5993 87.6997C69.1647 85.2672 69.9307 82.8857 70.8893 80.5797L72.8893 85.8197C72.9151 85.8857 72.9523 85.9467 72.9993 85.9997C83.3493 97.6997 86.2393 100.49 87.1493 101.15C87.1493 102.63 86.6693 104.72 85.6793 105.05C83.6793 105.71 82.6093 107.25 82.6093 108.05C82.6093 108.85 83.8993 108.99 84.3293 108.99C85.6454 108.937 86.9557 108.787 88.2493 108.54C91.4193 108.01 94.8493 103.42 96.1393 101.69C96.2993 101.47 96.4693 101.24 96.5093 101.2C96.5693 101.138 96.6154 101.064 96.6447 100.983C96.674 100.902 96.6858 100.816 96.6793 100.73C96.6293 99.9997 94.3893 98.1597 92.9993 97.0897ZM86.3193 64.9997C86.8065 64.9297 87.2622 64.7175 87.6293 64.3897C87.2622 64.7175 86.8065 64.9297 86.3193 64.9997V64.9997ZM88.0693 63.8597C88.3293 63.4209 88.4993 62.9348 88.5693 62.4297C88.4993 62.9348 88.3293 63.4209 88.0693 63.8597V63.8597ZM75.7093 30.1397C75.6104 30.1195 75.5083 30.1195 75.4093 30.1397H75.5493H75.7093ZM75.3093 30.1397C75.1695 30.1722 75.0324 30.2156 74.8993 30.2697C75.0329 30.2224 75.17 30.1857 75.3093 30.1597V30.1397ZM69.8993 17.3697C69.7862 17.3597 69.6725 17.3597 69.5593 17.3697H69.8493H69.8993ZM69.3893 17.3697C69.2214 17.3825 69.0544 17.4058 68.8893 17.4397C69.0539 17.3991 69.2209 17.3691 69.3893 17.3497V17.3697ZM63.7193 20.4397C63.7436 20.439 63.7671 20.4311 63.7868 20.4168C63.8064 20.4025 63.8213 20.3826 63.8293 20.3597C63.8183 20.3788 63.8022 20.3946 63.7828 20.4052C63.7634 20.4158 63.7414 20.4208 63.7193 20.4197V20.4397ZM65.5893 19.0697L65.4693 19.1597L65.5893 19.0697ZM65.1993 19.3497L65.0493 19.4297L65.1993 19.3497ZM64.7893 19.5497H64.6093H64.7893ZM64.1293 19.6297C64.0745 19.6345 64.0224 19.6554 63.9793 19.6897C64.0211 19.6518 64.0734 19.6274 64.1293 19.6197V19.6297ZM63.8293 20.3297C63.8406 20.2668 63.8406 20.2025 63.8293 20.1397C63.8394 20.1993 63.8394 20.2601 63.8293 20.3197V20.3297ZM63.3293 20.2397H63.2493H63.3293ZM64.9993 46.8497L64.4993 47.1397L64.9993 46.8497ZM50.5193 35.5997L53.5993 40.9097C53.4862 40.9 53.3725 40.9 53.2593 40.9097H53.5593L50.5193 35.5997ZM52.8393 40.9997C52.7727 41.0304 52.7091 41.0672 52.6493 41.1097C52.7091 41.0672 52.7727 41.0304 52.8393 40.9997V40.9997ZM53.1593 40.9097H52.9393H53.1593ZM52.5693 41.1697C52.4826 41.2542 52.4054 41.3481 52.3393 41.4497C52.4042 41.3412 52.4814 41.2405 52.5693 41.1497V41.1697ZM65.3193 60.6997C65.3193 61.1297 65.3193 61.5397 65.3693 61.9197C65.3493 61.5397 65.3293 61.1297 65.3193 60.6997ZM65.5793 64.2197C65.5093 63.7797 65.4493 63.2197 65.3993 62.4797C65.3993 63.1897 65.5093 63.7797 65.5793 64.2197C65.602 64.3262 65.6356 64.43 65.6793 64.5297C65.6356 64.43 65.602 64.3262 65.5793 64.2197V64.2197ZM63.4793 108.51H63.3293H63.4793ZM63.2293 108.51H63.0393H63.2293ZM62.9293 108.51H62.6993H62.9293ZM62.5793 108.51H62.2693H62.5793ZM62.1793 108.51H61.7393H62.1793ZM61.6093 108.51H61.2593H61.6093ZM61.0893 108.51H60.7493H61.0893ZM53.9093 108.59H53.6193H53.9093ZM53.1993 108.53H52.9293H53.1993ZM52.4993 108.45H52.2593H52.4993ZM51.7993 108.35H51.6293H51.7993ZM48.6193 107.1L48.5493 107.02L48.6193 107.1ZM48.7593 107.26L48.8593 107.35L48.7593 107.26ZM51.0393 108.26H50.9493H51.0393ZM50.4893 108.12H50.3193H50.4893ZM49.9993 108L49.8193 107.94L49.9993 108ZM49.5593 107.83L49.3993 107.76L49.5593 107.83ZM49.1793 107.64L49.0393 107.56L49.1793 107.64ZM59.9993 108.73H59.6393H59.9993ZM63.7493 108.36H63.8493H63.7493ZM63.5793 108.36H63.6993H63.5793ZM84.3493 108.36C84.8742 108.35 85.3983 108.313 85.9193 108.25C85.3936 108.351 84.8629 108.424 84.3293 108.47L84.3493 108.36Z" fill="#8BAE46"/>
<path d="M119.221 69.8112C119.307 69.7171 119.355 69.594 119.355 69.4662C119.355 69.3385 119.307 69.2153 119.221 69.1212C118.787 68.6752 118.538 68.0827 118.521 67.4612C118.522 67.2527 118.546 67.0449 118.591 66.8412C118.591 66.8412 118.591 66.8412 118.591 66.7712C118.61 66.6859 118.608 66.597 118.583 66.5129C118.559 66.4288 118.513 66.3525 118.451 66.2912C118.385 66.233 118.305 66.1924 118.22 66.1732C118.134 66.1539 118.045 66.1567 117.961 66.1812L109.851 68.7112C109.687 68.5517 109.486 68.436 109.265 68.3749C109.045 68.3137 108.813 68.309 108.591 68.3612C107.941 68.4312 107.191 68.4912 106.671 68.5312C106.659 68.4329 106.629 68.3378 106.581 68.2512C109.091 67.2512 110.281 64.0312 109.241 60.8712C109.027 60.2386 108.731 59.6368 108.361 59.0812C108.707 58.7235 108.932 58.2647 109.001 57.7712C109.087 57.04 108.936 56.3004 108.571 55.6612C108.527 55.5758 108.459 55.5049 108.375 55.457C108.292 55.4091 108.197 55.3863 108.101 55.3912H107.991C107.95 55.2857 107.874 55.1977 107.775 55.1428C107.677 55.0879 107.562 55.0697 107.451 55.0912C107.199 55.1301 106.961 55.2335 106.761 55.3912C106.679 55.294 106.571 55.2213 106.451 55.1812C106.336 55.1467 106.215 55.1369 106.096 55.1524C105.977 55.1679 105.863 55.2084 105.761 55.2712C105.394 55.3565 105.009 55.325 104.661 55.1812L104.451 55.1212C103.431 54.8815 102.37 54.8815 101.351 55.1212C100.602 55.2577 99.9087 55.6046 99.3506 56.1212C98.9483 56.5579 98.6387 57.0715 98.4406 57.6312C97.8566 58.9006 97.6053 60.2979 97.7106 61.6912C97.8391 62.8505 98.3129 63.9445 99.0706 64.8312L99.1406 64.9212C99.5812 65.5041 100.111 66.0137 100.711 66.4312V67.8812C100.583 67.9844 100.478 68.1135 100.404 68.2601C100.33 68.4066 100.288 68.5672 100.281 68.7312C99.9382 68.8678 99.6043 69.0247 99.2806 69.2012C98.7763 69.4919 98.318 69.8559 97.9206 70.2812C97.6168 70.6067 97.3609 70.9737 97.1606 71.3712L95.0606 75.0012C95.0267 75.0592 94.9966 75.1193 94.9706 75.1812C94.9041 75.3395 94.8698 75.5095 94.8698 75.6812C94.8698 75.8529 94.9041 76.0229 94.9706 76.1812C95.1037 76.4737 95.3381 76.7082 95.6306 76.8412L92.1106 86.3012C91.5717 86.6373 91.1763 87.1609 91.0006 87.7712C90.8892 88.0983 90.8468 88.4448 90.8761 88.789C90.9054 89.1333 91.0056 89.4677 91.1706 89.7712C91.4513 90.2952 91.8988 90.7106 92.4422 90.9515C92.9856 91.1924 93.5939 91.2451 94.1706 91.1012C94.5133 91.0283 94.8377 90.8871 95.1246 90.6861C95.4115 90.4851 95.655 90.2283 95.8406 89.9312C96.1899 89.3596 96.3012 88.6739 96.1506 88.0212C96.1506 87.9412 96.1506 87.8712 96.0806 87.7912L98.2806 81.9912C98.4943 83.2234 98.608 84.4708 98.6206 85.7212C98.6206 86.1112 98.6206 86.4312 98.6206 86.7212C98.6206 87.4212 98.5506 87.9212 99.0806 88.2212C99.1518 88.266 99.2293 88.2997 99.3106 88.3212C99.3401 88.6627 99.4141 88.9989 99.5306 89.3212L98.0006 95.8712C91.5206 103.871 91.5806 104.141 91.6406 104.431C89.7206 105.951 89.7006 106.261 89.6406 106.431C89.6404 106.584 89.6934 106.733 89.7906 106.851C89.7906 106.851 89.8806 106.981 89.9806 107.101C91.1106 108.621 92.8106 110.681 94.4506 110.951C96.6506 111.321 97.2406 111.241 97.5706 110.951C97.644 110.89 97.7034 110.813 97.7448 110.727C97.7862 110.641 97.8086 110.547 97.8106 110.451C97.7986 109.976 97.6458 109.515 97.3716 109.127C97.0975 108.739 96.7143 108.441 96.2706 108.271C96.0006 108.181 95.8306 107.591 95.8206 106.991C96.1006 106.991 96.1906 107.351 104.031 98.4912C104.07 98.4474 104.1 98.3965 104.121 98.3412L104.811 96.5512C105.271 97.4594 105.685 98.3906 106.051 99.3412L108.261 108.791C108.289 108.913 108.363 109.02 108.467 109.09C108.57 109.161 108.697 109.19 108.821 109.171H109.201C109.201 109.881 109.201 110.921 109.671 111.171C110.847 111.394 112.044 111.484 113.241 111.441C114.826 111.516 116.412 111.32 117.931 110.861C118.133 110.794 118.317 110.681 118.469 110.532C118.622 110.383 118.738 110.202 118.811 110.001C118.816 109.965 118.816 109.928 118.811 109.891C118.801 109.519 118.655 109.163 118.401 108.891C118.167 108.677 117.892 108.514 117.593 108.41C117.294 108.307 116.976 108.267 116.661 108.291C115.787 108.133 114.976 107.731 114.321 107.131H114.271C114.275 107.058 114.275 106.985 114.271 106.911L112.091 98.8512C111.318 94.9524 110.316 91.1024 109.091 87.3212C109.28 87.1389 109.406 86.9006 109.451 86.6412C109.611 85.7112 110.101 79.0912 109.161 75.1412C109.535 75.0912 109.877 74.8997 110.115 74.6059C110.353 74.312 110.469 73.9383 110.441 73.5612V73.2912L118.741 70.0312C118.833 70.0419 118.927 70.027 119.011 69.9882C119.096 69.9494 119.168 69.8882 119.221 69.8112V69.8112Z" fill="#3B4A1F"/>
<path d="M158.998 70.0795C159.683 70.0858 160.351 69.8628 160.894 69.446C161.438 69.0292 161.827 68.4426 161.998 67.7795C162.102 67.394 162.127 66.9917 162.073 66.5963C162.019 66.2008 161.887 65.8201 161.684 65.4765C161.481 65.1328 161.211 64.8331 160.891 64.595C160.57 64.3568 160.206 64.185 159.818 64.0895C159.717 64.0599 159.613 64.0398 159.508 64.0295L147.848 49.8395L147.928 49.7795L148.118 49.6195C148.419 49.3023 148.581 48.8789 148.57 48.4421C148.559 48.0053 148.375 47.5908 148.058 47.2895L143.268 43.2195C142.864 42.7038 142.377 42.2579 141.828 41.8995C141.896 41.7734 141.93 41.6324 141.928 41.4895C141.932 41.3722 141.908 41.2557 141.858 41.1495C144.258 40.2895 145.858 37.4095 145.498 34.2295C145.435 33.6439 145.308 33.0671 145.118 32.5095H145.248C145.625 32.5561 146.006 32.4826 146.338 32.2995C146.629 32.0666 146.832 31.7411 146.912 31.3772C146.992 31.0133 146.945 30.633 146.778 30.2995C146.397 29.0466 145.705 27.9107 144.766 26.9978C143.827 26.085 142.672 25.425 141.408 25.0795C140.987 24.9282 140.536 24.8802 140.092 24.9393C139.648 24.9985 139.225 25.1631 138.858 25.4195C137.586 24.6718 136.093 24.3878 134.635 24.6157C133.177 24.8435 131.842 25.5692 130.858 26.6695C129.879 27.847 129.237 29.267 128.998 30.7795C128.878 31.3895 128.638 32.1895 128.388 33.0495C127.608 35.6595 126.648 38.9095 127.618 40.6995C128.228 41.8295 129.848 41.7795 131.418 41.6995C132.198 41.6156 132.986 41.6663 133.748 41.8495C134.072 41.986 134.407 42.0963 134.748 42.1795C134.565 42.3253 134.392 42.4823 134.228 42.6495C133.786 43.0517 133.405 43.5166 133.098 44.0295L129.748 48.9195C129.7 48.9847 129.66 49.0551 129.628 49.1295C129.503 49.3847 129.449 49.669 129.472 49.9524C129.495 50.2357 129.594 50.5077 129.758 50.7395L119.758 64.7395C119.267 64.8719 118.817 65.1239 118.447 65.4729C118.077 65.8219 117.799 66.257 117.638 66.7395C117.572 67.0212 117.542 67.3102 117.548 67.5995C117.573 68.4196 117.885 69.2051 118.428 69.8195L118.518 69.9195C119.03 70.377 119.683 70.6452 120.368 70.6795C120.766 70.7052 121.164 70.6515 121.54 70.5216C121.917 70.3917 122.264 70.1882 122.561 69.9229C122.857 69.6577 123.099 69.336 123.27 68.9765C123.441 68.6171 123.539 68.2272 123.558 67.8295C123.558 67.7295 123.558 67.6195 123.558 67.5095L132.738 55.7895C132.891 56.4028 133.078 57.007 133.298 57.5995C134.128 59.9074 134.071 62.4413 133.138 64.7095C133.084 64.9155 133.082 65.132 133.135 65.3385C133.187 65.545 133.292 65.7347 133.438 65.8895C132.573 68.1426 132.573 70.6364 133.438 72.8895L130.938 84.6195C119.178 98.6195 119.268 99.0795 119.328 99.3695C119.34 99.442 119.369 99.5107 119.412 99.5699C119.456 99.629 119.513 99.6769 119.578 99.7095L119.718 99.8195C115.978 102.89 116.268 103.3 116.518 103.66C116.518 103.72 116.638 103.85 116.738 104.03C117.608 105.51 119.918 109.45 123.098 110.03C126.788 110.64 127.818 110.52 128.278 110.13C128.367 110.057 128.439 109.966 128.487 109.862C128.536 109.758 128.56 109.644 128.558 109.53C128.558 108.75 127.498 107.26 125.558 106.62C124.678 106.33 124.248 104.54 124.168 103.12C124.828 102.73 127.228 100.56 137.988 88.3895C138.021 88.3536 138.048 88.3132 138.068 88.2695L140.408 83.1195C141.473 85.3423 142.369 87.6422 143.088 89.9995L147.628 106.86C147.657 106.964 147.716 107.058 147.798 107.13C147.408 109.13 147.748 109.67 148.138 109.87C150.57 110.441 153.061 110.716 155.558 110.69C157.078 110.764 158.598 110.55 160.038 110.06C160.33 109.962 160.596 109.799 160.815 109.582C161.033 109.365 161.199 109.101 161.298 108.81C161.336 108.636 161.335 108.457 161.296 108.284C161.256 108.111 161.178 107.949 161.068 107.81C160.618 107.21 159.648 106.91 158.198 106.91C156.522 106.76 154.92 106.151 153.568 105.15C153.574 105.066 153.574 104.983 153.568 104.9L151.178 88.9995C151.068 88.3995 148.498 74.3795 146.058 68.5295V62.2495C146.242 62.1172 146.391 61.9429 146.494 61.7411C146.597 61.5393 146.65 61.3159 146.648 61.0895V56.0895L155.998 67.1995C156.044 67.9692 156.378 68.6935 156.934 69.2274C157.49 69.7614 158.227 70.0657 158.998 70.0795V70.0795Z" fill="#5B712E"/>
<path d="M59.0516 45.4392C58.354 46.3777 57.8322 47.4347 57.5116 48.5592C57.4838 48.656 57.4955 48.7599 57.5443 48.848C57.593 48.9362 57.6748 49.0013 57.7715 49.0292H57.8716C57.9533 49.0318 58.0335 49.0065 58.0989 48.9574C58.1644 48.9083 58.2111 48.8384 58.2316 48.7592C58.5353 47.6628 59.0631 46.6413 59.7816 45.7592V45.7592C59.8556 45.669 59.9522 45.6 60.0616 45.5592C60.8616 45.4492 63.6316 46.7492 65.1816 47.6192C65.2681 47.6575 65.3657 47.6622 65.4555 47.6323C65.5452 47.6024 65.6206 47.5401 65.6669 47.4576C65.7131 47.3751 65.727 47.2783 65.7056 47.1861C65.6843 47.0939 65.6294 47.013 65.5516 46.9592C65.1116 46.7192 61.2616 44.6092 59.9416 44.8192C59.806 44.8484 59.6771 44.9026 59.5616 44.9792C58.5616 43.8692 55.0616 40.1992 52.9916 40.1992H52.8316C52.6077 40.2177 52.392 40.2912 52.2035 40.4134C52.0151 40.5355 51.8598 40.7024 51.7516 40.8992C51.7164 40.9841 51.7132 41.0787 51.7425 41.1658C51.7718 41.2528 51.8316 41.3263 51.9109 41.3726C51.9901 41.419 52.0835 41.435 52.1737 41.4179C52.2639 41.4007 52.3449 41.3514 52.4016 41.2792C52.4497 41.1852 52.5207 41.1047 52.6081 41.0453C52.6955 40.9859 52.7964 40.9494 52.9016 40.9392C54.4216 40.7392 57.6616 43.9192 59.0516 45.4392Z" fill="white"/>
<path d="M72.1806 30.3696C71.8432 30.8555 71.4068 31.2644 70.9001 31.5694C70.3934 31.8745 69.8278 32.0688 69.2406 32.1396C66.6606 32.3796 64.3006 29.9096 63.9906 26.6196C63.9868 26.5701 63.9732 26.5217 63.9503 26.4776C63.9275 26.4334 63.8961 26.3943 63.8578 26.3625C63.8195 26.3308 63.7752 26.3071 63.7276 26.2929C63.68 26.2786 63.63 26.2741 63.5806 26.2796C63.531 26.2834 63.4827 26.297 63.4385 26.3198C63.3943 26.3427 63.3552 26.3741 63.3235 26.4124C63.2917 26.4507 63.268 26.4949 63.2538 26.5426C63.2395 26.5902 63.2351 26.6402 63.2406 26.6896C63.5806 30.2196 66.0706 32.9096 68.8906 32.9096H69.3106C70.0036 32.8337 70.6722 32.6095 71.2709 32.2523C71.8696 31.8952 72.3845 31.4134 72.7806 30.8396C72.8389 30.7601 72.8633 30.6606 72.8483 30.5631C72.8333 30.4655 72.7801 30.378 72.7006 30.3196C72.621 30.2613 72.5215 30.2369 72.424 30.2519C72.3265 30.2669 72.2389 30.3201 72.1806 30.3996V30.3696Z" fill="white"/>
<path d="M88.7131 100C88.422 100.281 88.0834 100.508 87.7131 100.67C87.6241 100.685 87.5433 100.73 87.4849 100.799C87.4266 100.868 87.3945 100.955 87.3945 101.045C87.3945 101.135 87.4266 101.222 87.4849 101.291C87.5433 101.36 87.6241 101.405 87.7131 101.42C87.9331 101.42 88.2731 101.32 89.1831 100.59C89.2231 100.561 89.2568 100.525 89.2822 100.483C89.3075 100.441 89.324 100.394 89.3306 100.345C89.3371 100.296 89.3336 100.247 89.3203 100.2C89.307 100.152 89.2841 100.108 89.2531 100.07C89.2227 100.029 89.1844 99.9954 89.1405 99.9698C89.0967 99.9442 89.0482 99.9276 88.9979 99.9211C88.9475 99.9146 88.8964 99.9182 88.8475 99.9318C88.7986 99.9453 88.7529 99.9686 88.7131 100V100Z" fill="white"/>
<path d="M58.2299 104.39C57.5999 104.11 56.5499 103.54 56.6699 102.93C56.6791 102.882 56.6787 102.833 56.6689 102.785C56.659 102.737 56.6399 102.692 56.6125 102.651C56.5851 102.611 56.55 102.576 56.5092 102.55C56.4685 102.523 56.4228 102.504 56.3749 102.495C56.3269 102.486 56.2777 102.486 56.2299 102.496C56.1821 102.506 56.1367 102.525 56.0963 102.552C56.0559 102.58 56.0213 102.615 55.9944 102.656C55.9676 102.696 55.9491 102.742 55.9399 102.79C55.7699 103.64 56.4399 104.41 57.9399 105.08C57.9894 105.089 58.0403 105.089 58.0899 105.08C58.1618 105.08 58.2323 105.06 58.2926 105.021C58.353 104.982 58.4007 104.926 58.4299 104.86C58.4609 104.771 58.4576 104.673 58.4206 104.586C58.3836 104.499 58.3157 104.429 58.2299 104.39V104.39Z" fill="white"/>
<path d="M67.6218 65.7005C66.4018 65.4505 65.7318 65.0005 65.6218 64.3805C65.6047 64.283 65.5501 64.1961 65.4698 64.1382C65.3895 64.0803 65.2898 64.056 65.1918 64.0705C65.0955 64.0899 65.01 64.145 64.9526 64.2248C64.8951 64.3045 64.8698 64.403 64.8818 64.5005C65.0418 65.5005 65.8818 66.1105 67.4618 66.4405H67.5418C67.6285 66.4402 67.7124 66.4103 67.7797 66.3557C67.847 66.3011 67.8936 66.2252 67.9118 66.1405C67.9273 66.0442 67.9061 65.9456 67.8524 65.8641C67.7987 65.7827 67.7164 65.7243 67.6218 65.7005V65.7005Z" fill="white"/>
<path d="M81.4228 50.26C81.6622 50.2349 81.9035 50.2349 82.1428 50.26C82.4758 50.2834 82.8099 50.2834 83.1428 50.26H83.6028L81.3428 42C81.3176 41.9045 81.2555 41.8229 81.1702 41.7732C81.0849 41.7235 80.9833 41.7098 80.8878 41.735C80.7924 41.7602 80.7108 41.8223 80.6611 41.9076C80.6114 41.9929 80.5976 42.0945 80.6228 42.19L82.6228 49.54H82.2028C81.9466 49.5199 81.6891 49.5199 81.4328 49.54C81.4328 48.8 81.4328 48.04 81.4328 47.21C81.433 47.1099 81.3946 47.0136 81.3258 46.941C81.2569 46.8685 81.1628 46.8251 81.0628 46.82V46.82C80.9655 46.8225 80.8729 46.8623 80.804 46.9312C80.7352 47 80.6954 47.0926 80.6928 47.19C80.6928 48.13 80.6928 49.01 80.6928 49.84C80.6728 49.9119 80.6728 49.988 80.6928 50.06V50.06C80.8028 57.3 82.1428 60.52 82.8228 62.16C83.2328 63.16 83.1928 63.16 83.0528 63.24C81.5147 63.8018 79.928 64.2203 78.3128 64.49C78.217 64.5116 78.1332 64.5695 78.0792 64.6515C78.0251 64.7336 78.0049 64.8334 78.0228 64.93C78.0371 65.0147 78.0813 65.0916 78.1473 65.1466C78.2134 65.2016 78.2969 65.2312 78.3828 65.23H78.4628L79.7328 65C78.6509 68.2934 76.8934 71.3247 74.5728 73.9C70.2528 78.42 68.3128 87.38 68.2328 87.76C68.2212 87.808 68.2195 87.858 68.228 87.9067C68.2364 87.9554 68.2549 88.0018 68.2821 88.0431C68.3093 88.0844 68.3447 88.1196 68.3861 88.1466C68.4275 88.1736 68.4741 88.1918 68.5228 88.2H68.5928C68.68 88.2015 68.7648 88.1723 68.8325 88.1174C68.9002 88.0626 68.9464 87.9856 68.9628 87.9C68.9628 87.81 70.9628 78.77 75.1128 74.41C77.6113 71.6356 79.4806 68.354 80.5928 64.79C81.5539 64.5901 82.4945 64.3022 83.4028 63.93C84.1528 63.5 83.8828 62.83 83.4928 61.93C82.8328 60.3 81.5528 57.22 81.4228 50.26Z" fill="white"/>
<path d="M69.0512 55.5981C69.6713 55.5678 70.2767 55.3995 70.8234 55.1054C71.3701 54.8113 71.8442 54.3988 72.2112 53.8981C72.2762 53.8239 72.309 53.7268 72.3024 53.6284C72.2959 53.5299 72.2505 53.4381 72.1762 53.3731C72.102 53.3081 72.0049 53.2753 71.9065 53.2819C71.808 53.2885 71.7162 53.3339 71.6512 53.4081C71.343 53.8522 70.9319 54.2151 70.4531 54.4659C69.9742 54.7166 69.4418 54.8478 68.9012 54.8481C67.2077 54.6317 65.5561 54.1632 64.0012 53.4581C63.3212 53.1881 62.6512 52.8981 62.0012 52.6181C60.8359 52.0052 59.5854 51.5704 58.2912 51.3281C58.2023 51.3427 58.1214 51.3884 58.063 51.4571C58.0047 51.5258 57.9727 51.613 57.9727 51.7031C57.9727 51.7933 58.0047 51.8805 58.063 51.9491C58.1214 52.0178 58.2023 52.0636 58.2912 52.0781C59.4789 52.341 60.6282 52.7543 61.7112 53.3081C62.3412 53.5881 63.0112 53.8781 63.7112 54.1581C65.3384 54.8952 67.0681 55.3808 68.8412 55.5981H69.0512Z" fill="white"/>
<path d="M64.3219 24.5087H64.4419C64.7836 24.4805 65.1199 24.4065 65.4419 24.2887L65.8919 24.1687H66.0819C66.1619 24.1613 66.2422 24.1788 66.3119 24.2187C66.353 24.3108 66.38 24.4086 66.3919 24.5087V24.5687C66.6121 25.4219 67.1079 26.1785 67.8023 26.721C68.4967 27.2634 69.3508 27.5615 70.2319 27.5687C70.3884 27.5787 70.5454 27.5787 70.7019 27.5687L71.1919 27.4787C71.3857 27.4322 71.583 27.4021 71.7819 27.3887H71.9219C71.9946 27.5206 72.0484 27.6619 72.0819 27.8087C72.1236 28.149 72.2838 28.4637 72.5343 28.6977C72.7847 28.9317 73.1096 29.0702 73.4519 29.0887H73.5419C74.7019 29.0187 75.2419 27.4587 75.6619 26.0087V25.8687C76.0623 24.5655 76.0623 23.172 75.6619 21.8687C75.1319 20.3794 74.2341 19.0482 73.0519 17.9987C72.5709 17.499 71.9967 17.0981 71.3619 16.8187C70.9024 16.6427 70.4139 16.5545 69.9219 16.5587V16.5587C69.5455 16.5612 69.1703 16.6014 68.8019 16.6787C67.6175 16.9106 66.5043 17.4175 65.5519 18.1587L65.3619 18.3087C65.089 18.5853 64.7416 18.7764 64.3619 18.8587H64.2419C63.9682 18.849 63.7008 18.9417 63.4919 19.1187C63.4014 19.2011 63.3268 19.2994 63.2719 19.4087C63.1688 19.3984 63.0649 19.3984 62.9619 19.4087C62.8033 19.4089 62.6454 19.4291 62.4919 19.4687L62.1019 19.5787L61.6019 18.9987L61.4819 20.6887C61.3862 21.5497 61.5684 22.4187 62.0019 23.1687C62.2437 23.5701 62.5834 23.9035 62.9891 24.1379C63.3948 24.3722 63.8534 24.4998 64.3219 24.5087V24.5087ZM62.2319 20.7487L62.5619 21.0987C62.6985 20.8125 62.7539 20.4943 62.7219 20.1787C62.8113 20.1642 62.9025 20.1642 62.9919 20.1787C63.1292 20.1752 63.2658 20.2001 63.3931 20.2517C63.5204 20.3033 63.6358 20.3806 63.7319 20.4787V20.4787C63.9919 20.4787 63.7319 19.9187 64.0019 19.7287C64.0696 19.6748 64.1558 19.6497 64.2419 19.6587H64.3619C64.9922 19.546 65.5682 19.2299 66.0019 18.7587C66.879 18.0763 67.9083 17.6166 69.0019 17.4187C69.3311 17.3529 69.6661 17.3194 70.0019 17.3187C70.3985 17.3129 70.7925 17.3842 71.1619 17.5287C71.7071 17.7619 72.2002 18.1019 72.6119 18.5287C73.6975 19.5176 74.519 20.7619 75.0019 22.1487C75.3469 23.2933 75.3469 24.5142 75.0019 25.6587C74.8319 26.2587 74.3019 28.2987 73.5219 28.3487C72.6119 28.3487 73.1519 26.7087 71.9519 26.6387H71.8519C71.4543 26.672 71.0598 26.7355 70.6719 26.8287H70.3019C69.5869 26.8166 68.8957 26.5704 68.334 26.1279C67.7723 25.6854 67.3711 25.071 67.1919 24.3787C67.1617 24.1774 67.101 23.9818 67.0119 23.7987C66.9121 23.6613 66.7789 23.5515 66.625 23.4798C66.471 23.4081 66.3013 23.3767 66.1319 23.3887C66.0191 23.3735 65.9047 23.3735 65.7919 23.3887C65.3592 23.5236 64.9183 23.6305 64.4719 23.7087H64.3919C64.0531 23.6964 63.723 23.5982 63.4327 23.4232C63.1423 23.2483 62.9011 23.0024 62.7319 22.7087C62.3635 22.1241 62.1886 21.4384 62.2319 20.7487V20.7487Z" fill="white"/>
<path d="M147.87 47.0898C147.801 47.1608 147.762 47.2559 147.762 47.3548C147.762 47.4538 147.801 47.5489 147.87 47.6198C147.943 47.6875 148.001 47.7695 148.04 47.8608C148.08 47.952 148.1 48.0504 148.1 48.1498C148.102 48.2493 148.085 48.3482 148.049 48.4409C148.013 48.5336 147.959 48.6182 147.89 48.6898L147.81 48.7698L146.47 49.7698C146.37 49.1998 146.25 48.6398 146.11 48.0698C146.098 48.0225 146.077 47.9779 146.048 47.9387C146.019 47.8995 145.983 47.8663 145.941 47.8413C145.899 47.8162 145.853 47.7996 145.805 47.7925C145.756 47.7854 145.707 47.7879 145.66 47.7998C145.564 47.8236 145.481 47.8839 145.428 47.968C145.376 48.052 145.359 48.1531 145.38 48.2498C145.888 50.3248 146.143 52.4536 146.14 54.5898V60.9198C146.138 60.9688 146.147 61.0175 146.165 61.063C146.183 61.1086 146.211 61.1499 146.245 61.1845C146.28 61.2192 146.321 61.2464 146.367 61.2645C146.412 61.2826 146.461 61.2912 146.51 61.2898C146.559 61.2912 146.608 61.2826 146.655 61.2646C146.701 61.2466 146.743 61.2196 146.778 61.1851C146.813 61.1506 146.842 61.1093 146.861 61.0638C146.88 61.0182 146.89 60.9693 146.89 60.9198V54.6098C146.892 53.2708 146.791 51.9336 146.59 50.6098L148.26 49.3298L148.43 49.1898C148.712 48.9052 148.87 48.5206 148.87 48.1198C148.87 47.7191 148.712 47.3345 148.43 47.0498C148.392 47.0134 148.346 46.9854 148.296 46.9676C148.247 46.9498 148.194 46.9425 148.141 46.9463C148.088 46.95 148.037 46.9647 147.99 46.9895C147.944 47.0142 147.903 47.0484 147.87 47.0898V47.0898Z" fill="white"/>
<path d="M123.713 68.2701C123.725 68.2222 123.726 68.1725 123.718 68.124C123.71 68.0754 123.693 68.0289 123.667 67.9871C123.641 67.9454 123.607 67.9091 123.567 67.8804C123.527 67.8518 123.481 67.8313 123.433 67.8201C123.385 67.809 123.336 67.8074 123.287 67.8154C123.239 67.8234 123.192 67.8409 123.15 67.8669C123.109 67.8929 123.072 67.9269 123.044 67.9669C123.015 68.0069 122.995 68.0522 122.983 68.1001C122.911 68.4219 122.776 68.7264 122.587 68.996C122.397 69.2657 122.156 69.4953 121.877 69.6718C121.599 69.8482 121.288 69.9681 120.963 70.0244C120.638 70.0807 120.305 70.0725 119.983 70.0001C119.393 69.8512 118.876 69.4951 118.526 68.9966C118.176 68.4981 118.017 67.8905 118.077 67.2845C118.138 66.6785 118.414 66.1144 118.856 65.6951C119.297 65.2758 119.875 65.0292 120.483 65.0001C120.582 64.9975 120.677 64.9563 120.746 64.8854C120.815 64.8144 120.853 64.7192 120.853 64.6201C120.853 64.5707 120.844 64.5217 120.824 64.4762C120.805 64.4306 120.777 64.3894 120.742 64.3549C120.706 64.3204 120.664 64.2934 120.618 64.2754C120.572 64.2574 120.523 64.2488 120.473 64.2501C119.669 64.2645 118.897 64.5734 118.305 65.1184C117.712 65.6633 117.34 66.4065 117.259 67.2073C117.178 68.008 117.393 68.8108 117.864 69.4637C118.334 70.1166 119.028 70.5743 119.813 70.7501H120.003C120.821 70.8835 121.659 70.7017 122.347 70.2414C123.036 69.781 123.524 69.0765 123.713 68.2701V68.2701Z" fill="white"/>
<path d="M134.1 66.5388C134.222 66.5832 134.351 66.6036 134.48 66.5988C134.727 66.5948 134.97 66.5474 135.2 66.4588C135.246 66.4402 135.287 66.4127 135.322 66.3779C135.357 66.343 135.385 66.3016 135.403 66.2559C135.422 66.2103 135.431 66.1614 135.431 66.1121C135.43 66.0628 135.42 66.0141 135.4 65.9688C135.384 65.9226 135.358 65.8803 135.324 65.8444C135.291 65.8086 135.25 65.7799 135.205 65.7602C135.161 65.7406 135.112 65.7303 135.063 65.7301C135.014 65.7298 134.965 65.7396 134.92 65.7588C134.74 65.846 134.536 65.8706 134.34 65.8288C133.977 65.6997 133.67 65.4488 133.47 65.1188C133.433 65.0258 133.433 64.9219 133.47 64.8288C133.486 64.7822 133.492 64.733 133.488 64.684C133.484 64.635 133.471 64.5873 133.449 64.5435C133.426 64.4998 133.396 64.4609 133.358 64.4292C133.32 64.3975 133.277 64.3736 133.23 64.3588C133.184 64.3416 133.135 64.334 133.086 64.3364C133.038 64.3387 132.99 64.3511 132.946 64.3726C132.902 64.3941 132.862 64.4244 132.831 64.4616C132.799 64.4988 132.775 64.5421 132.76 64.5888C132.712 64.7296 132.694 64.8792 132.708 65.0274C132.721 65.1757 132.767 65.3193 132.84 65.4488C133.112 65.9544 133.561 66.3424 134.1 66.5388V66.5388Z" fill="white"/>
<path d="M135 53.3278C135.238 53.3313 135.47 53.2496 135.653 53.0974C135.837 52.9453 135.959 52.7326 136 52.4978C136.023 52.4486 136.035 52.395 136.035 52.3407C136.036 52.2864 136.024 52.2327 136.002 52.1831C135.98 52.1335 135.947 52.0893 135.907 52.0533C135.866 52.0174 135.818 51.9906 135.766 51.9747C135.714 51.9589 135.66 51.9543 135.606 51.9614C135.552 51.9684 135.5 51.9869 135.454 52.0157C135.408 52.0444 135.369 52.0827 135.339 52.1279C135.309 52.1731 135.289 52.2242 135.28 52.2778C135.2 52.5178 135.15 52.6878 134.53 52.5078L130.35 50.5578C130.26 50.5165 130.157 50.5123 130.063 50.5459C129.97 50.5795 129.893 50.6484 129.85 50.7378C129.812 50.8297 129.81 50.9326 129.846 51.0255C129.881 51.1185 129.951 51.1944 130.04 51.2378L133.99 53.0878L131 56.9978C130.943 57.0769 130.918 57.175 130.931 57.2719C130.944 57.3687 130.994 57.4568 131.07 57.5178C131.134 57.572 131.216 57.6005 131.3 57.5978C131.357 57.5966 131.413 57.5836 131.465 57.5595C131.516 57.5354 131.562 57.5007 131.6 57.4578L134.81 53.2878L135 53.3278Z" fill="white"/>
<path d="M146.411 32.3976H146.481C146.806 32.1362 147.036 31.7753 147.135 31.3706C147.235 30.9658 147.198 30.5396 147.031 30.1576C146.639 28.8613 145.924 27.6858 144.953 26.7413C143.983 25.7968 142.788 25.1143 141.481 24.7576C141.119 24.6606 140.746 24.6102 140.371 24.6076C139.829 24.5897 139.295 24.7399 138.841 25.0376C137.528 24.3229 136.012 24.0704 134.538 24.3206C133.063 24.5709 131.716 25.3094 130.711 26.4176C129.673 27.6081 128.981 29.0609 128.711 30.6176C128.591 31.2176 128.351 32.0176 128.101 32.8676C127.311 35.5176 126.331 38.8676 127.351 40.7076C127.911 41.7076 129.191 41.8876 130.351 41.8876H131.351H132.291C132.724 41.8698 133.156 41.9239 133.571 42.0476C134.317 42.3529 135.115 42.5124 135.921 42.5176C137.028 42.502 138.104 42.1458 139.001 41.4976C139.816 40.9343 140.427 40.1225 140.742 39.1834C141.058 38.2444 141.061 37.2285 140.751 36.2876C140.575 35.851 140.358 35.4324 140.101 35.0376C139.991 34.8676 139.891 34.6976 139.791 34.5176C139.564 34.1625 139.446 33.7489 139.451 33.3276C140.011 32.9576 142.591 32.6176 144.931 32.6176H145.421C145.764 32.627 146.105 32.5514 146.411 32.3976V32.3976ZM145.001 31.8676C143.061 31.8676 139.001 32.1476 138.811 33.0576C138.72 33.6913 138.858 34.337 139.201 34.8776C139.548 35.411 139.856 35.9691 140.121 36.5476C140.374 37.3325 140.366 38.1778 140.099 38.9579C139.832 39.738 139.321 40.4112 138.641 40.8776C137.861 41.41 136.936 41.6893 135.991 41.6776C135.284 41.6734 134.584 41.5307 133.931 41.2576C133.425 41.0951 132.893 41.024 132.361 41.0476C131.731 41.0476 131.051 41.0976 130.361 41.0976C129.301 41.0976 128.361 40.9676 128.011 40.3076C126.841 38.1376 128.951 33.1476 129.441 30.7276C129.688 29.3079 130.313 27.9812 131.251 26.8876C132.2 25.8254 133.498 25.14 134.91 24.9563C136.322 24.7727 137.753 25.1033 138.941 25.8876C139.107 25.6731 139.324 25.5039 139.572 25.3955C139.82 25.2871 140.092 25.2431 140.361 25.2676C140.668 25.2717 140.974 25.312 141.271 25.3876C142.447 25.7199 143.521 26.3416 144.394 27.1958C145.268 28.05 145.913 29.1096 146.271 30.2776C146.411 30.7676 146.451 31.3976 146.031 31.6776C145.843 31.7763 145.634 31.8278 145.421 31.8276H145.001V31.8676Z" fill="white"/>
<path d="M123.901 102.161C123.901 102.161 123.731 102.161 123.271 101.781C123.19 101.721 123.089 101.696 122.989 101.711C122.89 101.726 122.801 101.78 122.741 101.861C122.712 101.9 122.691 101.945 122.679 101.992C122.667 102.04 122.665 102.089 122.672 102.137C122.68 102.186 122.697 102.232 122.722 102.274C122.748 102.316 122.781 102.352 122.821 102.381C123.115 102.662 123.488 102.847 123.891 102.911C123.991 102.908 124.086 102.867 124.157 102.797C124.227 102.726 124.268 102.631 124.271 102.531C124.268 102.433 124.228 102.341 124.16 102.272C124.091 102.203 123.998 102.163 123.901 102.161V102.161Z" fill="white"/>
<path d="M153.79 104.599C153.761 104.51 153.701 104.435 153.62 104.388C153.54 104.341 153.445 104.325 153.353 104.344C153.262 104.362 153.18 104.414 153.124 104.488C153.069 104.563 153.042 104.656 153.05 104.749C153.05 104.949 152.85 105.259 152.47 105.499C152.387 105.554 152.33 105.639 152.309 105.736C152.288 105.833 152.307 105.935 152.36 106.019C152.393 106.07 152.439 106.113 152.493 106.143C152.548 106.173 152.608 106.188 152.67 106.189C152.741 106.189 152.811 106.168 152.87 106.129C153.13 105.999 153.94 105.389 153.79 104.599Z" fill="white"/>
<path d="M136.883 76.6389C135.083 74.7489 133.943 73.2989 133.483 71.4589C133.449 71.3726 133.385 71.3019 133.302 71.2599C133.219 71.2179 133.124 71.2076 133.034 71.231C132.945 71.2544 132.866 71.3098 132.815 71.3867C132.763 71.4637 132.741 71.5569 132.753 71.6489C133.443 73.7671 134.682 75.6648 136.343 77.1489C137.965 78.9821 139.297 81.0528 140.293 83.2889C140.325 83.352 140.373 83.4051 140.433 83.4422C140.494 83.4793 140.563 83.4989 140.633 83.4989C140.686 83.5124 140.741 83.5124 140.793 83.4989C140.841 83.4814 140.885 83.4542 140.922 83.4191C140.958 83.384 140.988 83.3416 141.007 83.2947C141.027 83.2477 141.037 83.1973 141.036 83.1464C141.035 83.0955 141.024 83.0453 141.003 82.9989C139.972 80.6758 138.582 78.5296 136.883 76.6389V76.6389Z" fill="white"/>
<path d="M106 67.918C105.501 68.07 104.975 68.1138 104.458 68.0465C103.941 67.9793 103.444 67.8025 103 67.528C102.912 67.48 102.809 67.4678 102.712 67.4939C102.615 67.52 102.532 67.5823 102.48 67.668C102.455 67.7106 102.439 67.7577 102.433 67.8065C102.426 67.8553 102.43 67.905 102.443 67.9525C102.456 68 102.478 68.0444 102.509 68.0831C102.539 68.1219 102.577 68.1541 102.62 68.178C103.329 68.5977 104.136 68.822 104.96 68.828C105.392 68.8317 105.821 68.7641 106.23 68.628C106.324 68.5975 106.402 68.5309 106.447 68.4427C106.492 68.3546 106.501 68.2522 106.47 68.158C106.44 68.0639 106.373 67.9857 106.285 67.9407C106.197 67.8957 106.094 67.8875 106 67.918V67.918Z" fill="white"/>
<path d="M97.7598 95.8902C91.5198 103.89 91.5798 104.08 91.6298 104.3C91.6451 104.366 91.68 104.425 91.7299 104.47C89.6199 106.2 89.5898 106.54 89.5898 106.69C89.5913 106.803 89.6299 106.912 89.6998 107C89.6998 107 89.8098 107.15 89.9198 107.3C90.6098 108.3 92.4498 110.93 94.2098 111.22H94.2698C94.368 111.229 94.4658 111.199 94.5417 111.137C94.6177 111.074 94.6656 110.983 94.6749 110.885C94.6841 110.787 94.654 110.689 94.5912 110.613C94.5284 110.537 94.438 110.489 94.3398 110.48C92.8798 110.24 91.1098 107.71 90.5298 106.87L90.3998 106.69C91.024 106.051 91.6923 105.456 92.3998 104.91L94.8398 106.46C95.8398 107.06 96.0698 107.06 96.1498 107.06C96.2509 107.06 96.3484 107.022 96.4226 106.954C96.4968 106.885 96.5423 106.791 96.5499 106.69C96.5525 106.642 96.5456 106.594 96.5293 106.549C96.513 106.503 96.4878 106.462 96.4552 106.426C96.4226 106.391 96.3832 106.362 96.3393 106.342C96.2954 106.322 96.248 106.311 96.1998 106.31C95.852 106.174 95.5173 106.007 95.1998 105.81L92.6698 104.22L92.4598 104.08C93.1698 103 96.3198 98.9202 98.3298 96.3502C98.3908 96.2719 98.4183 96.1727 98.4061 96.0742C98.3939 95.9757 98.3431 95.8862 98.2648 95.8252C98.1866 95.7642 98.0873 95.7367 97.9889 95.7489C97.8904 95.7611 97.8008 95.8119 97.7398 95.8902H97.7598Z" fill="white"/>
<path d="M114.133 106.531C114.085 106.535 114.039 106.549 113.998 106.573C113.957 106.597 113.921 106.63 113.893 106.669C113.866 106.708 113.847 106.752 113.838 106.799C113.83 106.846 113.831 106.894 113.843 106.941C113.72 107.075 113.574 107.187 113.413 107.271C113.369 107.294 113.33 107.325 113.299 107.364C113.267 107.402 113.244 107.446 113.23 107.494C113.216 107.541 113.212 107.591 113.217 107.641C113.223 107.69 113.238 107.737 113.263 107.781C113.297 107.838 113.345 107.885 113.403 107.919C113.461 107.952 113.526 107.97 113.593 107.971C113.652 107.984 113.714 107.984 113.773 107.971C114.003 107.851 114.683 107.461 114.573 106.911C114.572 106.856 114.559 106.802 114.536 106.752C114.513 106.702 114.479 106.658 114.438 106.622C114.396 106.586 114.348 106.56 114.295 106.544C114.243 106.528 114.187 106.524 114.133 106.531V106.531Z" fill="white"/>
<path d="M106.573 99.2296C105.653 96.6831 104.3 94.3149 102.573 92.2296L101.573 91.2296C100.715 90.5839 100.076 89.6903 99.7432 88.6696C99.7415 88.6278 99.7236 88.5883 99.6932 88.5596L100.413 88.6296C100.507 88.6274 100.597 88.5904 100.665 88.5258C100.734 88.4611 100.776 88.3734 100.783 88.2796C100.787 88.2302 100.781 88.1805 100.766 88.1334C100.75 88.0863 100.726 88.0428 100.693 88.0055C100.66 87.9682 100.62 87.9378 100.576 87.9162C100.531 87.8945 100.483 87.8821 100.433 87.8796C99.9938 87.8688 99.5573 87.805 99.1332 87.6896C99.0905 87.6653 99.0435 87.6496 98.9947 87.6435C98.946 87.6374 98.8965 87.641 98.8492 87.654C98.8018 87.667 98.7575 87.6892 98.7187 87.7193C98.6799 87.7494 98.6475 87.7869 98.6232 87.8296C98.5989 87.8723 98.5832 87.9193 98.5771 87.968C98.571 88.0168 98.5746 88.0662 98.5876 88.1136C98.6006 88.1609 98.6228 88.2053 98.6529 88.2441C98.683 88.2828 98.7205 88.3153 98.7632 88.3396C98.8728 88.3977 98.9909 88.4382 99.1132 88.4596C99.0608 88.5043 99.0211 88.5621 98.9983 88.6271C98.9755 88.6921 98.9702 88.7619 98.9832 88.8296C99.3293 89.9931 100.028 91.0204 100.983 91.7696C101.273 92.0496 101.583 92.3496 101.903 92.6996C103.563 94.7112 104.868 96.9903 105.763 99.4396L107.973 108.89C107.995 108.972 108.043 109.044 108.11 109.097C108.176 109.149 108.258 109.178 108.343 109.18H108.423C108.471 109.169 108.517 109.149 108.557 109.12C108.598 109.092 108.632 109.056 108.658 109.014C108.684 108.972 108.702 108.925 108.709 108.876C108.717 108.827 108.715 108.778 108.703 108.73L106.573 99.2296Z" fill="white"/>
<path d="M98.9208 64.9398L99.0109 65.0398C99.9409 66.1598 100.721 66.8898 101.521 66.8898C101.664 66.8917 101.806 66.868 101.941 66.8198C102.253 66.6885 102.506 66.4462 102.65 66.1396C102.794 65.8331 102.819 65.484 102.721 65.1598C102.707 65.0402 102.707 64.9194 102.721 64.7998C102.904 64.7389 103.091 64.6888 103.281 64.6498L103.721 64.5498C104.558 64.2771 105.269 63.7135 105.726 62.9613C106.182 62.2091 106.355 61.3181 106.211 60.4498C106.211 60.4498 106.211 60.4498 106.211 60.3898C106.201 60.3135 106.201 60.2362 106.211 60.1598C106.299 60.1104 106.393 60.0734 106.491 60.0498C106.621 60.0498 106.751 60.0498 106.891 59.9898C107.194 59.9695 107.493 59.909 107.781 59.8098C108.19 59.6393 108.549 59.3653 108.82 59.0147C109.092 58.6641 109.268 58.2489 109.331 57.8098C109.422 57.0235 109.261 56.2285 108.871 55.5398C108.807 55.4196 108.712 55.3189 108.596 55.2484C108.48 55.178 108.347 55.1404 108.211 55.1398V55.1398C108.141 55.0499 108.052 54.977 107.949 54.9267C107.847 54.8765 107.735 54.8502 107.621 54.8498H107.501C107.277 54.8811 107.062 54.9595 106.871 55.0798C106.792 55.0227 106.704 54.9788 106.611 54.9498C106.511 54.9347 106.41 54.9347 106.311 54.9498C106.126 54.9557 105.945 55.0036 105.781 55.0898C105.705 55.1085 105.626 55.1085 105.551 55.0898C105.303 55.0717 105.058 55.0247 104.821 54.9498L104.601 54.8898C104.045 54.7499 103.474 54.6794 102.901 54.6798V54.6798C102.389 54.6765 101.879 54.7335 101.381 54.8498C100.609 54.9773 99.8904 55.3245 99.3108 55.8498C98.8764 56.3129 98.5367 56.8564 98.3108 57.4498C97.718 58.7556 97.4635 60.1897 97.5708 61.6198C97.683 62.8356 98.1528 63.9908 98.9208 64.9398V64.9398ZM98.9208 57.7698C99.0987 57.2706 99.3741 56.8117 99.7309 56.4198C100.207 55.978 100.801 55.6829 101.441 55.5698C101.884 55.4701 102.337 55.4197 102.791 55.4198C103.304 55.418 103.814 55.4818 104.311 55.6098C104.678 55.7272 105.057 55.8011 105.441 55.8298C105.617 55.832 105.791 55.7944 105.951 55.7198C106.029 55.6797 106.114 55.6527 106.201 55.6398H106.261C106.491 55.7198 106.531 56.1698 106.701 56.1698H106.771C106.837 56.0199 106.939 55.8886 107.068 55.7874C107.197 55.6863 107.349 55.6184 107.511 55.5898C107.594 55.86 107.749 56.1022 107.961 56.2898L108.111 55.8798C108.425 56.4281 108.558 57.0615 108.491 57.6898C108.45 57.9997 108.329 58.2939 108.142 58.5442C107.955 58.7946 107.707 58.9927 107.421 59.1198C107.029 59.2149 106.632 59.285 106.231 59.3298C106.028 59.3496 105.835 59.4311 105.68 59.5634C105.524 59.6957 105.413 59.8724 105.361 60.0698C105.359 60.2522 105.383 60.4339 105.431 60.6098C105.538 61.2983 105.395 62.0022 105.028 62.5946C104.661 63.1869 104.095 63.6285 103.431 63.8398C103.052 63.9066 102.68 64.0104 102.321 64.1498C101.321 64.6498 102.441 65.8298 101.621 66.1498C101.568 66.1603 101.514 66.1603 101.461 66.1498C100.791 66.1498 99.7708 64.8598 99.4608 64.4698C98.7728 63.653 98.3414 62.651 98.2209 61.5898C98.1568 60.2713 98.425 58.9577 99.0008 57.7698H98.9208Z" fill="white"/>
<path d="M109.43 86.1396C109.333 86.1276 109.234 86.1529 109.155 86.2104C109.075 86.2678 109.02 86.3533 109 86.4496C109 86.5696 108.82 86.8996 107.78 87.1896C107.685 87.2198 107.605 87.2853 107.557 87.3728C107.508 87.4602 107.495 87.5629 107.52 87.6597C107.544 87.7371 107.591 87.8051 107.656 87.8537C107.721 87.9022 107.799 87.9289 107.88 87.9296H107.99C109.07 87.6296 109.64 87.1896 109.74 86.5896C109.752 86.5396 109.753 86.4876 109.743 86.4371C109.734 86.3866 109.714 86.3386 109.685 86.2963C109.655 86.2539 109.618 86.2182 109.574 86.1912C109.53 86.1642 109.481 86.1467 109.43 86.1396V86.1396Z" fill="white"/>
<path d="M110.443 69.0003C110.344 68.6459 110.112 68.3435 109.795 68.157C109.478 67.9705 109.101 67.9143 108.743 68.0003C108.646 68.0228 108.562 68.0829 108.51 68.1673C108.457 68.2517 108.44 68.3535 108.463 68.4503C108.485 68.5471 108.546 68.631 108.63 68.6835C108.714 68.736 108.816 68.7528 108.913 68.7303C109.002 68.7084 109.095 68.7052 109.186 68.7209C109.277 68.7366 109.364 68.7709 109.441 68.8215C109.518 68.8722 109.583 68.9382 109.634 69.0154C109.684 69.0927 109.718 69.1794 109.733 69.2703L109.973 73.0903C109.978 73.1849 110.019 73.274 110.088 73.3391C110.157 73.4042 110.248 73.4404 110.343 73.4403V73.4403C110.392 73.4378 110.441 73.4253 110.486 73.4037C110.53 73.3821 110.57 73.3517 110.603 73.3144C110.635 73.2771 110.66 73.2336 110.676 73.1865C110.691 73.1394 110.697 73.0897 110.693 73.0403L110.453 69.2203C110.455 69.1468 110.451 69.0733 110.443 69.0003V69.0003Z" fill="white"/>
<path d="M95.6918 77.1877L99.0018 78.3377L97.3118 83.1777C97.2796 83.2719 97.2857 83.375 97.3287 83.4647C97.3717 83.5545 97.4482 83.6238 97.5418 83.6577H97.6618C97.7399 83.6569 97.816 83.6327 97.8802 83.5881C97.9444 83.5435 97.9937 83.4807 98.0218 83.4077L99.7318 78.5177C100.019 78.5166 100.297 78.4166 100.519 78.2345C100.742 78.0523 100.894 77.7992 100.952 77.5177C100.973 77.4196 100.954 77.3173 100.899 77.233C100.845 77.1487 100.76 77.0893 100.662 77.0677C100.565 77.0498 100.465 77.07 100.383 77.1241C100.301 77.1781 100.243 77.2619 100.222 77.3577C100.201 77.4249 100.168 77.4873 100.123 77.5411C100.078 77.5949 100.022 77.639 99.9594 77.6708C99.8968 77.7026 99.8284 77.7213 99.7584 77.726C99.6883 77.7306 99.618 77.721 99.5518 77.6977L95.9318 76.4177C95.8852 76.4004 95.8357 76.3927 95.7861 76.3949C95.7364 76.3972 95.6878 76.4094 95.643 76.4309C95.5982 76.4523 95.5582 76.4826 95.5253 76.5198C95.4925 76.5571 95.4675 76.6006 95.4518 76.6477C95.426 76.6982 95.4118 76.7537 95.4103 76.8104C95.4088 76.867 95.4199 76.9232 95.4429 76.975C95.4659 77.0268 95.5002 77.0727 95.5433 77.1095C95.5863 77.1463 95.6371 77.1731 95.6918 77.1877Z" fill="white"/>
<path d="M69.9203 17.3203C70.3169 17.3145 70.7109 17.3858 71.0803 17.5303C71.6256 17.7635 72.1186 18.1035 72.5303 18.5303C73.6451 19.51 74.4946 20.7551 75.0003 22.1503C75.3454 23.2949 75.3454 24.5158 75.0003 25.6603C74.8109 26.5627 74.4326 27.4147 73.8903 28.1603L75.0003 30.3303C75.2039 30.232 75.4246 30.1742 75.6503 30.1603C75.7031 30.1498 75.7575 30.1498 75.8103 30.1603C77.1803 30.5503 77.1803 32.5003 77.1803 32.5003C77.1803 32.5003 79.6303 32.6403 80.6703 38.8303L86.2403 52.0903C88.2403 55.8503 90.7603 64.4303 86.4503 65.0903C83.9355 65.5728 81.4486 66.1903 79.0003 66.9403C78.6044 67.894 78.1502 68.8224 77.6403 69.7203L80.3303 82.3203C80.3303 82.3203 93.2203 96.7803 92.8303 96.9703C92.6702 97.0809 92.5197 97.2046 92.3803 97.3403C92.3803 97.3403 94.3103 98.8203 95.4903 99.9303C97.0303 97.9303 98.4903 96.0903 98.4903 96.0903L100 89.2303C99.8194 88.7827 99.731 88.303 99.7403 87.8203C99.5721 87.8036 99.4071 87.7632 99.2503 87.7003C98.8903 87.4903 99.0703 87.0603 99.0903 85.7003C99.0504 83.8069 98.8294 81.9216 98.4303 80.0703L95.5003 87.7803C95.5492 87.8937 95.5893 88.0108 95.6203 88.1303C95.6817 88.3978 95.6889 88.6749 95.6412 88.9452C95.5936 89.2155 95.4921 89.4735 95.3429 89.7038C95.1937 89.9342 94.9997 90.1322 94.7725 90.2862C94.5453 90.4402 94.2895 90.547 94.0203 90.6003C93.8565 90.6394 93.6887 90.6595 93.5203 90.6603C93.1276 90.6653 92.741 90.5626 92.4025 90.3634C92.064 90.1642 91.7866 89.8761 91.6003 89.5303C91.4671 89.2878 91.3857 89.0202 91.3612 88.7446C91.3367 88.469 91.3697 88.1913 91.458 87.929C91.5464 87.6668 91.6882 87.4258 91.8745 87.2211C92.0608 87.0165 92.2875 86.8528 92.5403 86.7403L96.3003 76.6403L95.9503 76.5103C95.8447 76.4746 95.7474 76.4179 95.6642 76.3437C95.581 76.2696 95.5136 76.1794 95.466 76.0786C95.4184 75.9778 95.3916 75.8684 95.3872 75.7571C95.3828 75.6457 95.4008 75.5346 95.4403 75.4303C95.4366 75.3937 95.4366 75.3569 95.4403 75.3203L97.5603 71.6103C97.7336 71.2437 97.963 70.9063 98.2403 70.6103C98.6021 70.2136 99.0239 69.8762 99.4903 69.6103C99.9179 69.3957 100.359 69.2087 100.81 69.0503C100.757 68.8759 100.767 68.6879 100.841 68.5209C100.914 68.3538 101.045 68.2187 101.21 68.1403V66.1403C100.524 65.7199 99.926 65.1696 99.4503 64.5203C98.7622 63.7035 98.3308 62.7015 98.2103 61.6403C98.1198 60.3327 98.357 59.0232 98.9003 57.8303C99.0782 57.3311 99.3535 56.8722 99.7103 56.4803C100.187 56.0385 100.78 55.7434 101.42 55.6303C101.863 55.5305 102.316 55.4802 102.77 55.4803C103.283 55.4784 103.794 55.5423 104.29 55.6703C104.657 55.7877 105.036 55.8615 105.42 55.8903C105.596 55.8925 105.771 55.8549 105.93 55.7803C106.009 55.7402 106.093 55.7132 106.18 55.7003H106.24C106.47 55.7803 106.51 56.2303 106.68 56.2303H106.75C106.817 56.0804 106.919 55.9491 107.048 55.8479C107.177 55.7468 107.329 55.6789 107.49 55.6503C107.573 55.9205 107.729 56.1627 107.94 56.3503L108.09 55.9403C108.404 56.4886 108.537 57.122 108.47 57.7503C108.43 58.0114 108.335 58.2611 108.192 58.4833C108.049 58.7055 107.861 58.8953 107.64 59.0403C108.109 59.6422 108.474 60.3182 108.72 61.0403C109.72 64.0403 108.58 67.0403 106.2 67.8503C105.84 67.9703 106 68.0203 105.88 68.0203H105.66V68.1103C106.03 68.2103 106.4 68.7803 105.88 69.1103C105.959 69.1287 106.041 69.1287 106.12 69.1103C106.79 69.1103 108.61 68.9103 108.61 68.9103C108.683 68.9004 108.757 68.9004 108.83 68.9103C108.997 68.9133 109.16 68.9579 109.305 69.04C109.45 69.1221 109.572 69.239 109.66 69.3803L118.06 66.7603V66.8503C118.178 66.3912 118.422 65.9743 118.765 65.6473C119.108 65.3202 119.536 65.096 120 65.0003L130.39 50.6003H130.49C130.26 50.4552 130.09 50.2304 130.015 49.9685C129.939 49.7066 129.962 49.4261 130.08 49.1803C130.098 49.124 130.129 49.0726 130.17 49.0303L133.51 44.1403C133.801 43.6626 134.158 43.2283 134.57 42.8503C135.091 42.3212 135.714 41.9028 136.4 41.6203V41.6203C136.254 41.6301 136.107 41.6301 135.96 41.6203C135.253 41.6206 134.553 41.4812 133.9 41.2103C133.394 41.0478 132.862 40.9767 132.33 41.0003C131.7 41.0003 131.02 41.0503 130.33 41.0503C129.27 41.0503 128.33 40.9203 127.98 40.2603C126.81 38.0903 128.92 33.1003 129.41 30.6803C129.657 29.2607 130.282 27.934 131.22 26.8403C132.169 25.7782 133.467 25.0927 134.879 24.9091C136.291 24.7255 137.722 25.056 138.91 25.8403C139.076 25.6259 139.293 25.4566 139.541 25.3483C139.789 25.2399 140.061 25.1959 140.33 25.2203C140.637 25.2244 140.943 25.2647 141.24 25.3403C142.416 25.6726 143.49 26.2943 144.363 27.1486C145.236 28.0028 145.882 29.0623 146.24 30.2303C146.38 30.7203 146.42 31.3503 146 31.6303C145.812 31.729 145.603 31.7805 145.39 31.7803H144.39V31.8303C144.694 32.5341 144.893 33.2787 144.98 34.0403C145.33 37.3803 143.48 40.3103 140.84 40.6403C141.19 40.8103 141.4 41.0103 141.4 41.2303C141.4 41.4503 141.25 41.6003 140.98 41.7403C141.709 42.1105 142.347 42.6362 142.85 43.2803L147.7 47.4103C147.806 47.5153 147.889 47.64 147.946 47.7772C148.003 47.9145 148.032 48.0617 148.032 48.2103C148.032 48.3589 148.003 48.5061 147.946 48.6434C147.889 48.7807 147.806 48.9053 147.7 49.0103C147.662 49.0522 147.618 49.0892 147.57 49.1203L147.08 49.5003L159.19 64.2403C159.339 64.2564 159.486 64.2831 159.63 64.3203C160.23 64.4745 160.753 64.8423 161.1 65.3547C161.448 65.8671 161.596 66.4887 161.517 67.1028C161.439 67.7169 161.139 68.2811 160.673 68.6895C160.208 69.0978 159.609 69.3222 158.99 69.3203V69.3203C158.657 69.3177 158.327 69.2494 158.02 69.1193C157.713 68.9893 157.434 68.8 157.2 68.5622C156.966 68.3245 156.781 68.043 156.656 67.7339C156.531 67.4247 156.468 67.0939 156.47 66.7603L146.14 54.6103V60.9803C146.141 61.1679 146.085 61.3514 145.98 61.5067C145.875 61.6619 145.725 61.7817 145.55 61.8503V68.4803C148.01 74.2803 150.68 88.9303 150.68 88.9303L153.04 104.85C153.076 104.988 153.076 105.133 153.04 105.27C154.537 106.417 156.331 107.111 158.21 107.27C161.21 107.27 160.83 108.59 160.83 108.59C160.5 109.75 158.17 110.1 155.61 110.1C153.176 110.118 150.747 109.859 148.37 109.33C147.96 109.13 148.18 107.67 148.37 106.64H148.08L143.54 89.7703C142.71 87.0138 141.635 84.3366 140.33 81.7703L137.56 87.8603C137.56 87.8603 124.56 102.5 123.86 102.5C123.769 102.493 123.68 102.466 123.6 102.42C123.6 103.77 123.97 106.42 125.34 106.9C127.03 107.46 127.97 108.77 127.97 109.34C127.97 109.62 127.6 109.76 126.8 109.76C125.555 109.712 124.315 109.572 123.09 109.34C119.71 108.77 117.23 103.78 116.84 103.22C116.55 102.81 120 100.01 120.39 99.7003C120.193 99.4895 119.975 99.2986 119.74 99.1303C119.36 98.9403 131.32 84.7003 131.32 84.7003L133.88 72.7003C133.06 70.8603 132.93 68.7003 133.96 65.6403C133.816 65.5432 133.703 65.4068 133.634 65.2474C133.565 65.0879 133.543 64.9119 133.57 64.7403C134.528 62.3551 134.582 59.7021 133.72 57.2803C133.393 56.3875 133.132 55.4717 132.94 54.5403L123 67.2503C123.01 67.4001 123.01 67.5505 123 67.7003C122.96 68.3441 122.676 68.9484 122.206 69.3904C121.736 69.8324 121.115 70.0791 120.47 70.0803H120.33C119.745 70.0494 119.188 69.8201 118.75 69.4303V69.4303L110 72.8603V73.4903C110.02 73.7493 109.938 74.0058 109.772 74.2055C109.606 74.4053 109.369 74.5325 109.11 74.5603H108.56C108.56 74.6503 108.62 74.7403 108.65 74.8303C109.65 78.5803 109.18 85.5103 109.02 86.4703C108.986 86.598 108.927 86.7177 108.846 86.8224C108.766 86.9271 108.665 87.0147 108.55 87.0803C109.94 90.4203 111.69 98.8603 111.69 98.8603L113.87 106.95C113.877 107.004 113.872 107.058 113.857 107.11C113.841 107.161 113.815 107.209 113.78 107.25V107.25C114.44 107.72 115.61 108.75 116.78 108.75C118.49 108.75 118.43 109.88 118.43 109.88C118.19 110.73 115.63 110.95 113.43 110.95C112.293 110.983 111.154 110.909 110.03 110.73C109.8 110.61 109.78 109.2 109.89 108.58C109.31 108.69 108.89 108.75 108.89 108.75L106.68 99.3003C106.171 97.965 105.566 96.6683 104.87 95.4203L103.79 98.2303C103.79 98.2303 96.4203 106.56 95.9903 106.56C95.8204 106.526 95.6579 106.461 95.5103 106.37V106.37C95.3703 107.09 95.5103 108.56 96.2603 108.82C96.6014 108.959 96.8952 109.193 97.1063 109.495C97.3174 109.796 97.4369 110.152 97.4503 110.52C97.4503 110.68 97.2303 110.76 96.7803 110.76C96.072 110.733 95.3667 110.653 94.6703 110.52C93.2003 110.27 91.5403 108.21 90.7403 107.16C90.0346 107.711 89.2146 108.097 88.3403 108.29C87.0661 108.531 85.776 108.678 84.4803 108.73C83.6503 108.73 83.2603 108.58 83.2603 108.29C83.2603 107.7 84.2603 106.29 86.0003 105.75C87.4403 105.27 87.8303 102.57 87.8203 101.17C87.8203 101.17 87.8203 101.06 87.7503 101.06C86.9703 101.06 73.5003 85.8303 73.5003 85.8303L71.0003 79.4603C69.7845 82.1358 68.8398 84.9264 68.1803 87.7903L63.9003 106.15C64.1403 107.21 64.3103 108.47 63.9003 108.69C61.8445 109.023 59.7619 109.16 57.6803 109.1C53.5803 109.1 48.9103 108.68 48.4703 107.1C48.4703 107.1 48.0803 105.73 51.2003 105.73C53.1901 105.55 55.0858 104.8 56.6603 103.57C56.6603 103.57 56.6603 103.57 56.6603 103.57C56.6351 103.455 56.6351 103.336 56.6603 103.22L60.7503 87.0003C60.7503 87.0003 64.0003 71.4203 66.5303 65.3803C66.3111 65.298 66.1149 65.1642 65.9583 64.9902C65.8016 64.8161 65.6891 64.6069 65.6303 64.3803C65.2886 60.9312 65.215 57.4608 65.4103 54.0003V53.9203C62.5003 52.9203 59.4903 51.2503 58.4103 51.2503C57.8203 51.2503 57.7603 50.4403 57.9703 49.4303C58.1003 48.9803 58.4703 48.1603 58.4703 47.9703C58.4703 47.7803 57.8603 47.4703 57.6603 47.3703C57.6603 47.3703 50.9903 43.8303 52.3503 41.4903C52.4458 41.3109 52.5908 41.1628 52.7681 41.0635C52.9454 40.9642 53.1475 40.918 53.3503 40.9303H53.6503L50.5503 35.6003L56.5503 32.1403L65.0003 46.9403L64.5003 47.2303C64.5003 47.2303 64.6503 47.3003 65.8303 47.9803V47.8803C65.9882 46.2455 66.3236 44.6326 66.8303 43.0703C68.3903 38.7703 70.3403 36.0703 69.3703 34.8703L69.9403 34.3003L68.9403 32.1403C66.4103 31.9803 64.2303 29.5303 63.9403 26.3103C63.8601 25.4424 63.9243 24.5672 64.1303 23.7203C63.8364 23.6781 63.5555 23.5709 63.3082 23.4066C63.0608 23.2422 62.8532 23.0249 62.7003 22.7703C62.3481 22.1663 62.1975 21.4657 62.2703 20.7703L62.6003 21.1203C62.7369 20.8341 62.7923 20.5158 62.7603 20.2003C62.8497 20.1858 62.9409 20.1858 63.0303 20.2003C63.1676 20.1968 63.3042 20.2216 63.4315 20.2732C63.5589 20.3249 63.6742 20.4022 63.7703 20.5003V20.5003C64.0303 20.5003 63.7703 19.9403 64.0403 19.7503C64.108 19.6964 64.1942 19.6713 64.2803 19.6803H64.4003C65.0188 19.554 65.58 19.2313 66.0003 18.7603C66.8774 18.0779 67.9067 17.6181 69.0003 17.4203C69.3296 17.3545 69.6645 17.321 70.0003 17.3203H69.9203ZM70.0003 15.8203C69.577 15.821 69.1548 15.8646 68.7403 15.9503C67.4386 16.2052 66.2155 16.7637 65.1703 17.5803L64.9703 17.7403C64.8045 17.8815 64.6272 18.0086 64.4403 18.1203H64.3503C63.8867 18.1056 63.4353 18.2704 63.0903 18.5803L63.0303 18.6403C62.8204 18.64 62.6115 18.6703 62.4103 18.7303C62.1945 18.7771 61.9922 18.8727 61.8189 19.0096C61.6455 19.1465 61.5058 19.3212 61.4103 19.5203C61.2285 19.6491 61.077 19.8161 60.9665 20.0096C60.8559 20.203 60.789 20.4183 60.7703 20.6403C60.6712 21.6624 60.9025 22.6894 61.4303 23.5703C61.6848 23.9904 62.0257 24.3517 62.4303 24.6303C62.3653 25.2352 62.3653 25.8454 62.4303 26.4503C62.7603 29.9703 65.0503 32.8303 67.9103 33.4503L68.1403 33.9403C67.9644 34.1945 67.8702 34.4962 67.8702 34.8053C67.8702 35.1144 67.9644 35.4161 68.1403 35.6703C67.8881 36.7129 67.5085 37.7204 67.0103 38.6703C66.5203 39.7803 66.0103 41.0403 65.4303 42.5003C65.2624 42.9591 65.1189 43.4264 65.0003 43.9003L57.8103 31.4403C57.6786 31.2121 57.4891 31.0227 57.2608 30.891C57.0326 30.7594 56.7738 30.6901 56.5103 30.6903C56.2476 30.694 55.9899 30.7627 55.7603 30.8903L49.7603 34.3503C49.4198 34.5536 49.1695 34.879 49.0603 35.2603C48.961 35.6465 49.0185 36.0563 49.2203 36.4003L51.4403 40.2303C51.2885 40.3862 51.1574 40.5609 51.0503 40.7503C50.848 41.0939 50.7195 41.4759 50.673 41.8719C50.6265 42.2679 50.6631 42.6692 50.7803 43.0503C51.4903 45.5203 55.3703 47.8503 56.6803 48.5603C56.6203 48.7303 56.5603 48.8903 56.5203 49.0303C56.5165 49.0635 56.5165 49.0971 56.5203 49.1303C56.3578 49.6129 56.3058 50.1259 56.3681 50.6313C56.4304 51.1367 56.6054 51.6216 56.8803 52.0503C57.0683 52.2761 57.3038 52.4576 57.57 52.5821C57.8362 52.7065 58.1265 52.7708 58.4203 52.7703C59.4505 53.0656 60.454 53.4469 61.4203 53.9103C62.2003 54.2503 63.0503 54.6203 63.9203 54.9603C63.7672 58.1761 63.8608 61.3989 64.2003 64.6003C64.2726 65.0642 64.4696 65.4997 64.7703 65.8603C62.3103 72.4103 59.5303 85.7203 59.3303 86.6803L55.2603 102.75C54.0833 103.597 52.7034 104.118 51.2603 104.26C49.4003 104.26 48.1603 104.7 47.4903 105.59C47.2686 105.867 47.1166 106.194 47.047 106.542C46.9774 106.89 46.9923 107.249 47.0903 107.59C47.4903 109.02 49.0903 110.65 57.7403 110.65C57.7403 110.65 63.5203 110.65 64.6303 110.08C66.0603 109.36 65.7703 107.39 65.5203 106.21L69.7103 88.2103C70.0572 86.6352 70.4878 85.0796 71.0003 83.5503L72.0903 86.3803C72.1485 86.5472 72.2404 86.7004 72.3603 86.8303C81.2403 96.8303 84.7203 100.5 86.2803 101.83C86.2977 102.732 86.0242 103.616 85.5003 104.35C83.4403 105.04 81.7503 106.82 81.7503 108.35C81.7503 108.93 82.0203 110.29 84.4703 110.29C85.8499 110.24 87.2237 110.086 88.5803 109.83C89.2121 109.714 89.8225 109.501 90.3903 109.2C91.8703 110.93 93.1603 111.85 94.3903 112.06C95.1697 112.204 95.9584 112.291 96.7503 112.32C98.8603 112.32 98.9203 110.75 98.9203 110.58C98.9182 109.963 98.7488 109.358 98.4301 108.83C98.1113 108.302 97.6552 107.87 97.1103 107.58C98.1103 106.78 100.11 104.69 104.89 99.2303L104.97 99.1303C105.09 99.4203 105.17 99.6303 105.21 99.7403L107.4 109.1C107.454 109.335 107.564 109.553 107.721 109.736C107.878 109.919 108.077 110.061 108.3 110.15C108.289 110.53 108.376 110.907 108.551 111.245C108.725 111.582 108.983 111.87 109.3 112.08C110.634 112.388 112.003 112.515 113.37 112.46C117.54 112.46 119.37 111.84 119.85 110.3C119.88 110.192 119.9 110.082 119.91 109.97C119.934 109.801 119.934 109.63 119.91 109.46C120.781 110.161 121.812 110.635 122.91 110.84C124.23 111.096 125.567 111.247 126.91 111.29C129.32 111.29 129.58 109.94 129.58 109.37C129.58 107.91 127.94 106.17 125.93 105.5C125.518 104.883 125.286 104.162 125.26 103.42C126.71 102.25 129.99 98.8403 138.79 88.8903C138.891 88.7778 138.972 88.6494 139.03 88.5103L140.46 85.3703C141.131 86.9407 141.715 88.5464 142.21 90.1803L146.67 107C146.688 107.077 146.715 107.15 146.75 107.22C146.5 108.72 146.56 110.07 147.69 110.63C148.58 111.08 152.69 111.56 155.6 111.56C158.14 111.56 161.6 111.29 162.27 108.96C162.355 108.629 162.363 108.283 162.294 107.949C162.225 107.614 162.08 107.3 161.87 107.03C161.21 106.16 160.01 105.73 158.2 105.73C156.872 105.624 155.597 105.161 154.51 104.39L152.17 88.6503C152.06 88.0103 149.52 74.1703 147.06 68.1203V62.5303C147.441 62.0879 147.65 61.5238 147.65 60.9403V58.7103L155.06 67.4603C155.174 68.1704 155.476 68.8368 155.936 69.3894C156.396 69.942 156.997 70.3604 157.675 70.6005C158.353 70.8406 159.083 70.8935 159.788 70.7537C160.493 70.614 161.148 70.2866 161.683 69.8062C162.218 69.3257 162.614 68.71 162.828 68.0237C163.043 67.3373 163.068 66.6059 162.902 65.9063C162.736 65.2066 162.385 64.5647 161.884 64.048C161.384 63.5314 160.754 63.1591 160.06 62.9703V62.9703L149.17 49.7303C149.491 49.2198 149.627 48.615 149.556 48.0165C149.485 47.418 149.211 46.8618 148.78 46.4403L148.71 46.3803L144 42.3303C143.754 42.0376 143.487 41.7635 143.2 41.5103C144.408 40.7027 145.361 39.5669 145.945 38.2365C146.53 36.9061 146.723 35.4364 146.5 34.0003C146.5 33.7536 146.46 33.5036 146.38 33.2503C146.508 33.2107 146.631 33.1605 146.75 33.1003L146.89 33.0203C147.358 32.6773 147.696 32.1873 147.852 31.6289C148.008 31.0705 147.972 30.4759 147.75 29.9403C147.325 28.5167 146.545 27.2246 145.483 26.1855C144.421 25.1464 143.113 24.3944 141.68 24.0003C141.253 23.8837 140.813 23.8232 140.37 23.8203C139.832 23.8102 139.298 23.9231 138.81 24.1503C137.827 23.6802 136.75 23.4375 135.66 23.4403C134.623 23.4421 133.597 23.6599 132.648 24.08C131.7 24.5001 130.849 25.1133 130.15 25.8803C129.033 27.1734 128.29 28.7464 128 30.4303C127.88 31.0003 127.65 31.7803 127.4 32.6103C126.53 35.5503 125.55 38.8703 126.71 41.0303C127.55 42.6003 129.54 42.6003 130.38 42.6003C130.72 42.6003 131.08 42.6003 131.38 42.6003H132.29H132.78C132.574 42.8495 132.387 43.1136 132.22 43.3903L128.89 48.2503C128.814 48.3578 128.747 48.4715 128.69 48.5903C128.536 48.8982 128.445 49.2337 128.423 49.5772C128.401 49.9207 128.447 50.2651 128.56 50.5903L119.07 63.8103C118.239 64.1334 117.537 64.72 117.07 65.4803L110.07 67.6803C109.848 67.5616 109.608 67.4773 109.36 67.4303C109.724 66.9406 110.017 66.4019 110.23 65.8303C110.814 64.1393 110.814 62.3014 110.23 60.6103C110.062 60.1165 109.851 59.6381 109.6 59.1803C109.824 58.8068 109.971 58.3918 110.03 57.9603C110.149 57.0203 109.963 56.067 109.5 55.2403C109.396 55.0505 109.254 54.8847 109.081 54.7537C108.909 54.6228 108.711 54.5296 108.5 54.4803C108.237 54.2679 107.909 54.1515 107.57 54.1503H107.34C107.162 54.1769 106.988 54.2239 106.82 54.2903V54.2903C106.647 54.2297 106.464 54.1993 106.28 54.2003C106.002 54.2007 105.729 54.2658 105.48 54.3903L104.98 54.2703L104.76 54.2103C104.142 54.0594 103.507 53.9822 102.87 53.9803C102.305 53.9798 101.742 54.0401 101.19 54.1603C100.272 54.3426 99.4229 54.7792 98.7403 55.4203C98.2464 55.9534 97.8624 56.5787 97.6103 57.2603C96.9652 58.6854 96.6934 60.2512 96.8203 61.8103C96.971 63.1664 97.5209 64.4471 98.4003 65.4903L98.4703 65.5703C98.8731 66.074 99.3216 66.5394 99.8103 66.9603V67.5003C99.694 67.6566 99.5997 67.8283 99.5303 68.0103C99.2873 68.1099 99.0502 68.2234 98.8203 68.3503C98.2256 68.6981 97.6863 69.133 97.2203 69.6403C96.8718 70.0227 96.5759 70.4498 96.3403 70.9103L94.2403 74.6003C94.1803 74.6985 94.1301 74.8024 94.0903 74.9103C93.9693 75.1949 93.9069 75.501 93.9069 75.8103C93.9069 76.1196 93.9693 76.4257 94.0903 76.7103C94.1897 76.9202 94.3176 77.1153 94.4703 77.2903L91.3203 85.7603C90.6444 86.2656 90.172 86.9964 89.9885 87.8201C89.8051 88.6438 89.9228 89.5059 90.3203 90.2503C90.6351 90.8373 91.1042 91.3272 91.6769 91.6673C92.2496 92.0074 92.9042 92.1848 93.5703 92.1803C93.8527 92.18 94.1343 92.1499 94.4103 92.0903C94.879 91.9855 95.3221 91.7883 95.7136 91.5101C96.1051 91.2319 96.4371 90.8784 96.6903 90.4703C96.9343 90.0848 97.0997 89.6549 97.177 89.2053C97.2542 88.7556 97.2417 88.2951 97.1403 87.8503L97.5903 86.6603C97.5023 87.0745 97.5274 87.5047 97.6628 87.9058C97.7983 88.307 98.0392 88.6643 98.3603 88.9403C98.3603 89.0903 98.4203 89.2303 98.4603 89.3703L97.1503 95.4903C96.8103 95.9103 96.1503 96.7903 95.2903 97.8203C94.9603 97.5403 94.6403 97.2703 94.3503 97.0403C94.3503 96.2003 93.3503 94.6803 81.7203 81.6803L79.1803 70.0003C79.4903 69.4203 79.7803 68.8303 80.0403 68.2403C82.2209 67.5996 84.434 67.0756 86.6703 66.6703C87.3129 66.5791 87.9229 66.3305 88.4463 65.9467C88.9697 65.5629 89.3901 65.0557 89.6703 64.4703C91.5403 60.7103 88.7503 53.7603 87.5803 51.4703L82.0903 38.4703C81.3003 33.9403 79.7003 32.1703 78.5303 31.4703C78.4274 30.8485 78.1557 30.2669 77.7448 29.789C77.334 29.3111 76.7997 28.9552 76.2003 28.7603C76.0737 28.7208 75.9427 28.6973 75.8103 28.6903L75.6103 28.2903C75.9419 27.633 76.2034 26.9425 76.3903 26.2303V26.1103C76.8251 24.6793 76.8251 23.1513 76.3903 21.7203C75.8197 20.0963 74.8499 18.6417 73.5703 17.4903C73.0202 16.9179 72.3604 16.4621 71.6303 16.1503C71.0854 15.9383 70.5049 15.8331 69.9203 15.8403L70.0003 15.8203ZM124.61 67.7503L132.41 57.7503V57.8103C133.142 59.8996 133.078 62.1853 132.23 64.2303C132.141 64.5026 132.108 64.7903 132.134 65.0758C132.159 65.3613 132.243 65.6385 132.38 65.8903C131.602 68.1312 131.602 70.5694 132.38 72.8103L130 84.0503C118.08 98.2503 118.14 98.5603 118.33 99.4503C118.326 99.4734 118.326 99.4972 118.33 99.5203C115.57 101.83 114.83 102.93 115.66 104.12C115.726 104.217 115.786 104.317 115.84 104.42C116.435 105.466 117.104 106.469 117.84 107.42C117.512 107.346 117.177 107.309 116.84 107.31C116.298 107.176 115.794 106.915 115.37 106.55L113.22 98.5503C112.454 94.7929 111.493 91.0779 110.34 87.4203C110.455 87.212 110.533 86.9853 110.57 86.7503C110.967 83.0914 110.92 79.398 110.43 75.7503C110.739 75.5533 111 75.2907 111.195 74.9814C111.39 74.672 111.515 74.3234 111.56 73.9603L118.68 71.1703C119.201 71.4425 119.774 71.5994 120.36 71.6303H120.58C121.607 71.6316 122.596 71.2377 123.34 70.5303C124.085 69.8229 124.529 68.8561 124.58 67.8303L124.61 67.7503Z" fill="white"/>
</svg>
